{
.appVersion = "3129";
.formatVersion = 3;
DisplayStrings = (
"Handgloves ",
"قبائل العرب
تصنيف:قبائل العرب في الجاهلية - ويكيبيديا، الموسو ع عة الحرة"
);
axes = (
{
name = Weight;
tag = wght;
}
);
classes = (
{
automatic = 1;
code = "alef-ar alef-ar.fina alefHamzaabove-ar alefHamzaabove-ar.fina alefHamzabelow-ar alefHamzabelow-ar.fina alefMadda-ar alefMadda-ar.fina alefMaksura-ar alefWasla-ar alefWasla-ar.fina dal-ar dal-ar.fina lam_alef-ar lam_alef-ar.fina lam_alefHamzaabove-ar lam_alefHamzaabove-ar.fina lam_alefHamzabelow-ar lam_alefHamzabelow-ar.fina lam_alefMadda-ar lam_alefMadda-ar.fina lam_alefWasla-ar lam_alefWasla-ar.fina noonghunna-ar noonghunna-ar.fina reh-ar reh-ar.fina tehMarbuta-ar thal-ar thal-ar.fina waw-ar waw-ar.fina wawHamzaabove-ar wawHamzaabove-ar.fina zain-ar zain-ar.fina";
name = ArabicLetters;
}
);
date = "2007-04-10 19:37:00 +0000";
familyName = Schema;
featurePrefixes = (
{
automatic = 1;
code = "languagesystem DFLT dflt;

languagesystem arab dflt;
";
name = Languagesystems;
}
);
features = (
{
automatic = 1;
code = "feature subs;
feature sups;
feature numr;
feature dnom;
feature frac;
feature pnum;
feature tnum;
feature onum;
feature case;
feature isol;
feature init;
feature medi;
feature fina;
feature salt;
feature ss01;
feature ss02;
feature ss03;
feature ss04;
feature ss05;
feature ss20;
feature sinf;
";
tag = aalt;
},
{
automatic = 1;
code = "lookup ccmp_Other_1 {
	@CombiningTopAccents = [acutecomb brevecomb caroncomb circumflexcomb commaturnedabovecomb dieresiscomb dotaccentcomb gravecomb hungarumlautcomb macroncomb ringcomb tildecomb];
	@CombiningNonTopAccents = [cedillacomb ogonekcomb slashlongcomb slashshortcomb strokeshortcomb];
	sub [i j]' @CombiningTopAccents by [idotless jdotless];
	sub [i j]' @CombiningNonTopAccents @CombiningTopAccents by [idotless jdotless];
} ccmp_Other_1;

lookup ccmp_arab_1 {
	sub hamzaabove-ar damma-ar by hamzaaboveDamma-ar;
	sub damma-ar hamzaabove-ar by hamzaaboveDamma-ar;

glyphs = (
{
glyphname = A;
lastChange = "2017-03-25 20:15:21 +0000";
layers = (
{
anchors = (
{
name = bottom;
pos = (326,0);
},
{
name = ogonek;
pos = (587,10);
},
{
name = top;
pos = (326,700);
}
);
guides = (
{
pos = (0,400);
},
{
angle = 90;
pos = (326,0);
},
{
angle = 90;
pos = (265,0);
},
{
angle = 90;
pos = (387,0);
}
);
layerId = "65DE19D7-C0F2-4D8D-9C1D-34999E633ECA";
shapes = (
{
closed = 1;
nodes = (
(11,0,l),
(133,0,l),
(337,646,l),
(341,705,l),
(308,705,ls),
(241,705,o),
(220,657,o),
(204,606,cs)
);
},
{
closed = 1;
nodes = (
(449,604,ls),
(432,657,o),
(409,705,o),
(345,705,cs),
(311,705,l),
(315,650,l),
(519,0,l),
(641,0,l)
);
},
{
closed = 1;
nodes = (
(180,179,l),
(499,179,l),
(499,281,l),
(180,281,l)
);
},
{
closed = 1;
nodes = (
(254,600,l),
(376,600,l),
(376,659,l),
(254,659,l)
);
}
);
width = 652;
},
{
anchors = (
{
name = bottom;
pos = (292,0);
},
{
name = ogonek;
pos = (526,10);
},
{
name = top;
pos = (292,700);
}
);
guides = (
{
angle = 90;
pos = (292,0);
}
);
layerId = "FCEAB5BF-AFE7-45BC-83DB-D0DE89866BD6";
shapes = (
{
closed = 1;
nodes = (
(0,0,l,{
name = hr00;
}),
(68,0,l),
(298,710,l),
(230,710,l)
);
},
{
closed = 1;
nodes = (
(516,0,l),
(584,0,l),
(354,710,l),
(286,710,l)
);
},
{
closed = 1;
nodes = (
(98,173,l),
(489,173,l),
(489,228,l),
(98,228,l)
);
}
);
width = 584;
}
);
unicode = 65;
userData = {
com.typemytype.robofont.guides = (
{
angle = 0;
isGlobal = 0;
magnetic = 5;
x = 0;
y = 400;
},
{
angle = 90;
isGlobal = 0;
magnetic = 5;
x = 326;
y = 0;
},
{
angle = 90;
isGlobal = 0;
magnetic = 5;
x = 265;
y = 0;
},
{
angle = 90;
isGlobal = 0;
magnetic = 5;
x = 387;
y = 0;
}
);
};
},
{
glyphname = B;
kernLeft = E;
lastChange = "2017-03-25 20:15:23 +0000";
layers = (
{
anchors = (
{
name = bottom;
pos = (320,0);
},
{
name = top;
pos = (320,700);
}
);
guides = (
{
pos = (0,401);
},
{
pos = (0,298);
}
);
layerId = "65DE19D7-C0F2-4D8D-9C1D-34999E633ECA";
shapes = (
{
closed = 1;
nodes = (
(569,488,cs,{
name = hr00;
}),
(569,614,o),
(485,700,o),
(318,700,cs),
(65,700,l),
(65,304,l),
(346,304,ls),
(486,304,o),
(569,392,o)
);
},
{
closed = 1;
nodes = (
(187,598,l),
(326,598,ls),
(408,598,o),
(448,557,o),
(448,476,cs),
(448,355,l),
(308,406,l),
(187,406,l)
);
},
{
closed = 1;
nodes = (
(589,189,cs),
(589,322,o),
(505,406,o),
(338,406,cs),
(65,406,l),
(65,0,l),
(366,0,ls),
(506,0,o),
(589,84,o)
);
},
{
closed = 1;
nodes = (
(187,304,l),
(346,304,ls),
(428,304,o),
(468,263,o),
(468,182,cs),
(468,102,l),
(187,102,l)
);
}
);
width = 639;
},
{
anchors = (
{
name = bottom;
pos = (336,0);
},
{
name = top;
pos = (336,700);
}
);
layerId = "FCEAB5BF-AFE7-45BC-83DB-D0DE89866BD6";
shapes = (
{
closed = 1;
nodes = (
(70,700,l,{
name = hr00;
}),
(70,0,l),
(450,0,ls),
(550,0,o),
(610,60,o),
(610,140,cs),
(610,240,ls),
(610,293,o),
(592,336,o),
(558,363,c),
(572,385,o),
(580,411,o),
(580,440,cs),
(580,540,ls),
(580,640,o),
(519,700,o),
(400,700,cs)
);
},
{
closed = 1;
nodes = (
(190,300,l),
(430,300,ls),
(469,300,o),
(490,280,o),
(490,240,cs),
(490,100,l),
(190,100,l)
);
},
{
closed = 1;
nodes = (
(190,600,l),
(400,600,ls),
(439,600,o),
(460,580,o),
(460,540,cs),
(460,398,l),
(450,399,o),
(440,400,o),
(430,400,cs),
(190,400,l)
);
}
);
width = 671;
}
);
unicode = 66;
userData = {
com.typemytype.robofont.guides = (
{
angle = 0;
isGlobal = 0;
magnetic = 5;
x = 0;
y = 401;
},
{
angle = 0;
isGlobal = 0;
magnetic = 5;
x = 0;
y = 298;
}
);
};
},
{
glyphname = C;
kernLeft = E;
lastChange = "2017-03-25 20:14:15 +0000";
layers = (
{
anchors = (
{
name = bottom;
pos = (318,0);
},
{
name = top;
pos = (318,700);
}
);
layerId = "65DE19D7-C0F2-4D8D-9C1D-34999E633ECA";
shapes = (
{
closed = 1;
nodes = (
(594,510,l,{
name = hr00;
}),
(585,636,o),
(500,710,o),
(343,710,cs),
(279,710,ls),
(139,710,o),
(55,626,o),
(55,514,cs),
(55,214,ls),
(55,74,o),
(140,-10,o),
(307,-10,cs),
(371,-10,ls),
(511,-10,o),
(595,74,o),
(595,186,cs),
(595,190,l),
(473,190,l),
(473,92,l),
(299,92,ls),
(217,92,o),
(177,133,o),
(177,214,cs),
(177,608,l),
(351,608,ls),
(425,608,o),
(465,575,o),
(472,510,c)
);
}
);
width = 635;
},
{
anchors = (
{
name = bottom;
pos = (325,0);
},
{
name = top;
pos = (325,700);
}
);
layerId = "FCEAB5BF-AFE7-45BC-83DB-D0DE89866BD6";
shapes = (
{
closed = 1;
nodes = (
(579,500,l,{
name = hr00;
}),
(570,626,o),
(485,700,o),
(328,700,cs),
(294,700,ls),
(154,700,o),
(70,616,o),
(70,504,cs),
(70,224,ls),
(70,84,o),
(155,0,o),
(322,0,cs),
(356,0,ls),
(496,0,o),
(580,84,o),
(580,196,cs),
(580,200,l),
(515,200,l),
(515,55,l),
(322,55,ls),
(200,55,o),
(135,111,o),
(135,224,cs),
(135,645,l),
(328,645,ls),
(441,645,o),
(505,597,o),
(514,500,c)
);
}
);
width = 650;
}
);
metricLeft = O;
unicode = 67;
},
{
glyphname = D;
kernLeft = E;
lastChange = "2017-03-25 20:12:21 +0000";
layers = (
{
anchors = (
{
name = bottom;
pos = (330,0);
},
{
name = center;
pos = (330,350);
},
{
name = top;
pos = (330,700);
}
);
layerId = "65DE19D7-C0F2-4D8D-9C1D-34999E633ECA";
shapes = (
{
closed = 1;
nodes = (
(605,476,ls,{
name = hr00;
}),
(605,616,o),
(520,700,o),
(353,700,cs),
(65,700,l),
(65,0,l),
(381,0,ls),
(521,0,o),
(605,84,o),
(605,196,cs)
);
},
{
closed = 1;
nodes = (
(187,598,l),
(361,598,ls),
(443,598,o),
(483,557,o),
(483,476,cs),
(483,102,l),
(187,102,l)
);
}
);
width = 660;
},
{
anchors = (
{
name = bottom;
pos = (325,0);
},
{
name = center;
pos = (325,350);
},
{
name = top;
pos = (325,700);
}
);
layerId = "FCEAB5BF-AFE7-45BC-83DB-D0DE89866BD6";
shapes = (
{
closed = 1;
nodes = (
(580,476,ls,{
name = hr00;
}),
(580,616,o),
(495,700,o),
(328,700,cs),
(70,700,l),
(70,0,l),
(356,0,ls),
(496,0,o),
(580,84,o),
(580,196,cs)
);
},
{
closed = 1;
nodes = (
(135,645,l),
(328,645,ls),
(450,645,o),
(515,589,o),
(515,476,cs),
(515,55,l),
(135,55,l)
);
}
);
width = 650;
}
);
metricRight = O;
unicode = 68;
},
{
glyphname = Eth;
lastChange = "2017-03-25 20:11:35 +0000";
layers = (
{
layerId = "65DE19D7-C0F2-4D8D-9C1D-34999E633ECA";
shapes = (
{
closed = 1;
nodes = (
(610,476,ls),
(610,616,o),
(525,700,o),
(358,700,cs),
(70,700,l),
(70,0,l),
(386,0,ls),
(526,0,o),
(610,84,o),
(610,196,cs)
);
},
{
closed = 1;
nodes = (
(192,598,l),
(366,598,ls),
(448,598,o),
(488,557,o),
(488,476,cs),
(488,102,l),
(192,102,l)
);
},
{
closed = 1;
nodes = (
(10,299,l),
(265,299,l),
(265,401,l),
(10,401,l)
);
}
);
width = 665;
},
{
layerId = "FCEAB5BF-AFE7-45BC-83DB-D0DE89866BD6";
width = 600;
}
);
metricRight = O;
unicode = 208;
},
{
glyphname = E;
kernLeft = E;
lastChange = "2017-03-25 20:12:12 +0000";
layers = (
{
anchors = (
{
name = bottom;
pos = (283,0);
},
{
name = ogonek;
pos = (508,10);
},
{
name = top;
pos = (292,700);
},
{
name = topleft;
pos = (20,700);
}
);
layerId = "65DE19D7-C0F2-4D8D-9C1D-34999E633ECA";
shapes = (
{
closed = 1;
nodes = (
(530,0,l,{
name = hr00;
}),
(530,102,l),
(187,102,l),
(187,301,l),
(490,301,l),
(490,403,l),
(187,403,l),
(187,598,l),
(520,598,l),
(520,700,l),
(65,700,l),
(65,0,l)
);
}
);
width = 565;
},
{
anchors = (
{
name = bottom;
pos = (285,0);
},
{
name = ogonek;
pos = (513,10);
},
{
name = top;
pos = (285,700);
},
{
name = topleft;
pos = (20,700);
}
);
guides = (
{
angle = 90;
pos = (500,0);
}
);
layerId = "FCEAB5BF-AFE7-45BC-83DB-D0DE89866BD6";
shapes = (
{
closed = 1;
nodes = (
(500,0,l,{
name = hr00;
}),
(500,55,l),
(135,55,l),
(135,325,l),
(460,325,l),
(460,380,l),
(135,380,l),
(135,645,l),
(490,645,l),
(490,700,l),
(70,700,l),
(70,0,l)
);
}
);
width = 570;
}
);
unicode = 69;
},
{
glyphname = F;
kernLeft = E;
lastChange = "2017-03-25 20:13:06 +0000";
layers = (
{
anchors = (
{
name = bottom;
pos = (278,0);
},
{
name = top;
pos = (278,700);
}
);
layerId = "65DE19D7-C0F2-4D8D-9C1D-34999E633ECA";
shapes = (
{
closed = 1;
nodes = (
(187,0,l,{
name = hr00;
}),
(187,289,l),
(460,289,l),
(460,391,l),
(187,391,l),
(187,598,l),
(510,598,l),
(510,700,l),
(65,700,l),
(65,0,l)
);
}
);
width = 555;
},
{
anchors = (
{
name = bottom;
pos = (275,0);
},
{
name = top;
pos = (275,700);
}
);
layerId = "FCEAB5BF-AFE7-45BC-83DB-D0DE89866BD6";
shapes = (
{
closed = 1;
nodes = (
(130,0,l,{
name = hr00;
}),
(130,315,l),
(440,315,l),
(440,365,l),
(130,365,l),
(130,650,l),
(490,650,l),
(490,700,l),
(70,700,l),
(70,0,l)
);
}
);
width = 550;
}
);
unicode = 70;
},
{
glyphname = G;
kernLeft = O;
lastChange = "2017-03-25 20:13:30 +0000";
layers = (
{
anchors = (
{
name = bottom;
pos = (330,0);
},
{
name = top;
pos = (330,700);
}
);
layerId = "65DE19D7-C0F2-4D8D-9C1D-34999E633ECA";
shapes = (
{
closed = 1;
nodes = (
(330,390,l),
(330,288,l),
(483,288,l),
(483,92,l),
(299,92,ls),
(217,92,o),
(177,133,o),
(177,214,cs),
(177,608,l),
(361,608,ls),
(435,608,o),
(475,575,o),
(482,510,c),
(604,510,l,{
name = hr00;
}),
(595,636,o),
(510,710,o),
(353,710,cs),
(279,710,ls),
(139,710,o),
(55,626,o),
(55,514,cs),
(55,214,ls),
(55,74,o),
(140,-10,o),
(307,-10,cs),
(381,-10,ls),
(521,-10,o),
(605,74,o),
(605,186,cs),
(605,390,l)
);
}
);
width = 660;
},
{
anchors = (
{
name = bottom;
pos = (325,0);
},
{
name = top;
pos = (325,700);
}
);
layerId = "FCEAB5BF-AFE7-45BC-83DB-D0DE89866BD6";
shapes = (
{
closed = 1;
nodes = (
(320,355,l),
(320,305,l),
(520,305,l),
(520,50,l),
(250,50,ls),
(170,50,o),
(130,87,o),
(130,160,cs),
(130,650,l,{
name = hr00;
}),
(400,650,ls),
(480,650,o),
(520,613,o),
(520,540,cs),
(520,500,l),
(580,500,l),
(580,540,ls),
(580,640,o),
(519,700,o),
(400,700,cs),
(230,700,ls),
(130,700,o),
(70,640,o),
(70,560,cs),
(70,160,ls),
(70,60,o),
(131,0,o),
(250,0,cs),
(420,0,ls),
(520,0,o),
(580,60,o),
(580,140,cs),
(580,355,l)
);
}
);
width = 650;
}
);
metricLeft = O;
unicode = 71;
},
{
glyphname = H;
kernLeft = E;
lastChange = "2017-03-25 20:13:59 +0000";
layers = (
{
anchors = (
{
name = bottom;
pos = (335,0);
},
{
name = center;
pos = (335,350);
},
{
name = top;
pos = (335,700);
},
{
name = topleft;
pos = (20,700);
}
);
guides = (
{
pos = (0,350);
}
);
layerId = "65DE19D7-C0F2-4D8D-9C1D-34999E633ECA";
shapes = (
{
closed = 1;
nodes = (
(483,0,l,{
name = hr00;
}),
(605,0,l),
(605,700,l),
(483,700,l),
(483,403,l),
(187,403,l),
(187,700,l),
(65,700,l),
(65,0,l),
(187,0,l),
(187,301,l),
(483,301,l)
);
}
);
width = 670;
},
{
anchors = (
{
name = bottom;
pos = (335,0);
},
{
name = center;
pos = (335,350);
},
{
name = top;
pos = (335,700);
},
{
name = topleft;
pos = (20,700);
}
);
layerId = "FCEAB5BF-AFE7-45BC-83DB-D0DE89866BD6";
shapes = (
{
closed = 1;
nodes = (
(540,0,l,{
name = hr00;
}),
(600,0,l),
(600,700,l),
(540,700,l),
(540,377,l),
(130,377,l),
(130,700,l),
(70,700,l),
(70,0,l),
(130,0,l),
(130,327,l),
(540,327,l)
);
}
);
width = 670;
}
);
unicode = 72;
userData = {
com.typemytype.robofont.guides = (
{
angle = 0;
isGlobal = 0;
magnetic = 5;
x = 0;
y = 350;
}
);
};
},
{
glyphname = I;
kernLeft = E;
lastChange = "2017-03-25 20:14:04 +0000";
layers = (
{
anchors = (
{
name = bottom;
pos = (126,0);
},
{
name = ogonek;
pos = (227,10);
},
{
name = top;
pos = (126,700);
},
{
name = topleft;
pos = (20,700);
}
);
layerId = "65DE19D7-C0F2-4D8D-9C1D-34999E633ECA";
shapes = (
{
closed = 1;
nodes = (
(65,0,l,{
name = hr00;
}),
(187,0,l),
(187,700,l),
(65,700,l)
);
}
);
width = 252;
},
{
anchors = (
{
name = bottom;
pos = (130,0);
},
{
name = ogonek;
pos = (234,10);
},
{
name = top;
pos = (130,700);
},
{
name = topleft;
pos = (20,700);
}
);
layerId = "FCEAB5BF-AFE7-45BC-83DB-D0DE89866BD6";
shapes = (
{
closed = 1;
nodes = (
(100,0,l,{
name = hr00;
}),
(160,0,l),
(160,700,l),
(100,700,l)
);
}
);
width = 260;
}
);
unicode = 73;
},
{
glyphname = J;
lastChange = "2017-03-25 20:12:28 +0000";
layers = (
{
anchors = (
{
name = bottom;
pos = (282,0);
},
{
name = top;
pos = (282,700);
}
);
layerId = "65DE19D7-C0F2-4D8D-9C1D-34999E633ECA";
shapes = (
{
closed = 1;
nodes = (
(25,190,l,{
name = hr00;
}),
(35,66,o),
(118,-10,o),
(276,-10,cs),
(280,-10,ls),
(420,-10,o),
(504,74,o),
(504,186,cs),
(504,700,l),
(382,700,l),
(382,92,l),
(268,92,ls),
(199,92,o),
(156,120,o),
(148,190,c)
);
}
);
width = 564;
},
{
anchors = (
{
name = bottom;
pos = (275,0);
},
{
name = top;
pos = (275,700);
}
);
layerId = "FCEAB5BF-AFE7-45BC-83DB-D0DE89866BD6";
shapes = (
{
closed = 1;
nodes = (
(20,200,l,{
name = hr00;
}),
(20,160,ls),
(20,60,o),
(81,0,o),
(200,0,cs),
(320,0,ls),
(420,0,o),
(480,60,o),
(480,140,cs),
(480,700,l),
(420,700,l),
(420,50,l),
(200,50,ls),
(120,50,o),
(80,87,o),
(80,160,cs),
(80,200,l)
);
}
);
width = 550;
}
);
unicode = 74;
},
{
glyphname = K;
kernLeft = E;
lastChange = "2017-03-25 20:15:30 +0000";
layers = (
{
anchors = (
{
name = bottom;
pos = (317,0);
},
{
name = top;
pos = (317,700);
}
);
guides = (
{
angle = 90;
pos = (216,0);
}
);
layerId = "65DE19D7-C0F2-4D8D-9C1D-34999E633ECA";
shapes = (
{
closed = 1;
nodes = (
(65,0,l,{
name = hr00;
}),
(187,0,l),
(187,700,l),
(65,700,l)
);
},
{
closed = 1;
nodes = (
(175,305,l),
(345,305,l),
(345,407,l),
(175,407,l)
);
},
{
closed = 1;
nodes = (
(204,355,l),
(347,355,l),
(597,700,l),
(454,700,l)
);
},
{
closed = 1;
nodes = (
(477,0,l),
(604,0,l),
(534,259,ls),
(508,357,o),
(418,407,o),
(292,407,c),
(300,305,l),
(361,305,o),
(403,282,o),
(417,228,cs)
);
}
);
width = 634;
},
{
anchors = (
{
name = bottom;
pos = (313,0);
},
{
name = top;
pos = (313,700);
}
);
layerId = "FCEAB5BF-AFE7-45BC-83DB-D0DE89866BD6";
shapes = (
{
closed = 1;
nodes = (
(481,0,l,{
name = hr00;
}),
(618,0,l),
(618,21,l),
(325,355,l),
(590,680,l),
(590,700,l),
(462,700,l),
(190,360,l),
(190,700,l),
(70,700,l),
(70,0,l),
(190,0,l),
(190,341,l)
);
}
);
width = 626;
}
);
unicode = 75;
userData = {
com.typemytype.robofont.guides = (
{
angle = 90;
isGlobal = 0;
magnetic = 5;
x = 216;
y = 0;
}
);
};
},
{
glyphname = L;
kernLeft = E;
lastChange = "2017-03-25 20:12:43 +0000";
layers = (
{
anchors = (
{
name = bottom;
pos = (275,0);
},
{
name = center;
pos = (275,350);
},
{
name = top;
pos = (126,700);
},
{
name = topright;
pos = (530,700);
}
);
layerId = "65DE19D7-C0F2-4D8D-9C1D-34999E633ECA";
shapes = (
{
closed = 1;
nodes = (
(510,0,l),
(510,102,l),
(187,102,l),
(187,700,l),
(65,700,l),
(65,0,l)
);
}
);
width = 550;
},
{
anchors = (
{
name = bottom;
pos = (265,0);
},
{
name = center;
pos = (265,350);
},
{
name = top;
pos = (100,700);
},
{
name = topright;
pos = (510,700);
}
);
layerId = "FCEAB5BF-AFE7-45BC-83DB-D0DE89866BD6";
shapes = (
{
closed = 1;
nodes = (
(500,0,l,{
name = hr00;
}),
(500,50,l),
(130,50,l),
(130,700,l),
(70,700,l),
(70,0,l)
);
}
);
width = 530;
}
);
unicode = 76;
},
{
glyphname = M;
kernLeft = E;
lastChange = "2017-03-25 20:13:56 +0000";
layers = (
{
anchors = (
{
name = bottom;
pos = (400,0);
},
{
name = top;
pos = (400,700);
}
);
guides = (
{
pos = (0,420);
},
{
pos = (0,300);
},
{
pos = (0,654);
},
{
pos = (0,195);
},
{
angle = 90;
pos = (398,0);
}
);
layerId = "65DE19D7-C0F2-4D8D-9C1D-34999E633ECA";
shapes = (
{
closed = 1;
nodes = (
(273,300,ls),
(291,238,o),
(316,195,o),
(378,195,cs),
(408,195,l),
(408,251,l),
(299,640,ls),
(290,673,o),
(275,700,o),
(227,700,cs),
(186,700,l),
(186,600,l)
);
},
{
closed = 1;
nodes = (
(64,0,l),
(186,0,l),
(186,700,l),
(146,700,ls),
(77,700,o),
(64,654,o),
(64,587,cs)
);
},
{
closed = 1;
nodes = (
(734,587,l),
(734,654,o),
(721,700,o),
(652,700,cs),
(612,700,l),
(612,0,l),
(734,0,l)
);
},
{
closed = 1;
nodes = (
(612,600,l),
(612,700,l),
(571,700,ls),
(523,700,o),
(508,673,o),
(499,640,cs),
(390,251,l),
(390,195,l),
(420,195,ls),
(482,195,o),
(507,238,o),
(525,300,cs)
);
}
);
width = 799;
},
{
anchors = (
{
name = bottom;
pos = (389,0);
},
{
name = top;
pos = (389,700);
}
);
guides = (
{
pos = (0,420);
},
{
pos = (0,240);
},
{
angle = 90;
pos = (390,0);
}
);
layerId = "FCEAB5BF-AFE7-45BC-83DB-D0DE89866BD6";
shapes = (
{
closed = 1;
nodes = (
(70,0,l,{
name = hr00;
}),
(136,0,l),
(136,700,l),
(70,700,l)
);
},
{
closed = 1;
nodes = (
(641,0,l),
(707,0,l),
(707,700,l),
(641,700,l)
);
},
{
closed = 1;
nodes = (
(337,200,l),
(408,200,l),
(189,700,l),
(118,700,l)
);
},
{
closed = 1;
nodes = (
(658,700,l),
(587,700,l),
(373,200,l),
(444,200,l)
);
}
);
width = 777;
}
);
unicode = 77;
userData = {
com.typemytype.robofont.guides = (
{
angle = 0;
isGlobal = 0;
magnetic = 5;
x = 0;
y = 420;
},
{
angle = 0;
isGlobal = 0;
magnetic = 5;
x = 0;
y = 300;
},
{
angle = 0;
isGlobal = 0;
magnetic = 5;
x = 0;
y = 654;
},
{
angle = 0;
isGlobal = 0;
magnetic = 5;
x = 0;
y = 195;
},
{
angle = 90;
isGlobal = 0;
magnetic = 5;
x = 398;
y = 0;
}
);
};
},
{
glyphname = N;
kernLeft = E;
lastChange = "2017-03-25 20:13:51 +0000";
layers = (
{
anchors = (
{
name = bottom;
pos = (340,0);
},
{
name = top;
pos = (340,700);
}
);
guides = (
{
pos = (0,350);
}
);
layerId = "65DE19D7-C0F2-4D8D-9C1D-34999E633ECA";
shapes = (
{
closed = 1;
nodes = (
(65,0,l),
(187,0,l),
(187,700,l),
(147,700,ls),
(78,700,o),
(65,654,o),
(65,587,cs)
);
},
{
closed = 1;
nodes = (
(409,46,ls),
(421,19,o),
(436,0,o),
(479,0,cs),
(512,0,l),
(512,90,o),
(444,251,o),
(401,350,cs),
(269,654,ls),
(261,672,o),
(244,700,o),
(209,700,cs),
(169,700,l),
(169,610,o),
(235,450,o),
(278,350,cs)
);
},
{
closed = 1;
nodes = (
(615,700,l),
(493,700,l),
(493,0,l),
(533,0,ls),
(602,0,o),
(615,46,o),
(615,113,c)
);
}
);
width = 680;
},
{
anchors = (
{
name = bottom;
pos = (333,0);
},
{
name = top;
pos = (333,700);
}
);
layerId = "FCEAB5BF-AFE7-45BC-83DB-D0DE89866BD6";
shapes = (
{
closed = 1;
nodes = (
(70,0,l,{
name = hr00;
}),
(130,0,l),
(130,597,l),
(536,0,l),
(596,0,l),
(596,700,l),
(536,700,l),
(536,103,l),
(130,700,l),
(70,700,l)
);
}
);
width = 666;
}
);
unicode = 78;
userData = {
com.typemytype.robofont.guides = (
{
angle = 0;
isGlobal = 0;
magnetic = 5;
x = 0;
y = 350;
}
);
};
},
{
glyphname = O;
kernLeft = O;
lastChange = "2017-03-25 20:13:42 +0000";
layers = (
{
anchors = (
{
name = bottom;
pos = (340,0);
},
{
name = center;
pos = (340,350);
},
{
name = ogonek;
pos = (612,10);
},
{
name = top;
pos = (340,700);
},
{
name = topleft;
pos = (20,700);
},
{
name = topright;
pos = (660,700);
}
);
layerId = "65DE19D7-C0F2-4D8D-9C1D-34999E633ECA";
shapes = (
{
closed = 1;
nodes = (
(625,486,ls,{
name = hr00;
}),
(625,626,o),
(540,710,o),
(373,710,cs),
(279,710,ls),
(139,710,o),
(55,626,o),
(55,514,cs),
(55,214,ls),
(55,74,o),
(140,-10,o),
(307,-10,cs),
(401,-10,ls),
(541,-10,o),
(625,74,o),
(625,186,cs)
);
},
{
closed = 1;
nodes = (
(177,608,l),
(381,608,ls),
(463,608,o),
(503,567,o),
(503,486,cs),
(503,92,l),
(299,92,ls),
(217,92,o),
(177,133,o),
(177,214,cs)
);
}
);
width = 680;
},
{
anchors = (
{
name = bottom;
pos = (340,0);
},
{
name = center;
pos = (340,350);
},
{
name = ogonek;
pos = (612,10);
},
{
name = top;
pos = (340,700);
},
{
name = topleft;
pos = (20,700);
},
{
name = topright;
pos = (660,700);
}
);
guides = (
{
pos = (0,645);
},
{
pos = (0,55);
},
{
pos = (0,224);
},
{
angle = 90;
pos = (135,0);
},
{
angle = 90;
pos = (545,0);
},
{
angle = 90;
pos = (322,0);
}
);
layerId = "FCEAB5BF-AFE7-45BC-83DB-D0DE89866BD6";
shapes = (
{
closed = 1;
nodes = (
(610,476,ls,{
name = hr00;
}),
(610,616,o),
(525,700,o),
(358,700,cs),
(294,700,ls),
(154,700,o),
(70,616,o),
(70,504,cs),
(70,224,ls),
(70,84,o),
(155,0,o),
(322,0,cs),
(386,0,ls),
(526,0,o),
(610,84,o),
(610,196,cs)
);
},
{
closed = 1;
nodes = (
(135,645,l),
(358,645,ls),
(480,645,o),
(545,589,o),
(545,476,cs),
(545,55,l),
(322,55,ls),
(200,55,o),
(135,111,o),
(135,224,cs)
);
}
);
width = 680;
}
);
unicode = 79;
},
{
glyphname = P;
kernLeft = E;
lastChange = "2017-03-25 20:14:51 +0000";
layers = (
{
anchors = (
{
name = bottom;
pos = (313,0);
},
{
name = top;
pos = (313,700);
}
);
layerId = "65DE19D7-C0F2-4D8D-9C1D-34999E633ECA";
shapes = (
{
closed = 1;
nodes = (
(187,320,l),
(240,240,l),
(361,240,ls),
(501,240,o),
(585,324,o),
(585,436,cs),
(585,466,ls),
(585,606,o),
(500,700,o),
(333,700,cs),
(65,700,l),
(65,0,l),
(187,0,l)
);
},
{
closed = 1;
nodes = (
(187,598,l),
(339,598,ls),
(421,598,o),
(463,548,o),
(463,464,cs),
(463,342,l),
(241,342,ls),
(208,342,o),
(187,362,o),
(187,396,cs)
);
}
);
width = 625;
},
{
anchors = (
{
name = bottom;
pos = (310,0);
},
{
name = top;
pos = (310,700);
}
);
layerId = "FCEAB5BF-AFE7-45BC-83DB-D0DE89866BD6";
shapes = (
{
closed = 1;
nodes = (
(130,330,l,{
name = hr00;
}),
(183,250,l),
(390,250,ls),
(490,250,o),
(550,310,o),
(550,390,cs),
(550,540,ls),
(550,640,o),
(489,700,o),
(370,700,cs),
(70,700,l),
(70,0,l),
(130,0,l)
);
},
{
closed = 1;
nodes = (
(130,650,l),
(370,650,l),
(450,650,o),
(490,613,o),
(490,540,c),
(490,300,l),
(250,300,ls),
(170,300,o),
(130,337,o),
(130,410,c)
);
}
);
width = 620;
}
);
unicode = 80;
},
{
glyphname = Thorn;
lastChange = "2017-03-25 20:14:54 +0000";
layers = (
{
anchors = (
{
name = bottom;
pos = (305,0);
},
{
name = top;
pos = (305,700);
}
);
layerId = "65DE19D7-C0F2-4D8D-9C1D-34999E633ECA";
shapes = (
{
closed = 1;
nodes = (
(192,200,l),
(245,120,l),
(351,120,ls),
(491,120,o),
(575,204,o),
(575,316,cs),
(575,346,ls),
(575,486,o),
(490,580,o),
(323,580,cs),
(192,580,l),
(192,700,l),
(70,700,l),
(70,0,l),
(192,0,l)
);
},
{
closed = 1;
nodes = (
(192,478,l),
(329,478,ls),
(411,478,o),
(453,428,o),
(453,344,cs),
(453,222,l),
(246,222,ls),
(213,222,o),
(192,242,o),
(192,276,cs)
);
}
);
width = 610;
},
{
anchors = (
{
name = bottom;
pos = (310,0);
},
{
name = top;
pos = (310,700);
}
);
layerId = "FCEAB5BF-AFE7-45BC-83DB-D0DE89866BD6";
shapes = (
{
closed = 1;
nodes = (
(130,205,l,{
name = hr00;
}),
(183,125,l),
(390,125,ls),
(490,125,o),
(550,185,o),
(550,265,cs),
(550,415,ls),
(550,515,o),
(489,575,o),
(370,575,cs),
(130,575,l),
(130,700,l),
(70,700,l),
(70,0,l),
(130,0,l)
);
},
{
closed = 1;
nodes = (
(130,525,l),
(370,525,ls),
(450,525,o),
(490,488,o),
(490,415,cs),
(490,175,l),
(250,175,ls),
(170,175,o),
(130,212,o),
(130,285,cs)
);
}
);
width = 620;
}
);
unicode = 222;
},
{
glyphname = Q;
kernLeft = O;
lastChange = "2017-03-25 20:15:37 +0000";
layers = (
{
anchors = (
{
name = bottom;
pos = (340,0);
},
{
name = top;
pos = (340,700);
}
);
layerId = "65DE19D7-C0F2-4D8D-9C1D-34999E633ECA";
shapes = (
{
closed = 1;
nodes = (
(625,486,ls,{
name = hr00;
}),
(625,626,o),
(540,710,o),
(373,710,cs),
(279,710,ls),
(139,710,o),
(55,626,o),
(55,514,cs),
(55,214,ls),
(55,74,o),
(140,-10,o),
(307,-10,cs),
(401,-10,ls),
(541,-10,o),
(625,74,o),
(625,186,cs)
);
},
{
closed = 1;
nodes = (
(177,608,l),
(381,608,ls),
(463,608,o),
(503,567,o),
(503,486,cs),
(503,92,l),
(299,92,ls),
(217,92,o),
(177,133,o),
(177,214,cs)
);
},
{
closed = 1;
nodes = (
(310,-20,ls),
(310,-120,o),
(371,-180,o),
(490,-180,cs),
(560,-180,l),
(560,-80,l),
(490,-80,ls),
(451,-80,o),
(430,-60,o),
(430,-20,cs),
(430,180,l),
(310,180,l)
);
}
);
width = 680;
},
{
anchors = (
{
name = bottom;
pos = (340,0);
},
{
name = top;
pos = (340,700);
}
);
guides = (
{
pos = (0,150);
},
{
angle = 90;
pos = (340,0);
},
{
angle = 90;
pos = (280,0);
},
{
angle = 90;
pos = (400,0);
}
);
layerId = "FCEAB5BF-AFE7-45BC-83DB-D0DE89866BD6";
shapes = (
{
closed = 1;
nodes = (
(280,-40,ls,{
name = hr00;
}),
(280,-140,o),
(341,-200,o),
(460,-200,cs),
(480,-200,l),
(480,-100,l),
(460,-100,ls),
(421,-100,o),
(400,-80,o),
(400,-40,cs),
(400,0,l),
(450,0,ls),
(550,0,o),
(610,60,o),
(610,140,cs),
(610,540,ls),
(610,640,o),
(549,700,o),
(430,700,cs),
(230,700,ls),
(130,700,o),
(70,640,o),
(70,560,cs),
(70,160,ls),
(70,60,o),
(131,0,o),
(250,0,cs),
(280,0,l)
);
},
{
closed = 1;
nodes = (
(190,600,l),
(430,600,ls),
(469,600,o),
(490,580,o),
(490,540,cs),
(490,100,l),
(400,100,l),
(400,150,l),
(280,150,l),
(280,100,l),
(250,100,ls),
(211,100,o),
(190,120,o),
(190,160,cs)
);
}
);
width = 680;
}
);
metricLeft = O;
metricRight = O;
unicode = 81;
},
{
glyphname = R;
kernLeft = E;
lastChange = "2017-03-25 20:11:35 +0000";
layers = (
{
anchors = (
{
name = bottom;
pos = (323,0);
},
{
name = top;
pos = (323,700);
}
);
layerId = "65DE19D7-C0F2-4D8D-9C1D-34999E633ECA";
shapes = (
{
closed = 1;
nodes = (
(187,598,l),
(339,598,ls),
(421,598,o),
(463,548,o),
(463,464,cs),
(463,372,l),
(249,372,l),
(249,280,l),
(341,280,l),
(361,270,ls),
(501,270,o),
(585,354,o),
(585,466,cs),
(585,606,o),
(500,700,o),
(333,700,cs),
(65,700,l),
(65,0,l),
(187,0,l)
);
},
{
closed = 1;
nodes = (
(470,0,l),
(606,0,l),
(420,310,l),
(299,285,l)
);
}
);
width = 646;
},
{
layerId = "FCEAB5BF-AFE7-45BC-83DB-D0DE89866BD6";
width = 600;
}
);
unicode = 82;
},
{
glyphname = S;
kernLeft = O;
lastChange = "2017-03-25 20:13:46 +0000";
layers = (
{
anchors = (
{
name = bottom;
pos = (295,0);
},
{
name = top;
pos = (295,700);
}
);
guides = (
{
angle = 90;
pos = (35,0);
},
{
angle = 90;
pos = (605,0);
},
{
angle = 90;
pos = (294,0);
}
);
layerId = "65DE19D7-C0F2-4D8D-9C1D-34999E633ECA";
shapes = (
{
closed = 1;
nodes = (
(36,190,l),
(45,64,o),
(130,-10,o),
(287,-10,cs),
(326,-10,ls),
(466,-10,o),
(550,65,o),
(550,190,cs),
(550,285,o),
(488,345,o),
(366,392,cs),
(260,433,ls),
(157,473,o),
(157,500,o),
(157,562,cs),
(157,608,l),
(306,608,ls),
(380,608,o),
(420,575,o),
(427,510,c),
(549,510,l),
(540,636,o),
(455,710,o),
(298,710,cs),
(259,710,ls),
(119,710,o),
(40,627,o),
(40,526,cs),
(40,423,o),
(91,370,o),
(213,323,cs),
(325,280,ls),
(428,240,o),
(428,209,o),
(428,132,cs),
(428,92,l),
(279,92,ls),
(205,92,o),
(165,125,o),
(158,190,c)
);
}
);
width = 590;
},
{
anchors = (
{
name = bottom;
pos = (295,0);
},
{
name = top;
pos = (295,700);
}
);
layerId = "FCEAB5BF-AFE7-45BC-83DB-D0DE89866BD6";
shapes = (
{
closed = 1;
nodes = (
(120,650,l,{
name = hr00;
}),
(350,650,ls),
(430,650,o),
(470,613,o),
(470,540,cs),
(470,530,l),
(530,530,l),
(530,540,ls),
(530,640,o),
(469,700,o),
(350,700,cs),
(220,700,ls),
(120,700,o),
(60,640,o),
(60,560,cs),
(60,485,ls),
(60,385,o),
(121,325,o),
(240,325,cs),
(350,325,ls),
(430,325,o),
(470,288,o),
(470,215,cs),
(470,50,l),
(240,50,ls),
(160,50,o),
(120,87,o),
(120,160,cs),
(120,170,l),
(60,170,l),
(60,160,ls),
(60,60,o),
(121,0,o),
(240,0,cs),
(370,0,ls),
(470,0,o),
(530,60,o),
(530,140,cs),
(530,215,ls),
(530,315,o),
(469,375,o),
(350,375,cs),
(240,375,ls),
(160,375,o),
(120,412,o),
(120,485,cs)
);
}
);
width = 590;
}
);
unicode = 83;
userData = {
com.typemytype.robofont.guides = (
{
angle = 90;
isGlobal = 0;
magnetic = 5;
x = 35;
y = 0;
},
{
angle = 90;
isGlobal = 0;
magnetic = 5;
x = 605;
y = 0;
},
{
angle = 90;
isGlobal = 0;
magnetic = 5;
x = 294;
y = 0;
}
);
};
},
{
glyphname = Germandbls;
lastChange = "2017-03-25 20:11:35 +0000";
layers = (
{
anchors = (
{
name = bottom;
pos = (390,0);
},
{
name = top;
pos = (390,700);
}
);
layerId = "65DE19D7-C0F2-4D8D-9C1D-34999E633ECA";
shapes = (
{
closed = 1;
nodes = (
(190,600,l,{
name = hr00;
}),
(480,600,l),
(290,320,l),
(290,300,l),
(560,300,ls),
(599,300,o),
(620,280,o),
(620,240,cs),
(620,100,l),
(449,100,ls),
(410,100,o),
(390,120,o),
(390,160,cs),
(390,170,l),
(270,170,l),
(270,160,ls),
(270,60,o),
(331,0,o),
(450,0,cs),
(580,0,ls),
(680,0,o),
(740,60,o),
(740,140,cs),
(740,240,ls),
(740,340,o),
(679,400,o),
(560,400,cs),
(464,400,l),
(602,600,l),
(602,700,l),
(230,700,l),
(130,700,o),
(70,640,o),
(70,560,cs),
(70,0,l),
(190,0,l)
);
}
);
width = 780;
},
{
layerId = "FCEAB5BF-AFE7-45BC-83DB-D0DE89866BD6";
width = 600;
}
);
unicode = 7838;
},
{
glyphname = T;
lastChange = "2017-03-25 20:14:25 +0000";
layers = (
{
anchors = (
{
name = bottom;
pos = (280,0);
},
{
name = center;
pos = (280,350);
},
{
name = top;
pos = (280,700);
}
);
layerId = "65DE19D7-C0F2-4D8D-9C1D-34999E633ECA";
shapes = (
{
closed = 1;
nodes = (
(20,598,l,{
name = hr00;
}),
(219,598,l),
(219,0,l),
(341,0,l),
(341,598,l),
(540,598,l),
(540,700,l),
(20,700,l)
);
}
);
width = 560;
},
{
anchors = (
{
name = bottom;
pos = (280,0);
},
{
name = center;
pos = (280,350);
},
{
name = top;
pos = (280,700);
}
);
layerId = "FCEAB5BF-AFE7-45BC-83DB-D0DE89866BD6";
shapes = (
{
closed = 1;
nodes = (
(30,650,l,{
name = hr00;
}),
(250,650,l),
(250,0,l),
(310,0,l),
(310,650,l),
(530,650,l),
(530,700,l),
(30,700,l)
);
}
);
width = 560;
}
);
unicode = 84;
},
{
glyphname = U;
lastChange = "2017-03-25 20:14:44 +0000";
layers = (
{
anchors = (
{
name = bottom;
pos = (328,0);
},
{
name = ogonek;
pos = (589,10);
},
{
name = top;
pos = (328,700);
},
{
name = topright;
pos = (635,700);
}
);
layerId = "65DE19D7-C0F2-4D8D-9C1D-34999E633ECA";
shapes = (
{
closed = 1;
nodes = (
(473,700,l,{
name = hr00;
}),
(473,92,l),
(304,92,ls),
(222,92,o),
(182,133,o),
(182,214,cs),
(182,700,l),
(60,700,l),
(60,214,ls),
(60,74,o),
(145,-10,o),
(312,-10,cs),
(371,-10,ls),
(511,-10,o),
(595,74,o),
(595,186,cs),
(595,700,l)
);
}
);
width = 655;
},
{
anchors = (
{
name = bottom;
pos = (315,0);
},
{
name = ogonek;
pos = (567,10);
},
{
name = top;
pos = (315,700);
},
{
name = topright;
pos = (610,700);
}
);
layerId = "FCEAB5BF-AFE7-45BC-83DB-D0DE89866BD6";
shapes = (
{
closed = 1;
nodes = (
(500,700,l),
(500,50,l),
(250,50,ls),
(170,50,o),
(130,87,o),
(130,160,cs),
(130,700,l),
(70,700,l,{
name = hr00;
}),
(70,160,ls),
(70,60,o),
(131,0,o),
(250,0,cs),
(400,0,ls),
(500,0,o),
(560,60,o),
(560,140,cs),
(560,700,l)
);
}
);
width = 630;
}
);
unicode = 85;
},
{
glyphname = V;
lastChange = "2017-03-25 20:11:35 +0000";
layers = (
{
anchors = (
{
name = bottom;
pos = (326,0);
},
{
name = top;
pos = (326,700);
}
);
guides = (
{
pos = (0,400);
},
{
pos = (0,100);
},
{
angle = 90;
pos = (326,0);
},
{
angle = 90;
pos = (265,0);
},
{
angle = 90;
pos = (387,0);
}
);
layerId = "65DE19D7-C0F2-4D8D-9C1D-34999E633ECA";
shapes = (
{
closed = 1;
nodes = (
(641,700,l),
(519,700,l),
(315,54,l),
(311,-5,l),
(344,-5,ls),
(411,-5,o),
(432,43,o),
(448,94,c)
);
},
{
closed = 1;
nodes = (
(203,96,l),
(220,43,o),
(243,-5,o),
(307,-5,cs),
(341,-5,l),
(337,50,l),
(133,700,l),
(11,700,l)
);
},
{
closed = 1;
nodes = (
(265,41,l),
(387,41,l),
(387,100,l),
(265,100,l)
);
}
);
width = 652;
},
{
layerId = "FCEAB5BF-AFE7-45BC-83DB-D0DE89866BD6";
width = 600;
}
);
unicode = 86;
userData = {
com.typemytype.robofont.guides = (
{
angle = 0;
isGlobal = 0;
magnetic = 5;
x = 0;
y = 400;
},
{
angle = 0;
isGlobal = 0;
magnetic = 5;
x = 0;
y = 100;
},
{
angle = 90;
isGlobal = 0;
magnetic = 5;
x = 326;
y = 0;
},
{
angle = 90;
isGlobal = 0;
magnetic = 5;
x = 265;
y = 0;
},
{
angle = 90;
isGlobal = 0;
magnetic = 5;
x = 387;
y = 0;
}
);
};
},
{
glyphname = W;
lastChange = "2017-03-25 20:11:35 +0000";
layers = (
{
anchors = (
{
name = bottom;
pos = (363,0);
},
{
name = top;
pos = (363,700);
}
);
guides = (
{
pos = (0,96);
},
{
angle = 90;
pos = (297,0);
}
);
layerId = "65DE19D7-C0F2-4D8D-9C1D-34999E633ECA";
shapes = (
{
closed = 1;
nodes = (
(152,-2,l),
(193,-2,l),
(193,88,l),
(152,88,l)
);
},
{
closed = 1;
nodes = (
(63,94,ls),
(67,52,o),
(85,-2,o),
(164,-2,cs),
(191,-2,l),
(130,700,l),
(10,700,l)
);
},
{
closed = 1;
nodes = (
(370,693,l),
(354,693,ls),
(282,693,o),
(261,648,o),
(254,590,cs),
(178,-2,l),
(219,-2,ls),
(286,-2,o),
(300,38,o),
(305,81,cs)
);
},
{
closed = 1;
nodes = (
(525,-2,l),
(574,-2,l),
(574,88,l),
(525,88,l)
);
},
{
closed = 1;
nodes = (
(358,598,l),
(387,598,l),
(387,693,l),
(358,693,l)
);
},
{
closed = 1;
nodes = (
(420,81,l),
(425,38,o),
(439,-2,o),
(506,-2,cs),
(547,-2,l),
(471,590,ls),
(464,648,o),
(443,693,o),
(371,693,cs),
(355,693,l)
);
},
{
closed = 1;
nodes = (
(715,700,l),
(595,700,l),
(534,-2,l),
(561,-2,ls),
(640,-2,o),
(658,52,o),
(662,94,cs)
);
}
);
width = 725;
},
{
layerId = "FCEAB5BF-AFE7-45BC-83DB-D0DE89866BD6";
width = 600;
}
);
unicode = 87;
userData = {
com.typemytype.robofont.guides = (
{
angle = 0;
isGlobal = 0;
magnetic = 5;
x = 0;
y = 96;
},
{
angle = 90;
isGlobal = 0;
magnetic = 5;
x = 297;
y = 0;
}
);
};
},
{
glyphname = X;
lastChange = "2017-03-25 20:11:35 +0000";
layers = (
{
anchors = (
{
name = bottom;
pos = (293,0);
},
{
name = top;
pos = (293,700);
}
);
layerId = "65DE19D7-C0F2-4D8D-9C1D-34999E633ECA";
shapes = (
{
closed = 1;
nodes = (
(16,700,l,{
name = hr00;
}),
(222,362,l),
(0,0,l),
(140,0,l),
(292,248,l),
(445,0,l),
(586,0,l),
(370,352,l),
(583,700,l),
(443,700,l),
(300,466,l),
(156,700,l)
);
}
);
width = 586;
},
{
layerId = "FCEAB5BF-AFE7-45BC-83DB-D0DE89866BD6";
width = 600;
}
);
unicode = 88;
},
{
glyphname = Y;
lastChange = "2017-03-25 20:11:35 +0000";
layers = (
{
anchors = (
{
name = bottom;
pos = (270,0);
},
{
name = top;
pos = (270,700);
},
{
name = topleft;
pos = (20,700);
}
);
guides = (
{
angle = 90;
pos = (270,0);
}
);
layerId = "65DE19D7-C0F2-4D8D-9C1D-34999E633ECA";
shapes = (
{
closed = 1;
nodes = (
(209,0,l,{
name = hr00;
}),
(331,0,l),
(331,300,l),
(209,300,l)
);
},
{
closed = 1;
nodes = (
(180,310,l),
(360,310,l),
(360,390,l),
(180,390,l)
);
},
{
closed = 1;
nodes = (
(160,300,l),
(285,300,l),
(105,700,l),
(-20,700,l)
);
},
{
closed = 1;
nodes = (
(560,700,l),
(435,700,l),
(255,300,l),
(380,300,l)
);
}
);
width = 540;
},
{
layerId = "FCEAB5BF-AFE7-45BC-83DB-D0DE89866BD6";
width = 600;
}
);
unicode = 89;
userData = {
com.typemytype.robofont.guides = (
{
angle = 90;
isGlobal = 0;
magnetic = 5;
x = 270;
y = 0;
}
);
};
},
{
glyphname = Z;
lastChange = "2017-03-25 20:11:35 +0000";
layers = (
{
anchors = (
{
name = bottom;
pos = (280,0);
},
{
name = top;
pos = (280,700);
}
);
layerId = "65DE19D7-C0F2-4D8D-9C1D-34999E633ECA";
shapes = (
{
closed = 1;
nodes = (
(40,600,l,{
name = hr00;
}),
(369,600,l),
(40,80,l),
(40,0,l),
(520,0,l),
(520,100,l),
(189,100,l),
(518,620,l),
(518,700,l),
(40,700,l)
);
}
);
width = 560;
},
{
layerId = "FCEAB5BF-AFE7-45BC-83DB-D0DE89866BD6";
width = 600;
}
);
unicode = 90;
},
{
glyphname = A.alt001;
lastChange = "2017-03-25 20:11:35 +0000";
layers = (
{
anchors = (
{
name = bottom;
pos = (326,0);
},
{
name = ogonek;
pos = (587,10);
},
{
name = top;
pos = (326,700);
}
);
layerId = "65DE19D7-C0F2-4D8D-9C1D-34999E633ECA";
shapes = (
{
closed = 1;
nodes = (
(13,0,l),
(135,0,l),
(337,641,l),
(300,650,l),
(219,650,l)
);
},
{
closed = 1;
nodes = (
(131,700,l),
(77,620,l),
(77,598,l),
(237,598,ls),
(315,598,o),
(341,564,o),
(352,527,cs),
(517,0,l),
(639,0,l),
(462,557,ls),
(447,604,o),
(410,700,o),
(222,700,cs)
);
},
{
closed = 1;
nodes = (
(180,174,l),
(499,174,l),
(499,276,l),
(180,276,l)
);
}
);
width = 652;
},
{
layerId = "FCEAB5BF-AFE7-45BC-83DB-D0DE89866BD6";
width = 600;
}
);
},
{
glyphname = A.alt002;
lastChange = "2017-03-25 20:11:35 +0000";
layers = (
{
anchors = (
{
name = bottom;
pos = (326,0);
},
{
name = ogonek;
pos = (587,10);
},
{
name = top;
pos = (326,700);
}
);
guides = (
{
angle = 90;
pos = (326,0);
}
);
layerId = "65DE19D7-C0F2-4D8D-9C1D-34999E633ECA";
shapes = (
{
closed = 1;
nodes = (
(11,0,l),
(133,0,l),
(337,646,l),
(326,705,l),
(285,705,ls),
(248,705,o),
(226,675,o),
(204,606,cs)
);
},
{
closed = 1;
nodes = (
(449,604,ls),
(432,657,o),
(409,705,o),
(345,705,cs),
(326,705,l),
(315,650,l),
(519,0,l),
(641,0,l)
);
},
{
closed = 1;
nodes = (
(180,179,l),
(499,179,l),
(499,281,l),
(180,281,l)
);
},
{
closed = 1;
nodes = (
(254,600,l),
(376,600,l),
(376,659,l),
(254,659,l)
);
},
{
closed = 1;
nodes = (
(132,280,l),
(60,280,o),
(0,337,o),
(0,431,cs),
(0,516,o),
(85,626,o),
(285,600,c),
(285,705,l),
(-16,705,o),
(-120,555,o),
(-120,417,cs),
(-120,262,o),
(13,200,o),
(108,179,c)
);
}
);
width = 652;
},
{
layerId = "FCEAB5BF-AFE7-45BC-83DB-D0DE89866BD6";
width = 600;
}
);
userData = {
com.typemytype.robofont.guides = (
{
angle = 90;
isGlobal = 0;
magnetic = 5;
x = 326;
y = 0;
}
);
};
},
{
glyphname = I.ss01;
lastChange = "2017-03-25 20:14:30 +0000";
layers = (
{
anchors = (
{
name = bottom;
pos = (180,0);
},
{
name = ogonek;
pos = (324,10);
},
{
name = top;
pos = (180,700);
},
{
name = topleft;
pos = (20,700);
}
);
layerId = "65DE19D7-C0F2-4D8D-9C1D-34999E633ECA";
shapes = (
{
closed = 1;
nodes = (
(60,620,l,{
name = hr00;
}),
(120,620,l),
(120,80,l),
(60,80,l),
(60,0,l),
(300,0,l),
(300,80,l),
(240,80,l),
(240,620,l),
(300,620,l),
(300,700,l),
(60,700,l)
);
}
);
width = 360;
},
{
anchors = (
{
name = bottom;
pos = (180,0);
},
{
name = ogonek;
pos = (324,10);
},
{
name = top;
pos = (180,700);
},
{
name = topleft;
pos = (20,700);
}
);
layerId = "FCEAB5BF-AFE7-45BC-83DB-D0DE89866BD6";
shapes = (
{
closed = 1;
nodes = (
(60,660,l,{
name = hr00;
}),
(150,660,l),
(150,40,l),
(60,40,l),
(60,0,l),
(300,0,l),
(300,40,l),
(210,40,l),
(210,660,l),
(300,660,l),
(300,700,l),
(60,700,l)
);
}
);
width = 360;
}
);
},
{
glyphname = C.ss04;
kernLeft = O;
lastChange = "2017-03-25 20:11:35 +0000";
layers = (
{
anchors = (
{
name = bottom;
pos = (275,0);
},
{
name = top;
pos = (275,700);
}
);
layerId = "65DE19D7-C0F2-4D8D-9C1D-34999E633ECA";
shapes = (
{
closed = 1;
nodes = (
(505,97,l),
(299,97,ls),
(217,97,o),
(177,138,o),
(177,219,cs),
(177,603,l),
(505,603,l),
(505,705,l),
(279,705,ls),
(139,705,o),
(55,621,o),
(55,509,cs),
(55,219,ls),
(55,79,o),
(140,-5,o),
(307,-5,cs),
(505,-5,l)
);
}
);
width = 555;
},
{
layerId = "FCEAB5BF-AFE7-45BC-83DB-D0DE89866BD6";
width = 600;
}
);
metricLeft = O;
},
{
glyphname = G.ss04;
kernLeft = O;
lastChange = "2017-03-25 20:11:35 +0000";
layers = (
{
anchors = (
{
name = bottom;
pos = (330,0);
},
{
name = top;
pos = (330,700);
}
);
layerId = "65DE19D7-C0F2-4D8D-9C1D-34999E633ECA";
shapes = (
{
closed = 1;
nodes = (
(483,411,l),
(483,92,l),
(299,92,ls),
(217,92,o),
(177,133,o),
(177,214,cs),
(177,603,l),
(575,603,l),
(575,705,l),
(279,705,ls),
(139,705,o),
(55,616,o),
(55,504,cs),
(55,214,ls),
(55,74,o),
(140,-10,o),
(307,-10,cs),
(381,-10,ls),
(521,-10,o),
(605,74,o),
(605,186,cs),
(605,411,l)
);
},
{
closed = 1;
nodes = (
(330,308,l),
(535,308,l),
(535,410,l),
(330,410,l)
);
}
);
width = 665;
},
{
layerId = "FCEAB5BF-AFE7-45BC-83DB-D0DE89866BD6";
width = 600;
}
);
metricLeft = O;
},
{
glyphname = J.ss04;
lastChange = "2017-03-25 20:11:35 +0000";
layers = (
{
anchors = (
{
name = bottom;
pos = (253,0);
},
{
name = top;
pos = (253,700);
}
);
layerId = "65DE19D7-C0F2-4D8D-9C1D-34999E633ECA";
shapes = (
{
closed = 1;
nodes = (
(20,-5,l),
(216,-5,ls),
(356,-5,o),
(440,79,o),
(440,191,cs),
(440,701,l),
(318,701,l),
(318,97,l),
(20,97,l)
);
}
);
width = 505;
},
{
layerId = "FCEAB5BF-AFE7-45BC-83DB-D0DE89866BD6";
width = 600;
}
);
},
{
glyphname = S.ss04;
lastChange = "2017-03-25 20:11:35 +0000";
layers = (
{
anchors = (
{
name = bottom;
pos = (288,0);
},
{
name = top;
pos = (288,700);
}
);
guides = (
{
angle = 90;
pos = (50,0);
},
{
angle = 90;
pos = (620,0);
}
);
layerId = "65DE19D7-C0F2-4D8D-9C1D-34999E633ECA";
shapes = (
{
closed = 1;
nodes = (
(59,-5,l),
(311,-5,ls),
(451,-5,o),
(535,81,o),
(535,186,cs),
(535,316,o),
(450,401,o),
(283,401,cs),
(202,401,o),
(162,452,o),
(162,533,cs),
(162,603,l),
(506,603,l),
(506,705,l),
(264,705,ls),
(124,705,o),
(40,620,o),
(40,513,cs),
(40,386,o),
(125,299,o),
(291,299,cs),
(373,299,o),
(413,248,o),
(413,167,cs),
(413,97,l),
(59,97,l)
);
}
);
width = 575;
},
{
layerId = "FCEAB5BF-AFE7-45BC-83DB-D0DE89866BD6";
width = 600;
}
);
userData = {
com.typemytype.robofont.guides = (
{
angle = 90;
isGlobal = 0;
magnetic = 5;
x = 50;
y = 0;
},
{
angle = 90;
isGlobal = 0;
magnetic = 5;
x = 620;
y = 0;
}
);
};
},
{
color = 11;
glyphname = C_J;
lastChange = "2017-03-25 20:11:42 +0000";
layers = (
{
anchors = (
{
name = bottom_1;
pos = (247,0);
},
{
name = bottom_2;
pos = (760,0);
},
{
name = caret_1;
pos = (504,0);
},
{
name = top_1;
pos = (247,500);
},
{
name = top_2;
pos = (760,500);
}
);
guides = (
{
pos = (-10,195);
}
);
layerId = "65DE19D7-C0F2-4D8D-9C1D-34999E633ECA";
shapes = (
{
closed = 1;
nodes = (
(594,510,l),
(585,636,o),
(500,710,o),
(343,710,cs),
(279,710,ls),
(139,710,o),
(55,626,o),
(55,514,cs),
(55,214,ls),
(55,74,o),
(140,-10,o),
(307,-10,cs),
(371,-10,ls),
(511,-10,o),
(595,74,o),
(595,186,cs),
(595,190,l),
(473,190,l),
(530,92,l),
(299,92,ls),
(217,92,o),
(177,133,o),
(177,214,cs),
(177,608,l),
(351,608,ls),
(425,608,o),
(465,575,o),
(472,510,c)
);
},
{
closed = 1;
nodes = (
(473,190,l),
(483,66,o),
(566,-10,o),
(724,-10,cs),
(728,-10,ls),
(868,-10,o),
(952,74,o),
(952,186,cs),
(952,701,l),
(830,701,l),
(830,92,l),
(716,92,ls),
(647,92,o),
(604,120,o),
(596,190,c)
);
}
);
width = 1012;
},
{
layerId = "FCEAB5BF-AFE7-45BC-83DB-D0DE89866BD6";
width = 600;
}
);
metricLeft = O;
metricRight = J;
userData = {
com.typemytype.robofont.guides = (
{
angle = 0;
isGlobal = 0;
magnetic = 5;
x = 0;
y = 195;
}
);
com.typemytype.robofont.mark = (
0.6,
0.704,
1,
1
);
};
},
{
glyphname = a;
kernLeft = a;
kernRight = a;
lastChange = "2017-03-25 20:15:05 +0000";
layers = (
{
anchors = (
{
name = bottom;
pos = (273,0);
},
{
name = ogonek;
pos = (490,10);
},
{
name = top;
pos = (273,500);
}
);
guides = (
{
pos = (0,651);
},
{
pos = (0,651);
}
);
layerId = "65DE19D7-C0F2-4D8D-9C1D-34999E633ECA";
shapes = (
{
closed = 1;
nodes = (
(360,200,l,{
name = hr00;
}),
(360,100,l),
(220,100,ls),
(181,100,o),
(160,120,o),
(160,160,cs),
(160,200,l)
);
},
{
closed = 1;
nodes = (
(154,500,l),
(100,420,l),
(100,400,l),
(300,400,ls),
(340,400,o),
(360,380,o),
(360,340,cs),
(360,300,l),
(200,300,ls),
(100,300,o),
(40,240,o),
(40,160,cs),
(40,60,o),
(101,0,o),
(220,0,cs),
(307,0,l),
(360,80,l),
(360,0,l),
(480,0,l),
(480,340,ls),
(480,440,o),
(420,500,o),
(300,500,cs)
);
}
);
width = 545;
},
{
anchors = (
{
name = bottom;
pos = (275,0);
},
{
name = ogonek;
pos = (495,10);
},
{
name = top;
pos = (275,500);
}
);
guides = (
{
pos = (0,651);
},
{
pos = (0,651);
},
{
angle = 56.43;
pos = (405,0);
}
);
layerId = "FCEAB5BF-AFE7-45BC-83DB-D0DE89866BD6";
shapes = (
{
closed = 1;
nodes = (
(425,225,l,{
name = hr00;
}),
(425,50,l),
(225,50,ls),
(145,50,o),
(105,87,o),
(105,160,cs),
(105,225,l)
);
},
{
closed = 1;
nodes = (
(159,500,l),
(139,470,l),
(139,450,l),
(305,450,ls),
(385,450,o),
(425,413,o),
(425,340,cs),
(425,275,l),
(205,275,ls),
(92,275,o),
(45,230,o),
(45,160,cs),
(45,60,o),
(106,0,o),
(225,0,cs),
(405,0,l),
(425,30,l),
(425,0,l),
(485,0,l),
(485,340,ls),
(485,440,o),
(425,500,o),
(305,500,cs)
);
}
);
width = 550;
}
);
metricRight = n;
unicode = 97;
userData = {
com.typemytype.robofont.guides = (
{
angle = 0;
isGlobal = 0;
magnetic = 5;
x = 0;
y = 651;
},
{
angle = 0;
isGlobal = 0;
magnetic = 5;
x = 0;
y = 651;
}
);
};
},
{
glyphname = ae;
kernLeft = a;
lastChange = "2022-06-04 12:37:08 +0000";
layers = (
{
anchors = (
{
name = bottom;
pos = (403,0);
},
{
name = top;
pos = (403,500);
}
);
layerId = "65DE19D7-C0F2-4D8D-9C1D-34999E633ECA";
shapes = (
{
closed = 1;
nodes = (
(340,300,l,{
name = hr00;
}),
(200,300,ls),
(100,300,o),
(40,240,o),
(40,160,cs),
(40,60,o),
(101,0,o),
(220,0,cs),
(307,0,l),
(358,77,l),
(385,28,o),
(439,0,o),
(520,0,cs),
(657,0,l),
(710,80,l),
(710,100,l),
(520,100,ls),
(483,100,o),
(460,118,o),
(460,154,cs),
(460,200,l),
(750,200,l),
(750,340,ls),
(750,440,o),
(689,500,o),
(570,500,cs),
(500,500,ls),
(458,500,o),
(423,489,o),
(397,471,c),
(368,490,o),
(329,500,o),
(280,500,cs),
(154,500,l),
(100,420,l),
(100,400,l),
(280,400,ls),
(320,400,o),
(340,380,o),
(340,340,cs)
);
},
{
closed = 1;
nodes = (
(340,200,l),
(340,160,ls),
(340,138,o),
(342,118,o),
(348,100,c),
(220,100,ls),
(181,100,o),
(160,120,o),
(160,160,cs),
(160,200,l)
);
},
{
closed = 1;
nodes = (
(460,400,l),
(570,400,ls),
(609,400,o),
(630,380,o),
(630,340,cs),
(630,300,l),
(460,300,l)
);
}
);
width = 810;
},
{
anchors = (
{
name = bottom;
pos = (400,0);
},
{
name = top;
pos = (400,500);
}
);
guides = (
{
pos = (-15,30);
}
);
layerId = "FCEAB5BF-AFE7-45BC-83DB-D0DE89866BD6";
shapes = (
{
closed = 1;
nodes = (
(375,275,l,{
name = hr00;
}),
(205,275,ls),
(92,275,o),
(45,230,o),
(45,160,cs),
(45,60,o),
(106,0,o),
(225,0,cs),
(417,0,l),
(437,29,l),
(466,10,o),
(505,0,o),
(555,0,cs),
(662,0,l),
(682,30,l),
(682,50,l),
(555,50,ls),
(475,50,o),
(435,87,o),
(435,160,cs),
(435,225,l),
(755,225,l),
(755,340,ls),
(755,440,o),
(694,500,o),
(575,500,cs),
(535,500,ls),
(475,500,o),
(429,479,o),
(402,444,c),
(373,480,o),
(324,500,o),
(255,500,cs),
(159,500,l),
(139,470,l),
(139,450,l),
(255,450,ls),
(335,450,o),
(375,413,o),
(375,340,cs)
);
},
{
closed = 1;
nodes = (
(375,225,l),
(375,160,ls),
(375,114,o),
(388,77,o),
(413,50,c),
(225,50,ls),
(145,50,o),
(105,87,o),
(105,160,cs),
(105,225,l)
);
},
{
closed = 1;
nodes = (
(435,450,l),
(575,450,ls),
(655,450,o),
(695,413,o),
(695,340,cs),
(695,275,l),
(435,275,l)
);
}
);
width = 815;
}
);
metricLeft = a;
metricRight = e;
unicode = 230;
},
{
glyphname = b;
kernLeft = b;
kernRight = b;
lastChange = "2017-03-25 20:15:14 +0000";
layers = (
{
anchors = (
{
name = bottom;
pos = (283,0);
},
{
name = top;
pos = (283,500);
}
);
layerId = "65DE19D7-C0F2-4D8D-9C1D-34999E633ECA";
shapes = (
{
closed = 1;
nodes = (
(325,500,c,{
name = hr00;
}),
(238,500,l),
(185,420,l),
(185,700,l),
(65,700,l),
(65,160,ls),
(65,60,o),
(125,0,o),
(245,0,cs),
(345,0,ls),
(445,0,o),
(505,60,o),
(505,140,cs),
(505,340,ls),
(505,440,o),
(444,500,o)
);
},
{
closed = 1;
nodes = (
(325,400,l),
(364,400,o),
(385,380,o),
(385,340,cs),
(385,100,l),
(245,100,ls),
(205,100,o),
(185,120,o),
(185,160,cs),
(185,400,l)
);
}
);
width = 565;
},
{
anchors = (
{
name = bottom;
pos = (283,0);
},
{
name = top;
pos = (283,500);
}
);
guides = (
{
angle = 56.43;
pos = (-187,0);
}
);
layerId = "FCEAB5BF-AFE7-45BC-83DB-D0DE89866BD6";
shapes = (
{
closed = 1;
nodes = (
(325,500,c,{
name = hr00;
}),
(145,500,l),
(125,470,l),
(125,700,l),
(65,700,l),
(65,160,ls),
(65,60,o),
(125,0,o),
(245,0,cs),
(345,0,ls),
(445,0,o),
(505,60,o),
(505,140,cs),
(505,340,ls),
(505,440,o),
(444,500,o)
);
},
{
closed = 1;
nodes = (
(325,450,ls),
(405,450,o),
(445,413,o),
(445,340,cs),
(445,50,l),
(245,50,ls),
(165,50,o),
(125,87,o),
(125,160,cs),
(125,450,l)
);
}
);
width = 565;
}
);
metricLeft = l;
metricRight = o;
unicode = 98;
},
{
glyphname = c;
kernLeft = c;
kernRight = b;
lastChange = "2017-03-25 20:15:43 +0000";
layers = (
{
anchors = (
{
name = bottom;
pos = (270,0);
},
{
name = top;
pos = (270,500);
}
);
layerId = "65DE19D7-C0F2-4D8D-9C1D-34999E633ECA";
shapes = (
{
closed = 1;
nodes = (
(180,400,l,{
name = hr00;
}),
(300,400,ls),
(339,400,o),
(360,380,o),
(360,340,c),
(360,339,l),
(480,339,l),
(480,340,l),
(480,440,o),
(419,500,o),
(300,500,cs),
(220,500,ls),
(120,500,o),
(60,440,o),
(60,360,cs),
(60,160,ls),
(60,60,o),
(121,0,o),
(240,0,cs),
(320,0,ls),
(420,0,o),
(480,60,o),
(480,140,cs),
(480,160,l),
(360,160,l),
(360,100,l),
(240,100,ls),
(201,100,o),
(180,120,o),
(180,160,cs)
);
}
);
width = 540;
},
{
anchors = (
{
name = bottom;
pos = (270,0);
},
{
name = top;
pos = (270,500);
}
);
layerId = "FCEAB5BF-AFE7-45BC-83DB-D0DE89866BD6";
shapes = (
{
closed = 1;
nodes = (
(120,450,l,{
name = hr00;
}),
(300,450,ls),
(380,450,o),
(420,413,o),
(420,340,c),
(420,339,l),
(480,339,l),
(480,340,l),
(480,440,o),
(419,500,o),
(300,500,cs),
(220,500,ls),
(120,500,o),
(60,440,o),
(60,360,cs),
(60,160,ls),
(60,60,o),
(121,0,o),
(240,0,cs),
(320,0,ls),
(420,0,o),
(480,60,o),
(480,140,cs),
(480,160,l),
(420,160,l),
(420,50,l),
(240,50,ls),
(160,50,o),
(120,87,o),
(120,160,cs)
);
}
);
width = 540;
}
);
metricLeft = o;
unicode = 99;
},
{
glyphname = d;
kernRight = d;
lastChange = "2017-03-25 20:15:45 +0000";
layers = (
{
anchors = (
{
name = bottom;
pos = (285,0);
},
{
name = center;
pos = (285,250);
},
{
name = top;
pos = (285,500);
},
{
name = topright;
pos = (550,500);
}
);
layerId = "65DE19D7-C0F2-4D8D-9C1D-34999E633ECA";
shapes = (
{
closed = 1;
nodes = (
(327,500,l,{
name = hr00;
}),
(220,500,ls),
(120,500,o),
(60,440,o),
(60,360,cs),
(60,160,ls),
(60,60,o),
(121,0,o),
(240,0,cs),
(327,0,l),
(380,80,l),
(380,0,l),
(500,0,l),
(500,700,l),
(380,700,l),
(380,420,l)
);
},
{
closed = 1;
nodes = (
(180,400,l),
(325,400,ls),
(359,400,o),
(380,380,o),
(380,346,cs),
(380,100,l),
(240,100,ls),
(201,100,o),
(180,120,o),
(180,160,cs)
);
}
);
width = 570;
},
{
anchors = (
{
name = bottom;
pos = (285,0);
},
{
name = center;
pos = (285,250);
},
{
name = top;
pos = (285,500);
},
{
name = topright;
pos = (550,500);
}
);
guides = (
{
angle = 56.43;
pos = (361,0);
}
);
layerId = "FCEAB5BF-AFE7-45BC-83DB-D0DE89866BD6";
shapes = (
{
closed = 1;
nodes = (
(387,500,l,{
name = hr00;
}),
(220,500,ls),
(120,500,o),
(60,440,o),
(60,360,cs),
(60,160,ls),
(60,60,o),
(121,0,o),
(240,0,cs),
(420,0,l),
(440,30,l),
(440,0,l),
(500,0,l),
(500,700,l),
(440,700,l),
(440,420,l)
);
},
{
closed = 1;
nodes = (
(120,450,l),
(320,450,ls),
(400,450,o),
(440,413,o),
(440,340,cs),
(440,50,l),
(240,50,ls),
(160,50,o),
(120,87,o),
(120,160,cs)
);
}
);
width = 570;
}
);
metricLeft = o;
metricRight = "=|n";
unicode = 100;
},
{
glyphname = e;
kernLeft = c;
lastChange = "2017-03-25 20:15:49 +0000";
layers = (
{
anchors = (
{
name = bottom;
pos = (280,0);
},
{
name = ogonek;
pos = (504,10);
},
{
name = top;
pos = (280,500);
}
);
layerId = "65DE19D7-C0F2-4D8D-9C1D-34999E633ECA";
shapes = (
{
closed = 1;
nodes = (
(460,80,l,{
name = hr00;
}),
(460,100,l),
(240,100,ls),
(201,100,o),
(180,120,o),
(180,160,cs),
(180,200,l),
(500,200,l),
(500,340,ls),
(500,440,o),
(439,500,o),
(320,500,cs),
(220,500,ls),
(120,500,o),
(60,440,o),
(60,360,cs),
(60,160,ls),
(60,60,o),
(121,0,o),
(240,0,cs),
(407,0,l)
);
},
{
closed = 1;
nodes = (
(180,400,l),
(320,400,ls),
(359,400,o),
(380,380,o),
(380,340,cs),
(380,300,l),
(180,300,l)
);
}
);
width = 560;
},
{
anchors = (
{
name = bottom;
pos = (280,0);
},
{
name = ogonek;
pos = (504,10);
},
{
name = top;
pos = (280,500);
}
);
guides = (
{
angle = 56.43;
pos = (440,0);
}
);
layerId = "FCEAB5BF-AFE7-45BC-83DB-D0DE89866BD6";
shapes = (
{
closed = 1;
nodes = (
(460,30,l,{
name = hr00;
}),
(460,50,l),
(240,50,ls),
(160,50,o),
(120,87,o),
(120,160,cs),
(120,225,l),
(500,225,l),
(500,340,ls),
(500,440,o),
(439,500,o),
(320,500,cs),
(220,500,ls),
(120,500,o),
(60,440,o),
(60,360,cs),
(60,160,ls),
(60,60,o),
(121,0,o),
(240,0,cs),
(440,0,l)
);
},
{
closed = 1;
nodes = (
(120,450,l),
(320,450,ls),
(400,450,o),
(440,413,o),
(440,340,cs),
(440,275,l),
(120,275,l)
);
}
);
width = 560;
}
);
metricLeft = o;
unicode = 101;
},
{
glyphname = f;
kernLeft = f;
lastChange = "2017-03-25 20:15:50 +0000";
layers = (
{
anchors = (
{
name = bottom;
pos = (175,0);
},
{
name = top;
pos = (175,500);
}
);
layerId = "65DE19D7-C0F2-4D8D-9C1D-34999E633ECA";
shapes = (
{
closed = 1;
nodes = (
(100,500,l,{
name = hr00;
}),
(20,500,l),
(20,400,l),
(100,400,l),
(100,0,l),
(220,0,l),
(220,400,l),
(320,400,l),
(320,500,l),
(220,500,l),
(220,600,l),
(320,600,l),
(320,700,l),
(260,700,ls),
(160,700,o),
(100,640,o),
(100,560,cs)
);
}
);
width = 350;
},
{
anchors = (
{
name = bottom;
pos = (175,0);
},
{
name = top;
pos = (175,500);
}
);
layerId = "FCEAB5BF-AFE7-45BC-83DB-D0DE89866BD6";
shapes = (
{
closed = 1;
nodes = (
(130,500,l,{
name = hr00;
}),
(20,500,l),
(20,450,l),
(130,450,l),
(130,0,l),
(190,0,l),
(190,450,l),
(320,450,l),
(320,500,l),
(190,500,l),
(190,650,l),
(320,650,l),
(320,700,l),
(290,700,ls),
(190,700,o),
(130,640,o),
(130,560,cs)
);
}
);
width = 350;
}
);
unicode = 102;
},
{
glyphname = g;
kernLeft = c;
lastChange = "2017-03-25 20:15:52 +0000";
layers = (
{
anchors = (
{
name = bottom;
pos = (285,0);
},
{
name = top;
pos = (285,500);
}
);
layerId = "65DE19D7-C0F2-4D8D-9C1D-34999E633ECA";
shapes = (
{
closed = 1;
nodes = (
(380,80,l,{
name = hr00;
}),
(380,-100,l),
(120,-100,l),
(120,-120,l),
(173,-200,l),
(340,-200,ls),
(440,-200,o),
(500,-140,o),
(500,-60,cs),
(500,500,l),
(380,500,l),
(380,420,l),
(326,500,l),
(220,500,ls),
(120,500,o),
(60,440,o),
(60,360,cs),
(60,160,ls),
(60,60,o),
(120,0,o),
(240,0,cs),
(326,0,l)
);
},
{
closed = 1;
nodes = (
(380,100,l),
(240,100,ls),
(200,100,o),
(180,120,o),
(180,160,cs),
(180,400,l),
(325,400,ls),
(361,400,o),
(380,378,o),
(380,340,cs)
);
}
);
width = 570;
},
{
anchors = (
{
name = bottom;
pos = (285,0);
},
{
name = top;
pos = (285,500);
}
);
guides = (
{
angle = 56.43;
pos = (420,0);
}
);
layerId = "FCEAB5BF-AFE7-45BC-83DB-D0DE89866BD6";
shapes = (
{
closed = 1;
nodes = (
(440,30,l,{
name = hr00;
}),
(440,-150,l),
(120,-150,l),
(120,-170,l),
(140,-200,l),
(340,-200,ls),
(440,-200,o),
(500,-140,o),
(500,-60,cs),
(500,500,l),
(440,500,l),
(440,420,l),
(386,500,l),
(220,500,ls),
(120,500,o),
(60,440,o),
(60,360,cs),
(60,160,ls),
(60,60,o),
(120,0,o),
(240,0,cs),
(420,0,l)
);
},
{
closed = 1;
nodes = (
(440,50,l),
(240,50,ls),
(160,50,o),
(120,87,o),
(120,160,cs),
(120,450,l),
(320,450,ls),
(400,450,o),
(440,413,o),
(440,340,cs)
);
}
);
width = 570;
}
);
metricLeft = o;
metricRight = "=|n";
unicode = 103;
},
{
glyphname = h;
kernRight = a;
lastChange = "2017-03-25 20:15:54 +0000";
layers = (
{
anchors = (
{
name = bottom;
pos = (293,0);
},
{
name = center;
pos = (293,250);
},
{
name = top;
pos = (293,500);
}
);
layerId = "65DE19D7-C0F2-4D8D-9C1D-34999E633ECA";
shapes = (
{
closed = 1;
nodes = (
(190,400,l,{
name = hr00;
}),
(330,400,ls),
(369,400,o),
(390,380,o),
(390,340,cs),
(390,0,l),
(510,0,l),
(510,340,ls),
(510,440,o),
(449,500,o),
(330,500,cs),
(243,500,l),
(190,420,l),
(190,700,l),
(70,700,l),
(70,0,l),
(190,0,l)
);
}
);
width = 575;
},
{
anchors = (
{
name = bottom;
pos = (283,0);
},
{
name = center;
pos = (283,250);
},
{
name = top;
pos = (283,500);
}
);
guides = (
{
angle = 56.43;
pos = (-192,0);
}
);
layerId = "FCEAB5BF-AFE7-45BC-83DB-D0DE89866BD6";
shapes = (
{
closed = 1;
nodes = (
(120,450,l,{
name = hr00;
}),
(320,450,ls),
(400,450,o),
(440,413,o),
(440,340,cs),
(440,0,l),
(500,0,l),
(500,340,ls),
(500,440,o),
(439,500,o),
(320,500,cs),
(140,500,l),
(120,470,l),
(120,700,l),
(60,700,l),
(60,0,l),
(120,0,l)
);
}
);
width = 565;
}
);
metricRight = n;
unicode = 104;
},
{
glyphname = idotless;
lastChange = "2017-03-25 20:20:17 +0000";
layers = (
{
anchors = (
{
name = bottom;
pos = (130,0);
},
{
name = ogonek;
pos = (226,10);
},
{
name = top;
pos = (130,500);
}
);
layerId = "65DE19D7-C0F2-4D8D-9C1D-34999E633ECA";
shapes = (
{
closed = 1;
nodes = (
(70,0,l,{
name = hr00;
}),
(190,0,l),
(190,500,l),
(70,500,l)
);
}
);
width = 260;
},
{
anchors = (
{
name = bottom;
pos = (100,0);
},
{
name = ogonek;
pos = (180,10);
},
{
name = top;
pos = (100,500);
}
);
layerId = "FCEAB5BF-AFE7-45BC-83DB-D0DE89866BD6";
shapes = (
{
closed = 1;
nodes = (
(70,0,l,{
name = hr00;
}),
(130,0,l),
(130,500,l),
(70,500,l)
);
}
);
width = 200;
}
);
metricLeft = n;
metricRight = "=|n";
unicode = 305;
},
{
color = 6;
glyphname = j;
kernLeft = i;
lastChange = "2017-03-25 20:21:05 +0000";
layers = (
{
layerId = "65DE19D7-C0F2-4D8D-9C1D-34999E633ECA";
shapes = (
{
ref = jdotless;
},
{
pos = (-2,0);
ref = dotaccentcomb;
}
);
width = 280;
},
{
background = {
shapes = (
{
closed = 1;
nodes = (
(120,500,l,{
name = hr00;
}),
(120,-150,l),
(-30,-150,l),
(-30,-170,l),
(-10,-200,l),
(20,-200,ls),
(120,-200,o),
(180,-140,o),
(180,-60,cs),
(180,500,l)
);
},
{
closed = 1;
nodes = (
(106,640,cs),
(106,616,o),
(126,596,o),
(150,596,cs),
(174,596,o),
(194,616,o),
(194,640,cs),
(194,664,o),
(174,684,o),
(150,684,cs),
(126,684,o),
(106,664,o)
);
}
);
};
layerId = "FCEAB5BF-AFE7-45BC-83DB-D0DE89866BD6";
shapes = (
{
ref = jdotless;
},
{
pos = (26,0);
ref = dotaccentcomb;
}
);
width = 250;
}
);
unicode = 106;
userData = {
com.typemytype.robofont.mark = (
0.656,
1,
0.6,
1
);
};
},
{
glyphname = jdotless;
lastChange = "2017-03-25 20:20:51 +0000";
layers = (
{
anchors = (
{
name = bottom;
pos = (135,0);
},
{
name = top;
pos = (150,500);
}
);
layerId = "65DE19D7-C0F2-4D8D-9C1D-34999E633ECA";
shapes = (
{
closed = 1;
nodes = (
(90,500,l,{
name = hr00;
}),
(90,-100,l),
(-30,-100,l),
(-30,-120,l),
(24,-200,l),
(50,-200,ls),
(150,-200,o),
(210,-140,o),
(210,-60,cs),
(210,500,l)
);
}
);
width = 280;
},
{
anchors = (
{
name = bottom;
pos = (125,0);
},
{
name = top;
pos = (150,500);
}
);
layerId = "FCEAB5BF-AFE7-45BC-83DB-D0DE89866BD6";
shapes = (
{
closed = 1;
nodes = (
(120,500,l,{
name = hr00;
}),
(120,-150,l),
(-30,-150,l),
(-30,-170,l),
(-10,-200,l),
(20,-200,ls),
(120,-200,o),
(180,-140,o),
(180,-60,cs),
(180,500,l)
);
}
);
width = 250;
}
);
metricRight = "=|n";
unicode = 567;
},
{
glyphname = k;
kernLeft = i;
lastChange = "2022-06-04 12:37:18 +0000";
layers = (
{
anchors = (
{
name = bottom;
pos = (286,0);
},
{
name = top;
pos = (286,500);
}
);
layerId = "65DE19D7-C0F2-4D8D-9C1D-34999E633ECA";
shapes = (
{
closed = 1;
nodes = (
(70,0,l),
(190,0,l),
(190,700,l),
(70,700,l)
);
},
{
closed = 1;
nodes = (
(153,210,l),
(323,210,l),
(323,312,l),
(153,312,l)
);
},
{
closed = 1;
nodes = (
(222,261,l),
(363,261,l),
(536,500,l),
(395,500,l)
);
},
{
closed = 1;
nodes = (
(402,0,l),
(527,0,l),
(472,202,ls),
(448,290,o),
(370,312,o),
(298,312,c),
(298,210,l),
(329,210,o),
(348,199,o),
(356,169,cs)
);
}
);
width = 572;
},
{
anchors = (
{
name = bottom;
pos = (250,0);
},
{
name = top;
pos = (250,500);
}
);
layerId = "FCEAB5BF-AFE7-45BC-83DB-D0DE89866BD6";
shapes = (
{
closed = 1;
nodes = (
(60,700,l),
(60,0,l),
(180,0,l),
(180,260,l),
(353,0,l),
(490,0,l),
(311,270,l),
(463,500,l),
(326,500,l),
(180,280,l),
(180,700,l)
);
}
);
width = 510;
}
);
metricLeft = h;
unicode = 107;
},
{
glyphname = l;
kernLeft = b;
lastChange = "2017-03-25 20:16:10 +0000";
layers = (
{
anchors = (
{
name = bottom;
pos = (153,0);
},
{
name = center;
pos = (125,500);
},
{
name = top;
pos = (125,700);
},
{
name = topright;
pos = (285,700);
}
);
layerId = "65DE19D7-C0F2-4D8D-9C1D-34999E633ECA";
shapes = (
{
closed = 1;
nodes = (
(265,-3,l,{
name = hr00;
}),
(265,97,l),
(245,97,ls),
(206,97,o),
(185,117,o),
(185,157,cs),
(185,700,l),
(65,700,l),
(65,157,ls),
(65,57,o),
(126,-3,o),
(245,-3,cs)
);
}
);
width = 305;
},
{
anchors = (
{
name = bottom;
pos = (153,0);
},
{
name = center;
pos = (153,250);
},
{
name = top;
pos = (153,500);
},
{
name = topright;
pos = (285,500);
}
);
layerId = "FCEAB5BF-AFE7-45BC-83DB-D0DE89866BD6";
shapes = (
{
closed = 1;
nodes = (
(265,-3,l,{
name = hr00;
}),
(265,47,l),
(245,47,ls),
(165,47,o),
(125,84,o),
(125,157,cs),
(125,700,l),
(65,700,l),
(65,157,ls),
(65,57,o),
(126,-3,o),
(245,-3,cs)
);
}
);
width = 305;
}
);
unicode = 108;
},
{
glyphname = m;
kernLeft = i;
kernRight = a;
lastChange = "2017-03-25 20:16:12 +0000";
layers = (
{
anchors = (
{
name = bottom;
pos = (403,0);
},
{
name = top;
pos = (403,500);
}
);
layerId = "65DE19D7-C0F2-4D8D-9C1D-34999E633ECA";
shapes = (
{
closed = 1;
nodes = (
(70,500,l,{
name = hr00;
}),
(70,0,l),
(190,0,l),
(190,400,l),
(285,400,ls),
(325,400,o),
(345,380,o),
(345,340,cs),
(345,0,l),
(465,0,l),
(465,340,ls),
(465,362,o),
(462,382,o),
(456,400,c),
(560,400,ls),
(600,400,o),
(620,380,o),
(620,340,cs),
(620,0,l),
(740,0,l),
(740,340,ls),
(740,440,o),
(680,500,o),
(560,500,cs),
(499,500,l),
(447,422,l),
(421,472,o),
(367,500,o),
(285,500,cs),
(244,500,l),
(190,420,l),
(190,500,l)
);
}
);
width = 805;
},
{
anchors = (
{
name = bottom;
pos = (408,0);
},
{
name = top;
pos = (408,500);
}
);
guides = (
{
pos = (0,470);
},
{
pos = (0,420);
},
{
angle = 56.43;
pos = (68,0);
}
);
layerId = "FCEAB5BF-AFE7-45BC-83DB-D0DE89866BD6";
shapes = (
{
closed = 1;
nodes = (
(70,500,l,{
name = hr00;
}),
(70,0,l),
(130,0,l),
(130,450,l),
(259,450,ls),
(339,450,o),
(379,413,o),
(379,340,cs),
(379,0,l),
(439,0,l),
(439,340,ls),
(439,385,o),
(426,423,o),
(401,450,c),
(570,450,ls),
(650,450,o),
(690,413,o),
(690,340,cs),
(690,0,l),
(750,0,l),
(750,340,ls),
(750,440,o),
(689,500,o),
(570,500,cs),
(394,500,l),
(375,471,l),
(346,490,o),
(307,500,o),
(259,500,cs),
(150,500,l),
(130,470,l),
(130,500,l)
);
}
);
width = 815;
}
);
metricLeft = n;
metricRight = n;
unicode = 109;
},
{
glyphname = n;
kernLeft = i;
kernRight = a;
lastChange = "2017-03-25 20:16:13 +0000";
layers = (
{
anchors = (
{
name = bottom;
pos = (288,0);
},
{
name = top;
pos = (288,500);
}
);
layerId = "65DE19D7-C0F2-4D8D-9C1D-34999E633ECA";
shapes = (
{
closed = 1;
nodes = (
(70,500,l,{
name = hr00;
}),
(70,0,l),
(190,0,l),
(190,400,l),
(330,400,ls),
(369,400,o),
(390,380,o),
(390,340,cs),
(390,0,l),
(510,0,l),
(510,340,ls),
(510,440,o),
(449,500,o),
(330,500,cs),
(243,500,l),
(190,420,l),
(190,500,l)
);
}
);
width = 575;
},
{
anchors = (
{
name = bottom;
pos = (288,0);
},
{
name = top;
pos = (288,500);
}
);
guides = (
{
pos = (0,450);
},
{
angle = 90;
pos = (130,0);
},
{
angle = 90;
pos = (450,0);
},
{
angle = 56.43;
pos = (-182,0);
}
);
layerId = "FCEAB5BF-AFE7-45BC-83DB-D0DE89866BD6";
shapes = (
{
closed = 1;
nodes = (
(70,500,l,{
name = hr00;
}),
(70,0,l),
(130,0,l),
(130,450,l),
(330,450,ls),
(410,450,o),
(450,413,o),
(450,340,cs),
(450,0,l),
(510,0,l),
(510,340,ls),
(510,440,o),
(449,500,o),
(330,500,cs),
(150,500,l),
(130,470,l),
(130,500,l)
);
}
);
width = 575;
}
);
unicode = 110;
},
{
color = 7;
glyphname = eng;
lastChange = "2017-03-25 20:11:35 +0000";
layers = (
{
layerId = "65DE19D7-C0F2-4D8D-9C1D-34999E633ECA";
shapes = (
{
closed = 1;
nodes = (
(390,0,l,{
name = hr00;
}),
(390,-100,l),
(270,-100,l),
(270,-120,l),
(324,-200,l),
(350,-200,ls),
(450,-200,o),
(510,-140,o),
(510,-60,cs),
(510,0,l)
);
},
{
ref = n;
}
);
width = 575;
},
{
layerId = "FCEAB5BF-AFE7-45BC-83DB-D0DE89866BD6";
width = 600;
}
);
metricLeft = n;
metricRight = n;
unicode = 331;
},
{
glyphname = o;
kernLeft = c;
kernRight = b;
lastChange = "2017-03-25 20:16:14 +0000";
layers = (
{
anchors = (
{
name = bottom;
pos = (290,0);
},
{
name = center;
pos = (290,250);
},
{
name = ogonek;
pos = (522,10);
},
{
name = top;
pos = (290,500);
},
{
name = topright;
pos = (560,500);
}
);
guides = (
{
pos = (0,340);
},
{
angle = 90;
pos = (340,0);
}
);
layerId = "65DE19D7-C0F2-4D8D-9C1D-34999E633ECA";
shapes = (
{
closed = 1;
nodes = (
(520,140,c,{
name = hr00;
}),
(520,340,ls),
(520,440,o),
(459,500,o),
(340,500,cs),
(220,500,ls),
(120,500,o),
(60,440,o),
(60,360,cs),
(60,160,ls),
(60,60,o),
(121,0,o),
(240,0,cs),
(360,0,ls),
(460,0,o),
(520,60,o)
);
},
{
closed = 1;
nodes = (
(180,400,l),
(340,400,ls),
(379,400,o),
(400,380,o),
(400,340,cs),
(400,100,l),
(240,100,ls),
(201,100,o),
(180,120,o),
(180,160,cs)
);
}
);
width = 580;
},
{
anchors = (
{
name = bottom;
pos = (290,0);
},
{
name = center;
pos = (290,250);
},
{
name = ogonek;
pos = (522,10);
},
{
name = top;
pos = (290,500);
},
{
name = topright;
pos = (560,500);
}
);
guides = (
{
angle = 90;
pos = (120,0);
},
{
angle = 90;
pos = (460,0);
}
);
layerId = "FCEAB5BF-AFE7-45BC-83DB-D0DE89866BD6";
shapes = (
{
closed = 1;
nodes = (
(520,140,c,{
name = hr00;
}),
(520,340,ls),
(520,440,o),
(459,500,o),
(340,500,cs),
(220,500,ls),
(120,500,o),
(60,440,o),
(60,360,cs),
(60,160,ls),
(60,60,o),
(121,0,o),
(240,0,cs),
(360,0,ls),
(460,0,o),
(520,60,o)
);
},
{
closed = 1;
nodes = (
(120,450,l),
(340,450,ls),
(420,450,o),
(460,413,o),
(460,340,cs),
(460,50,l),
(240,50,ls),
(160,50,o),
(120,87,o),
(120,160,cs)
);
}
);
width = 580;
}
);
unicode = 111;
userData = {
com.typemytype.robofont.guides = (
{
angle = 0;
isGlobal = 0;
magnetic = 5;
x = 0;
y = 340;
},
{
angle = 90;
isGlobal = 0;
magnetic = 5;
x = 340;
y = 0;
}
);
};
},
{
glyphname = oe;
kernLeft = c;
lastChange = "2017-03-25 20:16:15 +0000";
layers = (
{
anchors = (
{
name = bottom;
pos = (415,0);
},
{
name = top;
pos = (415,500);
}
);
layerId = "65DE19D7-C0F2-4D8D-9C1D-34999E633ECA";
shapes = (
{
closed = 1;
nodes = (
(480,200,l,{
name = hr00;
}),
(770,200,l),
(770,340,ls),
(770,440,o),
(709,500,o),
(590,500,cs),
(520,500,ls),
(478,500,o),
(443,489,o),
(416,471,c),
(387,490,o),
(348,500,o),
(300,500,cs),
(220,500,ls),
(120,500,o),
(60,440,o),
(60,360,cs),
(60,160,ls),
(60,60,o),
(121,0,o),
(240,0,cs),
(320,0,ls),
(362,0,o),
(397,10,o),
(423,28,c),
(452,10,o),
(491,0,o),
(540,0,cs),
(677,0,l),
(730,80,l),
(730,100,l),
(540,100,ls),
(501,100,o),
(480,120,o),
(480,160,cs)
);
},
{
closed = 1;
nodes = (
(180,400,l),
(300,400,ls),
(339,400,o),
(360,380,o),
(360,340,cs),
(360,100,l),
(240,100,ls),
(201,100,o),
(180,120,o),
(180,160,cs)
);
},
{
closed = 1;
nodes = (
(480,400,l),
(590,400,ls),
(629,400,o),
(650,380,o),
(650,340,cs),
(650,300,l),
(480,300,l)
);
}
);
width = 830;
},
{
anchors = (
{
name = bottom;
pos = (415,0);
},
{
name = top;
pos = (415,500);
}
);
guides = (
{
pos = (0,339);
}
);
layerId = "FCEAB5BF-AFE7-45BC-83DB-D0DE89866BD6";
shapes = (
{
closed = 1;
nodes = (
(450,225,l,{
name = hr00;
}),
(770,225,l),
(770,340,ls),
(770,440,o),
(709,500,o),
(590,500,cs),
(550,500,ls),
(490,500,o),
(444,478,o),
(417,444,c),
(388,480,o),
(339,500,o),
(270,500,cs),
(220,500,ls),
(120,500,o),
(60,440,o),
(60,360,cs),
(60,160,ls),
(60,60,o),
(121,0,o),
(240,0,cs),
(290,0,ls),
(350,0,o),
(395,21,o),
(422,56,c),
(452,20,o),
(501,0,o),
(570,0,cs),
(677,0,l),
(697,30,l),
(697,50,l),
(570,50,ls),
(490,50,o),
(450,87,o),
(450,160,cs)
);
},
{
closed = 1;
nodes = (
(120,450,l),
(270,450,ls),
(350,450,o),
(390,413,o),
(390,340,cs),
(390,50,l),
(240,50,ls),
(160,50,o),
(120,87,o),
(120,160,cs)
);
},
{
closed = 1;
nodes = (
(450,450,l),
(590,450,ls),
(670,450,o),
(710,413,o),
(710,340,cs),
(710,275,l),
(450,275,l)
);
}
);
width = 830;
}
);
metricLeft = o;
metricRight = e;
unicode = 339;
},
{
glyphname = p;
kernLeft = i;
kernRight = b;
lastChange = "2017-03-25 20:16:16 +0000";
layers = (
{
anchors = (
{
name = bottom;
pos = (290,0);
},
{
name = top;
pos = (290,500);
}
);
layerId = "65DE19D7-C0F2-4D8D-9C1D-34999E633ECA";
shapes = (
{
closed = 1;
nodes = (
(190,80,l,{
name = hr00;
}),
(243,0,l),
(350,0,ls),
(450,0,o),
(510,60,o),
(510,140,cs),
(510,340,ls),
(510,440,o),
(449,500,o),
(330,500,cs),
(243,500,l),
(190,420,l),
(190,500,l),
(70,500,l),
(70,-200,l),
(190,-200,l)
);
},
{
closed = 1;
nodes = (
(190,400,l),
(330,400,ls),
(369,400,o),
(390,380,o),
(390,340,cs),
(390,100,l),
(244,100,ls),
(211,100,o),
(190,120,o),
(190,154,cs)
);
}
);
width = 570;
},
{
anchors = (
{
name = bottom;
pos = (280,0);
},
{
name = top;
pos = (280,500);
}
);
guides = (
{
angle = 56.43;
pos = (-192,0);
}
);
layerId = "FCEAB5BF-AFE7-45BC-83DB-D0DE89866BD6";
shapes = (
{
closed = 1;
nodes = (
(120,80,l,{
name = hr00;
}),
(173,0,l),
(340,0,ls),
(440,0,o),
(500,60,o),
(500,140,cs),
(500,340,ls),
(500,440,o),
(439,500,o),
(320,500,cs),
(140,500,l),
(120,470,l),
(120,500,l),
(60,500,l),
(60,-200,l),
(120,-200,l)
);
},
{
closed = 1;
nodes = (
(120,450,l),
(320,450,ls),
(400,450,o),
(440,413,o),
(440,340,cs),
(440,50,l),
(240,50,ls),
(160,50,o),
(120,87,o),
(120,160,cs)
);
}
);
width = 560;
}
);
metricLeft = h;
metricRight = o;
unicode = 112;
},
{
glyphname = thorn;
lastChange = "2017-03-25 20:16:17 +0000";
layers = (
{
anchors = (
{
name = bottom;
pos = (285,0);
},
{
name = top;
pos = (285,500);
}
);
layerId = "65DE19D7-C0F2-4D8D-9C1D-34999E633ECA";
shapes = (
{
closed = 1;
nodes = (
(190,80,l,{
name = hr00;
}),
(243,0,l),
(350,0,ls),
(450,0,o),
(510,60,o),
(510,140,cs),
(510,340,ls),
(510,440,o),
(449,500,o),
(330,500,cs),
(243,500,l),
(190,420,l),
(190,700,l),
(70,700,l),
(70,-200,l),
(190,-200,l)
);
},
{
closed = 1;
nodes = (
(190,400,l),
(330,400,ls),
(369,400,o),
(390,380,o),
(390,340,cs),
(390,100,l),
(244,100,ls),
(211,100,o),
(190,120,o),
(190,154,cs)
);
}
);
width = 570;
},
{
anchors = (
{
name = bottom;
pos = (280,0);
},
{
name = top;
pos = (280,500);
}
);
layerId = "FCEAB5BF-AFE7-45BC-83DB-D0DE89866BD6";
shapes = (
{
closed = 1;
nodes = (
(120,80,l,{
name = hr00;
}),
(173,0,l),
(340,0,ls),
(440,0,o),
(500,60,o),
(500,140,cs),
(500,340,ls),
(500,440,o),
(439,500,o),
(320,500,cs),
(140,500,l),
(120,470,l),
(120,700,l),
(60,700,l),
(60,-200,l),
(120,-200,l)
);
},
{
closed = 1;
nodes = (
(120,450,l),
(320,450,ls),
(400,450,o),
(440,413,o),
(440,340,cs),
(440,50,l),
(240,50,ls),
(160,50,o),
(120,87,o),
(120,160,cs)
);
}
);
width = 560;
}
);
metricLeft = h;
metricRight = o;
unicode = 254;
},
{
glyphname = q;
kernLeft = c;
lastChange = "2022-06-04 12:36:51 +0000";
layers = (
{
anchors = (
{
name = bottom;
pos = (280,0);
},
{
name = top;
pos = (280,500);
}
);
layerId = "65DE19D7-C0F2-4D8D-9C1D-34999E633ECA";
shapes = (
{
closed = 1;
nodes = (
(500,500,l,{
name = hr00;
}),
(380,500,l),
(380,420,l),
(327,500,l),
(220,500,ls),
(120,500,o),
(60,440,o),
(60,360,cs),
(60,160,ls),
(60,60,o),
(121,0,o),
(240,0,cs),
(327,0,l),
(380,80,l),
(380,-200,l),
(500,-200,l)
);
},
{
closed = 1;
nodes = (
(180,400,l),
(325,400,ls),
(359,400,o),
(380,380,o),
(380,346,cs),
(380,100,l),
(240,100,ls),
(201,100,o),
(180,120,o),
(180,160,cs)
);
}
);
width = 570;
},
{
anchors = (
{
name = bottom;
pos = (280,0);
},
{
name = top;
pos = (280,500);
}
);
guides = (
{
angle = 56.43;
pos = (420,0);
}
);
layerId = "FCEAB5BF-AFE7-45BC-83DB-D0DE89866BD6";
shapes = (
{
closed = 1;
nodes = (
(500,500,l,{
name = hr00;
}),
(440,500,l),
(440,420,l),
(387,500,l),
(220,500,ls),
(120,500,o),
(60,440,o),
(60,360,cs),
(60,160,ls),
(60,60,o),
(121,0,o),
(240,0,cs),
(420,0,l),
(440,30,l),
(440,-200,l),
(500,-200,l)
);
},
{
closed = 1;
nodes = (
(120,450,l),
(320,450,ls),
(400,450,o),
(440,413,o),
(440,340,cs),
(440,50,l),
(240,50,ls),
(160,50,o),
(120,87,o),
(120,160,cs)
);
}
);
width = 570;
}
);
metricLeft = o;
metricRight = "=|n";
unicode = 113;
},
{
glyphname = r;
kernLeft = i;
lastChange = "2017-03-25 20:16:20 +0000";
layers = (
{
anchors = (
{
name = bottom;
pos = (195,0);
},
{
name = top;
pos = (240,500);
}
);
layerId = "65DE19D7-C0F2-4D8D-9C1D-34999E633ECA";
shapes = (
{
closed = 1;
nodes = (
(70,500,l,{
name = hr00;
}),
(70,0,l),
(190,0,l),
(190,400,l),
(337,400,l),
(390,480,l),
(390,500,l),
(244,500,l),
(190,420,l),
(190,500,l)
);
}
);
width = 390;
},
{
anchors = (
{
name = bottom;
pos = (195,0);
},
{
name = top;
pos = (195,500);
}
);
guides = (
{
angle = 56.43;
pos = (71,0);
}
);
layerId = "FCEAB5BF-AFE7-45BC-83DB-D0DE89866BD6";
shapes = (
{
closed = 1;
nodes = (
(70,500,l,{
name = hr00;
}),
(70,0,l),
(130,0,l),
(130,450,l),
(371,450,l),
(390,480,l),
(390,500,l),
(150,500,l),
(130,470,l),
(130,500,l)
);
}
);
width = 390;
}
);
metricLeft = n;
unicode = 114;
},
{
glyphname = s;
lastChange = "2017-03-25 20:16:21 +0000";
layers = (
{
anchors = (
{
name = bottom;
pos = (280,0);
},
{
name = top;
pos = (280,500);
}
);
layerId = "65DE19D7-C0F2-4D8D-9C1D-34999E633ECA";
shapes = (
{
closed = 1;
nodes = (
(180,400,l,{
name = hr00;
}),
(320,400,ls),
(352,400,o),
(372,386,o),
(378,360,c),
(499,360,l),
(491,448,o),
(431,500,o),
(320,500,cs),
(220,500,ls),
(120,500,o),
(60,440,o),
(60,360,cs),
(60,260,o),
(121,200,o),
(240,200,cs),
(320,200,ls),
(359,200,o),
(380,180,o),
(380,140,cs),
(380,100,l),
(240,100,ls),
(208,100,o),
(188,113,o),
(182,140,c),
(61,140,l),
(68,52,o),
(129,0,o),
(240,0,cs),
(340,0,ls),
(440,0,o),
(500,60,o),
(500,140,cs),
(500,240,o),
(439,300,o),
(320,300,cs),
(240,300,ls),
(200,300,o),
(180,320,o),
(180,360,cs)
);
}
);
width = 560;
},
{
anchors = (
{
name = bottom;
pos = (280,0);
},
{
name = top;
pos = (280,500);
}
);
layerId = "FCEAB5BF-AFE7-45BC-83DB-D0DE89866BD6";
shapes = (
{
closed = 1;
nodes = (
(120,450,l,{
name = hr00;
}),
(320,450,ls),
(400,450,o),
(432,414,o),
(439,360,c),
(499,360,l),
(491,448,o),
(431,500,o),
(320,500,cs),
(220,500,ls),
(120,500,o),
(60,440,o),
(60,360,cs),
(60,260,o),
(121,225,o),
(240,225,cs),
(320,225,ls),
(400,225,o),
(440,188,o),
(440,115,cs),
(440,50,l),
(240,50,ls),
(160,50,o),
(127,87,o),
(121,140,c),
(61,140,l),
(68,52,o),
(129,0,o),
(240,0,cs),
(340,0,ls),
(440,0,o),
(500,60,o),
(500,140,cs),
(500,240,o),
(439,275,o),
(320,275,cs),
(240,275,ls),
(160,275,o),
(120,312,o),
(120,385,cs)
);
}
);
width = 560;
}
);
unicode = 115;
},
{
glyphname = germandbls;
lastChange = "2022-06-04 12:37:13 +0000";
layers = (
{
anchors = (
{
name = bottom;
pos = (320,0);
},
{
name = top;
pos = (320,500);
}
);
layerId = "65DE19D7-C0F2-4D8D-9C1D-34999E633ECA";
shapes = (
{
closed = 1;
nodes = (
(190,600,l,{
name = hr00;
}),
(360,600,ls),
(400,600,o),
(420,580,o),
(420,540,cs),
(420,500,l),
(400,500,ls),
(300,500,o),
(240,440,o),
(240,360,cs),
(240,260,o),
(300,200,o),
(420,200,cs),
(460,200,o),
(480,180,o),
(480,140,cs),
(480,100,l),
(260,100,l),
(260,80,l),
(314,0,l),
(440,0,ls),
(540,0,o),
(600,60,o),
(600,140,cs),
(600,240,o),
(540,300,o),
(420,300,cs),
(380,300,o),
(360,320,o),
(360,360,cs),
(360,400,l),
(540,400,l),
(540,540,ls),
(540,640,o),
(480,700,o),
(360,700,cs),
(230,700,ls),
(130,700,o),
(70,640,o),
(70,560,cs),
(70,0,l),
(190,0,l)
);
}
);
width = 640;
},
{
anchors = (
{
name = bottom;
pos = (310,0);
},
{
name = top;
pos = (310,500);
}
);
layerId = "FCEAB5BF-AFE7-45BC-83DB-D0DE89866BD6";
shapes = (
{
closed = 1;
nodes = (
(120,650,l,{
name = hr00;
}),
(350,650,ls),
(430,650,o),
(470,613,o),
(470,540,cs),
(470,500,l),
(390,500,ls),
(290,500,o),
(230,440,o),
(230,360,cs),
(230,260,o),
(290,225,o),
(410,225,cs),
(490,225,o),
(530,188,o),
(530,115,cs),
(530,50,l),
(284,50,l),
(284,30,l),
(304,0,l),
(430,0,ls),
(530,0,o),
(590,60,o),
(590,140,cs),
(590,240,o),
(530,275,o),
(410,275,cs),
(330,275,o),
(290,312,o),
(290,385,cs),
(290,450,l),
(530,450,l),
(530,540,ls),
(530,640,o),
(470,700,o),
(350,700,cs),
(220,700,ls),
(120,700,o),
(60,640,o),
(60,560,cs),
(60,0,l),
(120,0,l)
);
}
);
width = 630;
}
);
metricLeft = h;
unicode = 223;
},
{
glyphname = longs;
kernLeft = i;
lastChange = "2022-06-04 12:37:39 +0000";
layers = (
{
anchors = (
{
name = bottom;
pos = (140,0);
},
{
name = top;
pos = (140,500);
}
);
layerId = "65DE19D7-C0F2-4D8D-9C1D-34999E633ECA";
shapes = (
{
closed = 1;
nodes = (
(190,600,l,{
name = hr00;
}),
(290,600,l),
(290,700,l),
(230,700,ls),
(130,700,o),
(70,640,o),
(70,560,cs),
(70,0,l),
(190,0,l)
);
}
);
width = 280;
},
{
anchors = (
{
name = bottom;
pos = (130,0);
},
{
name = top;
pos = (130,500);
}
);
layerId = "FCEAB5BF-AFE7-45BC-83DB-D0DE89866BD6";
shapes = (
{
closed = 1;
nodes = (
(120,650,l,{
name = hr00;
}),
(280,650,l),
(280,700,l),
(220,700,ls),
(120,700,o),
(60,640,o),
(60,560,cs),
(60,0,l),
(120,0,l)
);
}
);
width = 270;
}
);
metricLeft = h;
unicode = 383;
},
{
glyphname = t;
lastChange = "2017-03-25 20:16:25 +0000";
layers = (
{
anchors = (
{
name = bottom;
pos = (185,0);
},
{
name = center;
pos = (185,250);
},
{
name = top;
pos = (185,500);
},
{
name = topright;
pos = (350,500);
}
);
layerId = "65DE19D7-C0F2-4D8D-9C1D-34999E633ECA";
shapes = (
{
closed = 1;
nodes = (
(105,580,l,{
name = hr00;
}),
(105,500,l),
(20,500,l),
(20,400,l),
(100,400,l),
(100,157,ls),
(100,57,o),
(161,-3,o),
(280,-3,cs),
(320,-3,l),
(320,97,l),
(280,97,ls),
(241,97,o),
(220,117,o),
(220,157,cs),
(220,400,l),
(320,400,l),
(320,500,l),
(220,500,l),
(220,660,l),
(159,660,l)
);
}
);
width = 370;
},
{
anchors = (
{
name = bottom;
pos = (185,0);
},
{
name = center;
pos = (185,250);
},
{
name = top;
pos = (185,500);
},
{
name = topright;
pos = (350,500);
}
);
guides = (
{
angle = 56.43;
pos = (-309,0);
}
);
layerId = "FCEAB5BF-AFE7-45BC-83DB-D0DE89866BD6";
shapes = (
{
closed = 1;
nodes = (
(105,624,l,{
name = hr00;
}),
(105,500,l),
(20,500,l),
(20,450,l),
(100,450,l),
(100,157,ls),
(100,57,o),
(161,-3,o),
(280,-3,cs),
(320,-3,l),
(320,47,l),
(280,47,ls),
(200,47,o),
(160,84,o),
(160,157,cs),
(160,450,l),
(320,450,l),
(320,500,l),
(160,500,l),
(160,660,l),
(129,660,l)
);
}
);
width = 370;
}
);
unicode = 116;
},
{
glyphname = u;
lastChange = "2022-06-04 12:37:34 +0000";
layers = (
{
anchors = (
{
name = bottom;
pos = (285,0);
},
{
name = ogonek;
pos = (509,10);
},
{
name = top;
pos = (285,500);
},
{
name = topright;
pos = (545,500);
}
);
layerId = "65DE19D7-C0F2-4D8D-9C1D-34999E633ECA";
shapes = (
{
closed = 1;
nodes = (
(385,100,l,{
name = hr00;
}),
(245,100,ls),
(206,100,o),
(185,120,o),
(185,160,cs),
(185,500,l),
(65,500,l),
(65,160,ls),
(65,60,o),
(126,0,o),
(245,0,cs),
(332,0,l),
(385,80,l),
(385,0,l),
(505,0,l),
(505,500,l),
(385,500,l)
);
}
);
width = 575;
},
{
anchors = (
{
name = bottom;
pos = (285,0);
},
{
name = ogonek;
pos = (509,10);
},
{
name = top;
pos = (285,500);
},
{
name = topright;
pos = (545,500);
}
);
guides = (
{
angle = 56.43;
pos = (425,0);
}
);
layerId = "FCEAB5BF-AFE7-45BC-83DB-D0DE89866BD6";
shapes = (
{
closed = 1;
nodes = (
(445,50,l,{
name = hr00;
}),
(245,50,ls),
(165,50,o),
(125,87,o),
(125,160,cs),
(125,500,l),
(65,500,l),
(65,160,ls),
(65,60,o),
(126,0,o),
(245,0,cs),
(425,0,l),
(445,30,l),
(445,0,l),
(505,0,l),
(505,500,l),
(445,500,l)
);
}
);
width = 575;
}
);
metricLeft = "=|n";
metricRight = "=|n";
unicode = 117;
},
{
glyphname = v;
lastChange = "2022-06-04 12:33:20 +0000";
layers = (
{
anchors = (
{
name = bottom;
pos = (273,0);
},
{
name = top;
pos = (273,500);
}
);
background = {
shapes = (
{
closed = 1;
nodes = (
(148,100,ls,{
name = hr00;
}),
(168,39,o),
(191,-5,o),
(253,-5,cs),
(287,-5,l),
(287,51,l),
(138,495,l),
(15,495,l)
);
},
{
closed = 1;
nodes = (
(531,495,l),
(408,495,l),
(259,51,l),
(259,-5,l),
(293,-5,ls),
(352,-5,o),
(378,39,o),
(398,100,cs)
);
},
{
closed = 1;
nodes = (
(229,64,l),
(328,64,l),
(328,100,l),
(229,100,l)
);
}
);
};
guides = (
{
pos = (0,311);
},
{
pos = (0,51);
},
{
pos = (0,100);
}
);
layerId = "65DE19D7-C0F2-4D8D-9C1D-34999E633ECA";
shapes = (
{
closed = 1;
nodes = (
(148,100,ls,{
name = hr00;
}),
(169,39,o),
(191,-5,o),
(253,-5,cs),
(287,-5,l),
(287,51,l),
(136,500,l),
(13,500,l)
);
},
{
closed = 1;
nodes = (
(533,500,l),
(410,500,l),
(259,51,l),
(259,-5,l),
(293,-5,ls),
(352,-5,o),
(377,39,o),
(398,100,cs)
);
},
{
closed = 1;
nodes = (
(229,64,l),
(328,64,l),
(328,100,l),
(229,100,l)
);
}
);
width = 546;
},
{
anchors = (
{
name = bottom;
pos = (274,0);
},
{
name = top;
pos = (287,500);
}
);
layerId = "FCEAB5BF-AFE7-45BC-83DB-D0DE89866BD6";
shapes = (
{
closed = 1;
nodes = (
(218,29,ls,{
name = hr00;
}),
(226,8,o),
(237,-5,o),
(262,-5,cs),
(283,-5,l),
(283,20,l),
(98,500,l),
(33,500,l)
);
},
{
closed = 1;
nodes = (
(513,500,l),
(450,500,l),
(267,20,l),
(267,-5,l),
(285,-5,ls),
(309,-5,o),
(321,8,o),
(329,29,cs)
);
},
{
closed = 1;
nodes = (
(246,17,l),
(305,17,l),
(305,43,l),
(246,43,l)
);
}
);
width = 546;
}
);
unicode = 118;
userData = {
com.typemytype.robofont.guides = (
{
angle = 0;
isGlobal = 0;
magnetic = 5;
x = 0;
y = 311;
},
{
angle = 0;
isGlobal = 0;
magnetic = 5;
x = 0;
y = 51;
},
{
angle = 0;
isGlobal = 0;
magnetic = 5;
x = 0;
y = 100;
}
);
};
},
{
glyphname = w;
lastChange = "2017-03-25 20:16:29 +0000";
layers = (
{
anchors = (
{
name = bottom;
pos = (377,0);
},
{
name = top;
pos = (377,500);
}
);
guides = (
{
pos = (0,300);
}
);
layerId = "65DE19D7-C0F2-4D8D-9C1D-34999E633ECA";
shapes = (
{
closed = 1;
nodes = (
(108,0,l,{
name = hr00;
}),
(217,0,l),
(159,500,l),
(50,500,l)
);
},
{
closed = 1;
nodes = (
(178,0,l),
(298,0,l),
(298,80,l),
(178,80,l)
);
},
{
closed = 1;
nodes = (
(510,0,l),
(630,0,l),
(630,80,l),
(510,80,l)
);
},
{
closed = 1;
nodes = (
(318,415,l),
(438,415,l),
(438,495,l),
(318,495,l)
);
},
{
closed = 1;
nodes = (
(374,495,l),
(280,495,l),
(212,0,l),
(321,0,l)
);
},
{
closed = 1;
nodes = (
(432,0,l),
(541,0,l),
(473,495,l),
(379,495,l)
);
},
{
closed = 1;
nodes = (
(703,500,l),
(594,500,l),
(536,0,l),
(645,0,l)
);
}
);
width = 753;
},
{
anchors = (
{
name = bottom;
pos = (357,0);
},
{
name = top;
pos = (357,500);
}
);
guides = (
{
pos = (0,300);
}
);
layerId = "FCEAB5BF-AFE7-45BC-83DB-D0DE89866BD6";
shapes = (
{
closed = 1;
nodes = (
(13,500,l,{
name = hr00;
}),
(167,0,l),
(262,0,l),
(326,200,ls),
(336,232,o),
(347,263,o),
(357,315,c),
(367,263,o),
(377,232,o),
(387,200,cs),
(452,0,l),
(547,0,l),
(701,500,l),
(582,500,l),
(523,300,ls),
(514,271,o),
(506,242,o),
(497,193,c),
(487,242,o),
(478,271,o),
(468,300,cs),
(402,500,l),
(312,500,l),
(246,301,ls),
(236,272,o),
(227,242,o),
(217,193,c),
(208,242,o),
(200,271,o),
(191,300,cs),
(132,500,l)
);
}
);
width = 714;
}
);
unicode = 119;
userData = {
com.typemytype.robofont.guides = (
{
angle = 0;
isGlobal = 0;
magnetic = 5;
x = 0;
y = 300;
}
);
};
},
{
glyphname = x;
lastChange = "2017-03-25 20:16:30 +0000";
layers = (
{
anchors = (
{
name = bottom;
pos = (250,0);
},
{
name = top;
pos = (250,500);
}
);
layerId = "65DE19D7-C0F2-4D8D-9C1D-34999E633ECA";
shapes = (
{
closed = 1;
nodes = (
(140,200,l),
(360,200,l),
(360,310,l),
(140,310,l)
);
},
{
closed = 1;
nodes = (
(140,255,l),
(265,255,l),
(144,500,l),
(10,500,l)
);
},
{
closed = 1;
nodes = (
(490,500,l),
(356,500,l),
(235,255,l),
(360,255,l)
);
},
{
closed = 1;
nodes = (
(361,0,l),
(495,0,l),
(360,255,l),
(235,255,l)
);
},
{
closed = 1;
nodes = (
(265,255,l),
(140,255,l),
(5,0,l),
(139,0,l)
);
}
);
width = 500;
},
{
anchors = (
{
name = bottom;
pos = (251,0);
},
{
name = top;
pos = (251,500);
}
);
layerId = "FCEAB5BF-AFE7-45BC-83DB-D0DE89866BD6";
shapes = (
{
closed = 1;
nodes = (
(50,500,l,{
name = hr00;
}),
(215,262,l),
(35,0,l),
(99,0,l),
(247,216,l),
(397,0,l),
(466,0,l),
(289,254,l),
(457,500,l),
(394,500,l),
(258,299,l),
(119,500,l)
);
}
);
width = 502;
}
);
unicode = 120;
},
{
glyphname = y;
lastChange = "2022-06-04 12:37:25 +0000";
layers = (
{
anchors = (
{
name = bottom;
pos = (285,0);
},
{
name = top;
pos = (285,500);
}
);
layerId = "65DE19D7-C0F2-4D8D-9C1D-34999E633ECA";
shapes = (
{
closed = 1;
nodes = (
(385,120,l,{
name = hr00;
}),
(245,120,ls),
(206,120,o),
(185,140,o),
(185,180,cs),
(185,500,l),
(65,500,l),
(65,180,ls),
(65,80,o),
(126,20,o),
(245,20,cs),
(332,20,l),
(385,100,l),
(385,-100,l),
(145,-100,l),
(145,-120,l),
(199,-200,l),
(345,-200,ls),
(445,-200,o),
(505,-140,o),
(505,-60,cs),
(505,500,l),
(385,500,l)
);
}
);
width = 575;
},
{
anchors = (
{
name = bottom;
pos = (285,0);
},
{
name = top;
pos = (285,500);
}
);
guides = (
{
angle = 56.43;
pos = (412,0);
}
);
layerId = "FCEAB5BF-AFE7-45BC-83DB-D0DE89866BD6";
shapes = (
{
closed = 1;
nodes = (
(445,70,l,{
name = hr00;
}),
(245,70,ls),
(165,70,o),
(125,107,o),
(125,180,cs),
(125,500,l),
(65,500,l),
(65,180,ls),
(65,80,o),
(126,20,o),
(245,20,cs),
(425,20,l),
(445,50,l),
(445,-150,l),
(145,-150,l),
(145,-170,l),
(165,-200,l),
(345,-200,ls),
(445,-200,o),
(505,-140,o),
(505,-60,cs),
(505,500,l),
(445,500,l)
);
}
);
width = 575;
}
);
metricLeft = "=|n";
metricRight = "=|n";
unicode = 121;
},
{
glyphname = z;
lastChange = "2017-03-25 20:16:32 +0000";
layers = (
{
anchors = (
{
name = bottom;
pos = (260,0);
},
{
name = top;
pos = (260,500);
}
);
guides = (
{
angle = 90;
pos = (206,0);
},
{
angle = 90;
pos = (314,0);
}
);
layerId = "65DE19D7-C0F2-4D8D-9C1D-34999E633ECA";
shapes = (
{
closed = 1;
nodes = (
(60,500,l,{
name = hr00;
}),
(60,400,l),
(313,400,l),
(50,90,l),
(50,0,l),
(470,0,l),
(470,100,l),
(206,100,l),
(470,410,l),
(470,500,l)
);
}
);
width = 520;
},
{
anchors = (
{
name = bottom;
pos = (260,0);
},
{
name = top;
pos = (260,500);
}
);
guides = (
{
angle = 90;
pos = (206,0);
},
{
angle = 90;
pos = (314,0);
}
);
layerId = "FCEAB5BF-AFE7-45BC-83DB-D0DE89866BD6";
shapes = (
{
closed = 1;
nodes = (
(60,500,l,{
name = hr00;
}),
(60,450,l),
(394,450,l),
(50,40,l),
(50,0,l),
(470,0,l),
(470,50,l),
(126,50,l),
(470,460,l),
(470,500,l)
);
}
);
width = 520;
}
);
unicode = 122;
userData = {
com.typemytype.robofont.guides = (
{
angle = 90;
isGlobal = 0;
magnetic = 5;
x = 206;
y = 0;
},
{
angle = 90;
isGlobal = 0;
magnetic = 5;
x = 314;
y = 0;
}
);
};
},
{
glyphname = g.ss03;
lastChange = "2017-03-25 20:11:42 +0000";
layers = (
{
anchors = (
{
name = bottom;
pos = (263,0);
},
{
name = top;
pos = (263,500);
}
);
layerId = "65DE19D7-C0F2-4D8D-9C1D-34999E633ECA";
shapes = (
{
closed = 1;
nodes = (
(60,319,ls),
(60,219,o),
(121,159,o),
(240,159,cs),
(295,159,ls),
(395,159,o),
(455,219,o),
(455,299,cs),
(455,340,ls),
(455,440,o),
(394,500,o),
(275,500,cs),
(220,500,ls),
(120,500,o),
(60,440,o),
(60,360,cs)
);
},
{
closed = 1;
nodes = (
(275,400,ls),
(314,400,o),
(335,380,o),
(335,340,cs),
(335,259,l),
(240,259,ls),
(201,259,o),
(180,279,o),
(180,319,cs),
(180,400,l)
);
},
{
closed = 1;
nodes = (
(494,500,l),
(432,500,l),
(379,420,l),
(379,400,l),
(494,400,l)
);
},
{
closed = 1;
nodes = (
(40,-40,cs),
(40,-140,o),
(101,-200,o),
(220,-200,cs),
(335,-200,ls),
(435,-200,o),
(495,-140,o),
(495,-60,cs),
(495,40,o),
(434,100,o),
(315,100,cs),
(200,100,ls),
(100,100,o),
(40,40,o)
);
},
{
closed = 1;
nodes = (
(315,0,ls),
(354,0,o),
(375,-20,o),
(375,-60,cs),
(375,-100,l),
(220,-100,ls),
(181,-100,o),
(160,-80,o),
(160,-40,cs),
(160,0,l)
);
},
{
closed = 1;
nodes = (
(240,59,l),
(201,59,o),
(180,79,o),
(180,119,cs),
(180,171,l),
(249,159,l),
(249,259,l),
(220,259,ls),
(120,259,o),
(60,199,o),
(60,119,cs),
(60,63,o),
(79,20,o),
(116,-7,c),
(140,9,o),
(187,9,o),
(240,9,c)
);
}
);
width = 525;
},
{
layerId = "FCEAB5BF-AFE7-45BC-83DB-D0DE89866BD6";
width = 600;
}
);
},
{
glyphname = c.ss04;
lastChange = "2017-03-25 20:11:42 +0000";
layers = (
{
anchors = (
{
name = bottom;
pos = (235,0);
},
{
name = top;
pos = (235,500);
}
);
layerId = "65DE19D7-C0F2-4D8D-9C1D-34999E633ECA";
shapes = (
{
closed = 1;
nodes = (
(180,400,l),
(420,400,l),
(420,500,l),
(220,500,ls),
(120,500,o),
(60,440,o),
(60,360,cs),
(60,160,ls),
(60,60,o),
(121,0,o),
(240,0,cs),
(420,0,l),
(420,100,l),
(240,100,ls),
(201,100,o),
(180,120,o),
(180,160,cs)
);
}
);
width = 470;
},
{
layerId = "FCEAB5BF-AFE7-45BC-83DB-D0DE89866BD6";
width = 600;
}
);
metricLeft = o;
},
{
glyphname = s.ss04;
lastChange = "2017-03-25 20:11:42 +0000";
layers = (
{
anchors = (
{
name = bottom;
pos = (265,0);
},
{
name = top;
pos = (265,500);
}
);
layerId = "65DE19D7-C0F2-4D8D-9C1D-34999E633ECA";
shapes = (
{
closed = 1;
nodes = (
(175,400,l),
(435,400,l),
(435,500,l),
(215,500,ls),
(115,500,o),
(55,440,o),
(55,360,cs),
(55,260,o),
(116,200,o),
(235,200,cs),
(295,200,ls),
(334,200,o),
(355,180,o),
(355,140,cs),
(355,100,l),
(75,100,l),
(75,0,l),
(315,0,ls),
(415,0,o),
(475,60,o),
(475,140,cs),
(475,240,o),
(414,300,o),
(295,300,cs),
(235,300,ls),
(195,300,o),
(175,320,o),
(175,360,cs)
);
}
);
width = 530;
},
{
layerId = "FCEAB5BF-AFE7-45BC-83DB-D0DE89866BD6";
width = 600;
}
);
},
{
glyphname = x.ss05;
lastChange = "2017-03-25 20:11:42 +0000";
layers = (
{
layerId = "65DE19D7-C0F2-4D8D-9C1D-34999E633ECA";
shapes = (
{
closed = 1;
nodes = (
(462,0,l),
(462,100,l),
(314,100,l),
(373,53,l),
(259,424,ls),
(242,479,o),
(205,500,o),
(153,500,cs),
(20,500,l),
(20,400,l),
(194,400,l),
(138,424,l),
(245,67,ls),
(259,21,o),
(290,0,o),
(340,0,cs)
);
},
{
closed = 1;
nodes = (
(260,400,l),
(437,400,l),
(490,480,l),
(490,500,l),
(314,500,l),
(260,420,l)
);
},
{
closed = 1;
nodes = (
(0,0,l),
(187,0,l),
(240,80,l),
(240,100,l),
(54,100,l),
(0,20,l)
);
}
);
width = 483;
},
{
layerId = "FCEAB5BF-AFE7-45BC-83DB-D0DE89866BD6";
width = 600;
}
);
},
{
glyphname = b.ss20;
lastChange = "2017-03-25 20:11:42 +0000";
layers = (
{
layerId = "65DE19D7-C0F2-4D8D-9C1D-34999E633ECA";
shapes = (
{
closed = 1;
nodes = (
(65,159,ls,{
name = hr00;
}),
(65,46,o),
(139,-5,o),
(283,-5,cs),
(340,-5,o),
(379,-1,o),
(410,10,cs),
(477,33,o),
(505,85,o),
(505,142,cs),
(505,340,ls),
(505,453,o),
(428,504,o),
(310,504,cs),
(286,504,o),
(255,502,o),
(238,500,c),
(183,417,l),
(183,400,l),
(212,402,o),
(255,404,o),
(301,404,cs),
(365,404,o),
(385,380,o),
(385,340,cs),
(385,99,l),
(352,96,o),
(320,95,o),
(293,95,cs),
(253,95,o),
(222,98,o),
(203,113,cs),
(190,124,o),
(185,140,o),
(185,160,cs),
(185,700,l),
(65,700,l)
);
}
);
width = 565;
},
{
layerId = "FCEAB5BF-AFE7-45BC-83DB-D0DE89866BD6";
width = 600;
}
);
metricLeft = l;
metricRight = o;
},
{
glyphname = c.ss20;
lastChange = "2017-03-25 20:11:42 +0000";
layers = (
{
layerId = "65DE19D7-C0F2-4D8D-9C1D-34999E633ECA";
shapes = (
{
closed = 1;
nodes = (
(274,-5,cs,{
name = hr00;
}),
(315,-5,o),
(354,-1,o),
(385,10,cs),
(452,33,o),
(480,85,o),
(480,142,cs),
(480,160,l),
(360,160,l),
(360,99,l),
(327,96,o),
(297,95,o),
(278,95,cs),
(229,95,o),
(208,102,o),
(195,115,cs),
(183,127,o),
(180,144,o),
(180,160,cs),
(180,401,l),
(213,404,o),
(243,405,o),
(262,405,cs),
(294,405,o),
(323,402,o),
(342,387,cs),
(355,376,o),
(360,360,o),
(360,339,c),
(480,339,l),
(479,390,o),
(466,431,o),
(432,460,cs),
(397,490,o),
(345,505,o),
(264,505,cs),
(223,505,o),
(186,501,o),
(155,490,cs),
(88,467,o),
(60,415,o),
(60,358,cs),
(60,160,ls),
(60,115,o),
(72,77,o),
(99,49,cs),
(134,13,o),
(186,-5,o)
);
}
);
width = 540;
},
{
layerId = "FCEAB5BF-AFE7-45BC-83DB-D0DE89866BD6";
width = 600;
}
);
metricLeft = o;
metricRight = c;
},
{
glyphname = d.ss20;
lastChange = "2017-03-25 20:11:42 +0000";
layers = (
{
layerId = "65DE19D7-C0F2-4D8D-9C1D-34999E633ECA";
shapes = (
{
closed = 1;
nodes = (
(500,700,l,{
name = hr00;
}),
(380,700,l),
(380,0,l),
(500,0,l)
);
},
{
closed = 1;
nodes = (
(325,503,l),
(313,504,o),
(292,505,o),
(274,505,cs),
(225,505,o),
(186,501,o),
(155,490,cs),
(88,467,o),
(60,415,o),
(60,358,cs),
(60,160,ls),
(60,47,o),
(137,-4,o),
(255,-4,cs),
(279,-4,o),
(310,-2,o),
(327,0,c),
(382,83,l),
(382,100,l),
(353,98,o),
(310,96,o),
(264,96,cs),
(200,96,o),
(180,120,o),
(180,160,cs),
(180,401,l),
(213,404,o),
(245,405,o),
(272,405,cs),
(312,405,o),
(343,402,o),
(362,387,cs),
(375,376,o),
(380,360,o),
(380,340,c),
(390,404,l)
);
}
);
width = 570;
},
{
layerId = "FCEAB5BF-AFE7-45BC-83DB-D0DE89866BD6";
width = 600;
}
);
metricLeft = o;
metricRight = "=|n";
},
{
glyphname = e.ss20;
lastChange = "2017-03-25 20:11:42 +0000";
layers = (
{
guides = (
{
angle = 90;
pos = (274,0);
}
);
layerId = "65DE19D7-C0F2-4D8D-9C1D-34999E633ECA";
shapes = (
{
closed = 1;
nodes = (
(460,80,l,{
name = hr00;
}),
(460,99,l),
(396,96,o),
(338,95,o),
(307,95,cs),
(235,95,o),
(209,101,o),
(195,115,cs),
(183,127,o),
(180,144,o),
(180,160,cs),
(180,202,l),
(500,202,l),
(500,336,ls),
(500,388,o),
(487,430,o),
(452,460,cs),
(417,490,o),
(363,505,o),
(274,505,cs),
(225,505,o),
(186,501,o),
(155,490,cs),
(88,467,o),
(60,415,o),
(60,358,cs),
(60,160,ls),
(60,115,o),
(72,77,o),
(99,49,cs),
(134,13,o),
(188,-5,o),
(284,-5,cs),
(322,-5,o),
(369,-3,o),
(407,0,c)
);
},
{
closed = 1;
nodes = (
(180,401,l),
(213,404,o),
(245,405,o),
(272,405,cs),
(312,405,o),
(343,402,o),
(362,387,cs),
(375,376,o),
(380,360,o),
(380,340,cs),
(380,298,l),
(180,298,l)
);
}
);
width = 560;
},
{
layerId = "FCEAB5BF-AFE7-45BC-83DB-D0DE89866BD6";
width = 600;
}
);
metricLeft = o;
metricRight = e;
},
{
glyphname = f.ss20;
lastChange = "2017-03-25 20:11:42 +0000";
layers = (
{
layerId = "65DE19D7-C0F2-4D8D-9C1D-34999E633ECA";
shapes = (
{
closed = 1;
nodes = (
(100,0,l,{
name = hr00;
}),
(220,0,l),
(220,601,l),
(251,605,o),
(285,605,o),
(320,604,c),
(320,703,l),
(268,706,o),
(226,701,o),
(195,690,cs),
(128,667,o),
(100,615,o),
(100,558,cs)
);
},
{
closed = 1;
nodes = (
(20,400,l),
(320,400,l),
(320,500,l),
(20,500,l)
);
}
);
width = 350;
},
{
layerId = "FCEAB5BF-AFE7-45BC-83DB-D0DE89866BD6";
width = 600;
}
);
metricLeft = f;
metricRight = f;
},
{
glyphname = g.ss20;
lastChange = "2017-03-25 20:11:42 +0000";
layers = (
{
guides = (
{
pos = (0,-60);
},
{
pos = (0,-140);
},
{
angle = 90;
pos = (340,0);
},
{
angle = 90;
pos = (440,0);
}
);
layerId = "65DE19D7-C0F2-4D8D-9C1D-34999E633ECA";
shapes = (
{
closed = 1;
nodes = (
(325,503,l,{
name = hr00;
}),
(313,504,o),
(292,505,o),
(274,505,cs),
(225,505,o),
(186,501,o),
(155,490,cs),
(88,467,o),
(60,415,o),
(60,358,cs),
(60,160,ls),
(60,47,o),
(137,-4,o),
(255,-4,cs),
(279,-4,o),
(310,-2,o),
(327,0,c),
(382,83,l),
(382,100,l),
(353,98,o),
(310,96,o),
(264,96,cs),
(200,96,o),
(180,120,o),
(180,160,cs),
(180,401,l),
(213,404,o),
(245,405,o),
(272,405,cs),
(312,405,o),
(343,402,o),
(362,387,cs),
(375,376,o),
(380,360,o),
(380,340,c),
(390,404,l)
);
},
{
closed = 1;
nodes = (
(380,-101,l),
(340,-104,o),
(303,-105,o),
(262,-105,cs),
(220,-105,o),
(175,-104,o),
(120,-101,c),
(120,-120,l),
(173,-200,l),
(208,-203,o),
(255,-205,o),
(295,-205,cs),
(376,-205,o),
(429,-189,o),
(462,-156,cs),
(487,-131,o),
(500,-99,o),
(500,-60,cs),
(500,500,l),
(380,500,l)
);
}
);
width = 570;
},
{
layerId = "FCEAB5BF-AFE7-45BC-83DB-D0DE89866BD6";
width = 600;
}
);
metricLeft = o;
metricRight = "=|n";
},
{
glyphname = h.ss20;
lastChange = "2017-03-25 20:11:42 +0000";
layers = (
{
layerId = "65DE19D7-C0F2-4D8D-9C1D-34999E633ECA";
shapes = (
{
closed = 1;
nodes = (
(70,0,l,{
name = hr00;
}),
(190,0,l),
(190,700,l),
(70,700,l)
);
},
{
closed = 1;
nodes = (
(390,0,l),
(510,0,l),
(510,340,ls),
(510,453,o),
(433,504,o),
(315,504,cs),
(291,504,o),
(260,502,o),
(243,500,c),
(188,417,l),
(188,400,l),
(217,402,o),
(260,404,o),
(306,404,cs),
(370,404,o),
(390,380,o),
(390,340,cs)
);
}
);
width = 575;
},
{
layerId = "FCEAB5BF-AFE7-45BC-83DB-D0DE89866BD6";
width = 600;
}
);
metricLeft = h;
metricRight = n;
},
{
glyphname = l.ss20;
lastChange = "2017-03-25 20:11:42 +0000";
layers = (
{
layerId = "65DE19D7-C0F2-4D8D-9C1D-34999E633ECA";
shapes = (
{
closed = 1;
nodes = (
(65,157,ls,{
name = hr00;
}),
(65,57,o),
(127,-5,o),
(229,-5,cs),
(245,-5,o),
(257,-4,o),
(265,-3,c),
(265,95,l),
(251,95,ls),
(204,95,o),
(185,117,o),
(185,157,cs),
(185,700,l),
(65,700,l)
);
}
);
width = 305;
},
{
layerId = "FCEAB5BF-AFE7-45BC-83DB-D0DE89866BD6";
width = 600;
}
);
metricLeft = l;
metricRight = l;
},
{
glyphname = m.ss20;
lastChange = "2017-03-25 20:11:42 +0000";
layers = (
{
guides = (
{
pos = (0,402);
},
{
pos = (0,424);
}
);
layerId = "65DE19D7-C0F2-4D8D-9C1D-34999E633ECA";
shapes = (
{
closed = 1;
nodes = (
(70,0,l,{
name = hr00;
}),
(190,0,l),
(190,500,l),
(70,500,l)
);
},
{
closed = 1;
nodes = (
(345,0,l),
(465,0,l),
(465,340,ls),
(465,453,o),
(386,503,o),
(281,503,cs),
(267,503,o),
(251,502,o),
(241,500,c),
(185,417,l),
(185,402,l),
(200,403,o),
(223,404,o),
(246,404,cs),
(330,404,o),
(345,380,o),
(345,340,cs)
);
},
{
closed = 1;
nodes = (
(620,0,l),
(740,0,l),
(740,340,ls),
(740,453,o),
(661,503,o),
(552,503,cs),
(534,503,o),
(510,501,o),
(496,498,c),
(441,416,l),
(441,398,l),
(464,401,o),
(502,403,o),
(528,403,cs),
(605,403,o),
(620,380,o),
(620,340,cs)
);
}
);
width = 805;
},
{
layerId = "FCEAB5BF-AFE7-45BC-83DB-D0DE89866BD6";
width = 600;
}
);
metricLeft = n;
metricRight = n;
},
{
glyphname = n.ss20;
lastChange = "2017-03-25 20:11:42 +0000";
layers = (
{
layerId = "65DE19D7-C0F2-4D8D-9C1D-34999E633ECA";
shapes = (
{
closed = 1;
nodes = (
(390,0,l,{
name = hr00;
}),
(510,0,l),
(510,340,ls),
(510,453,o),
(433,504,o),
(315,504,cs),
(291,504,o),
(260,502,o),
(243,500,c),
(188,417,l),
(188,400,l),
(217,402,o),
(260,404,o),
(306,404,cs),
(370,404,o),
(390,380,o),
(390,340,cs)
);
},
{
closed = 1;
nodes = (
(70,0,l),
(190,0,l),
(190,500,l),
(70,500,l)
);
}
);
width = 575;
},
{
layerId = "FCEAB5BF-AFE7-45BC-83DB-D0DE89866BD6";
width = 600;
}
);
metricLeft = n;
metricRight = n;
},
{
glyphname = o.ss20;
lastChange = "2017-03-25 20:11:42 +0000";
layers = (
{
anchors = (
{
name = top;
pos = (290,500);
}
);
guides = (
{
pos = (0,340);
},
{
angle = 90;
pos = (290,0);
}
);
layerId = "65DE19D7-C0F2-4D8D-9C1D-34999E633ECA";
shapes = (
{
closed = 1;
nodes = (
(520,336,ls,{
name = hr00;
}),
(520,388,o),
(507,430,o),
(472,460,cs),
(437,490,o),
(381,505,o),
(284,505,cs),
(227,505,o),
(186,501,o),
(155,490,cs),
(88,467,o),
(60,415,o),
(60,358,cs),
(60,164,ls),
(60,112,o),
(73,70,o),
(108,40,cs),
(143,10,o),
(199,-5,o),
(296,-5,cs),
(353,-5,o),
(394,-1,o),
(425,10,cs),
(492,33,o),
(520,85,o),
(520,142,cs)
);
},
{
closed = 1;
nodes = (
(180,401,l),
(213,404,o),
(247,405,o),
(282,405,cs),
(330,405,o),
(363,402,o),
(382,387,cs),
(395,376,o),
(400,360,o),
(400,340,cs),
(400,99,l),
(367,96,o),
(333,95,o),
(298,95,cs),
(250,95,o),
(217,98,o),
(198,113,cs),
(185,124,o),
(180,140,o),
(180,160,cs)
);
}
);
width = 580;
},
{
layerId = "FCEAB5BF-AFE7-45BC-83DB-D0DE89866BD6";
width = 600;
}
);
metricLeft = o;
metricRight = o;
},
{
glyphname = oe.ss20;
lastChange = "2017-03-25 20:11:42 +0000";
layers = (
{
layerId = "65DE19D7-C0F2-4D8D-9C1D-34999E633ECA";
shapes = (
{
closed = 1;
nodes = (
(730,80,l,{
name = hr00;
}),
(730,99,l),
(674,96,o),
(623,95,o),
(592,95,cs),
(528,95,o),
(508,103,o),
(495,115,cs),
(483,127,o),
(480,144,o),
(480,160,cs),
(480,202,l),
(770,202,l),
(770,336,ls),
(770,388,o),
(757,430,o),
(722,460,cs),
(690,487,o),
(642,505,o),
(559,505,cs),
(521,505,o),
(485,501,o),
(455,490,cs),
(441,484,o),
(428,478,o),
(417,471,c),
(385,492,o),
(337,505,o),
(264,505,cs),
(222,505,o),
(182,499,o),
(155,490,cs),
(88,468,o),
(60,415,o),
(60,358,cs),
(60,164,ls),
(60,112,o),
(73,70,o),
(108,40,cs),
(142,11,o),
(195,-5,o),
(271,-5,cs),
(318,-5,o),
(354,-1,o),
(385,10,cs),
(399,15,o),
(411,21,o),
(422,29,c),
(454,7,o),
(497,-5,o),
(569,-5,cs),
(603,-5,o),
(643,-3,o),
(677,0,c)
);
},
{
closed = 1;
nodes = (
(180,401,l),
(200,403,o),
(235,405,o),
(262,405,cs),
(299,405,o),
(326,400,o),
(342,387,cs),
(355,376,o),
(360,360,o),
(360,340,cs),
(360,99,l),
(334,96,o),
(304,95,o),
(278,95,cs),
(242,95,o),
(215,99,o),
(198,113,cs),
(185,124,o),
(180,140,o),
(180,160,cs)
);
},
{
closed = 1;
nodes = (
(480,401,l),
(499,404,o),
(527,405,o),
(557,405,cs),
(592,405,o),
(617,399,o),
(632,387,cs),
(645,376,o),
(650,360,o),
(650,340,cs),
(650,298,l),
(480,298,l)
);
}
);
width = 830;
},
{
layerId = "FCEAB5BF-AFE7-45BC-83DB-D0DE89866BD6";
width = 600;
}
);
metricLeft = o;
metricRight = e;
},
{
glyphname = p.ss20;
lastChange = "2017-03-25 20:11:42 +0000";
layers = (
{
layerId = "65DE19D7-C0F2-4D8D-9C1D-34999E633ECA";
shapes = (
{
closed = 1;
nodes = (
(70,-200,l,{
name = hr00;
}),
(190,-200,l),
(190,500,l),
(70,500,l)
);
},
{
closed = 1;
nodes = (
(245,-3,l),
(257,-4,o),
(278,-5,o),
(296,-5,cs),
(345,-5,o),
(384,-1,o),
(415,10,cs),
(482,33,o),
(510,85,o),
(510,142,cs),
(510,340,ls),
(510,453,o),
(433,504,o),
(315,504,cs),
(291,504,o),
(260,502,o),
(243,500,c),
(188,417,l),
(188,400,l),
(217,402,o),
(260,404,o),
(306,404,cs),
(370,404,o),
(390,380,o),
(390,340,cs),
(390,99,l),
(357,96,o),
(325,95,o),
(298,95,cs),
(258,95,o),
(227,98,o),
(208,113,cs),
(195,124,o),
(190,140,o),
(190,160,c),
(180,96,l)
);
}
);
width = 570;
},
{
layerId = "FCEAB5BF-AFE7-45BC-83DB-D0DE89866BD6";
width = 600;
}
);
metricLeft = h;
metricRight = o;
},
{
glyphname = q.ss20;
lastChange = "2017-03-25 20:11:42 +0000";
layers = (
{
layerId = "65DE19D7-C0F2-4D8D-9C1D-34999E633ECA";
shapes = (
{
closed = 1;
nodes = (
(325,502,l,{
name = hr00;
}),
(313,503,o),
(292,504,o),
(274,504,cs),
(225,504,o),
(186,500,o),
(155,489,cs),
(88,466,o),
(60,414,o),
(60,357,cs),
(60,159,ls),
(60,46,o),
(137,-5,o),
(255,-5,cs),
(279,-5,o),
(310,-3,o),
(327,-1,c),
(382,82,l),
(382,99,l),
(353,97,o),
(310,95,o),
(264,95,cs),
(200,95,o),
(180,119,o),
(180,159,cs),
(180,400,l),
(213,403,o),
(245,404,o),
(272,404,cs),
(312,404,o),
(343,401,o),
(362,386,cs),
(375,375,o),
(380,359,o),
(380,339,c),
(390,403,l)
);
},
{
closed = 1;
nodes = (
(380,-200,l),
(500,-200,l),
(500,500,l),
(380,500,l)
);
}
);
width = 570;
},
{
layerId = "FCEAB5BF-AFE7-45BC-83DB-D0DE89866BD6";
width = 600;
}
);
metricLeft = o;
metricRight = "=|n";
},
{
glyphname = s.ss20;
lastChange = "2017-03-25 20:11:42 +0000";
layers = (
{
layerId = "65DE19D7-C0F2-4D8D-9C1D-34999E633ECA";
shapes = (
{
closed = 1;
nodes = (
(285,-5,cs,{
name = hr00;
}),
(334,-5,o),
(374,-1,o),
(405,10,cs),
(472,33,o),
(500,85,o),
(500,142,cs),
(500,184,o),
(488,223,o),
(461,251,cs),
(426,287,o),
(388,298,o),
(284,301,cs),
(233,302,o),
(206,305,o),
(195,316,cs),
(183,328,o),
(180,345,o),
(180,361,cs),
(180,401,l),
(213,404,o),
(245,405,o),
(272,405,cs),
(312,405,o),
(343,402,o),
(362,387,cs),
(370,380,o),
(375,371,o),
(378,360,c),
(499,360,l),
(495,401,o),
(480,436,o),
(452,460,cs),
(417,490,o),
(363,505,o),
(274,505,cs),
(225,505,o),
(186,501,o),
(155,490,cs),
(88,467,o),
(60,415,o),
(60,358,cs),
(60,316,o),
(72,277,o),
(99,249,cs),
(134,213,o),
(173,202,o),
(276,199,cs),
(327,198,o),
(354,195,o),
(365,184,cs),
(377,172,o),
(380,155,o),
(380,139,cs),
(380,97,l),
(350,96,o),
(324,95,o),
(307,95,cs),
(235,95,o),
(209,101,o),
(195,115,cs),
(188,122,o),
(184,131,o),
(182,140,c),
(61,140,l),
(64,104,o),
(76,73,o),
(99,49,cs),
(134,13,o),
(189,-5,o)
);
}
);
width = 560;
},
{
layerId = "FCEAB5BF-AFE7-45BC-83DB-D0DE89866BD6";
width = 600;
}
);
metricLeft = s;
metricRight = s;
},
{
glyphname = t.ss20;
lastChange = "2017-03-25 20:11:42 +0000";
layers = (
{
layerId = "65DE19D7-C0F2-4D8D-9C1D-34999E633ECA";
shapes = (
{
closed = 1;
nodes = (
(105,580,l,{
name = hr00;
}),
(105,500,l),
(20,500,l),
(20,400,l),
(100,400,l),
(100,157,ls),
(100,57,o),
(163,-5,o),
(276,-5,cs),
(289,-5,o),
(303,-5,o),
(320,-3,c),
(320,95,l),
(286,95,ls),
(239,95,o),
(220,117,o),
(220,157,cs),
(220,400,l),
(320,400,l),
(320,500,l),
(220,500,l),
(220,660,l),
(159,660,l)
);
}
);
width = 370;
},
{
layerId = "FCEAB5BF-AFE7-45BC-83DB-D0DE89866BD6";
width = 600;
}
);
metricLeft = t;
metricRight = t;
},
{
glyphname = u.ss20;
lastChange = "2017-03-25 20:11:42 +0000";
layers = (
{
layerId = "65DE19D7-C0F2-4D8D-9C1D-34999E633ECA";
shapes = (
{
closed = 1;
nodes = (
(185,500,l,{
name = hr00;
}),
(65,500,l),
(65,160,ls),
(65,47,o),
(142,-4,o),
(260,-4,cs),
(284,-4,o),
(315,-2,o),
(332,0,c),
(387,83,l),
(387,100,l),
(358,98,o),
(315,96,o),
(269,96,cs),
(205,96,o),
(185,120,o),
(185,160,c)
);
},
{
closed = 1;
nodes = (
(385,0,l),
(505,0,l),
(505,500,l),
(385,500,l)
);
}
);
width = 575;
},
{
layerId = "FCEAB5BF-AFE7-45BC-83DB-D0DE89866BD6";
width = 600;
}
);
metricLeft = "=|n";
metricRight = "=|n";
},
{
glyphname = y.ss20;
lastChange = "2017-03-25 20:11:42 +0000";
layers = (
{
layerId = "65DE19D7-C0F2-4D8D-9C1D-34999E633ECA";
shapes = (
{
closed = 1;
nodes = (
(185,500,l,{
name = hr00;
}),
(65,500,l),
(65,180,ls),
(65,67,o),
(142,16,o),
(260,16,cs),
(284,16,o),
(315,18,o),
(332,20,c),
(387,103,l),
(387,120,l),
(358,118,o),
(315,116,o),
(269,116,cs),
(205,116,o),
(185,140,o),
(185,180,cs)
);
},
{
closed = 1;
nodes = (
(385,-101,l),
(346,-104,o),
(307,-105,o),
(271,-105,cs),
(241,-105,o),
(191,-103,o),
(145,-101,c),
(145,-120,l),
(198,-200,l),
(233,-203,o),
(276,-205,o),
(310,-205,cs),
(382,-205,o),
(434,-189,o),
(467,-156,cs),
(492,-131,o),
(505,-99,o),
(505,-60,cs),
(505,500,l),
(385,500,l)
);
}
);
width = 575;
},
{
layerId = "FCEAB5BF-AFE7-45BC-83DB-D0DE89866BD6";
width = 600;
}
);
metricLeft = "=|n";
metricRight = "=|n";
},
{
color = 11;
glyphname = longs_t;
kernLeft = i;
lastChange = "2022-06-04 12:37:03 +0000";
layers = (
{
anchors = (
{
name = caret_1;
pos = (300,0);
}
);
layerId = "65DE19D7-C0F2-4D8D-9C1D-34999E633ECA";
shapes = (
{
closed = 1;
nodes = (
(190,600,l,{
name = hr00;
}),
(295,600,ls),
(332,600,o),
(355,582,o),
(355,546,cs),
(355,500,l),
(270,500,l),
(270,400,l),
(350,400,l),
(350,157,ls),
(350,57,o),
(411,-3,o),
(530,-3,cs),
(570,-3,l),
(570,97,l),
(530,97,ls),
(491,97,o),
(470,117,o),
(470,157,cs),
(470,400,l),
(570,400,l),
(570,500,l),
(470,500,l),
(470,540,ls),
(470,640,o),
(409,700,o),
(290,700,cs),
(230,700,ls),
(130,700,o),
(70,640,o),
(70,560,cs),
(70,0,l),
(190,0,l)
);
}
);
width = 620;
},
{
anchors = (
{
name = caret_1;
pos = (290,0);
}
);
guides = (
{
pos = (-10,540);
},
{
angle = 90;
pos = (339,0);
}
);
layerId = "FCEAB5BF-AFE7-45BC-83DB-D0DE89866BD6";
shapes = (
{
closed = 1;
nodes = (
(120,650,l,{
name = hr00;
}),
(225,650,ls),
(305,650,o),
(345,613,o),
(345,540,cs),
(345,500,l),
(260,500,l),
(260,450,l),
(340,450,l),
(340,157,ls),
(340,57,o),
(401,-3,o),
(520,-3,cs),
(560,-3,l),
(560,47,l),
(520,47,ls),
(440,47,o),
(400,84,o),
(400,157,cs),
(400,450,l),
(560,450,l),
(560,500,l),
(400,500,l),
(400,540,ls),
(400,640,o),
(339,700,o),
(221,700,cs),
(219,700,ls),
(120,700,o),
(60,640,o),
(60,560,cs),
(60,0,l),
(120,0,l)
);
}
);
width = 610;
}
);
metricLeft = h;
metricRight = t;
userData = {
com.typemytype.robofont.mark = (
0.6,
0.704,
1,
1
);
};
},
{
color = 11;
glyphname = longs_longs;
kernLeft = i;
lastChange = "2022-06-04 12:40:16 +0000";
layers = (
{
layerId = "65DE19D7-C0F2-4D8D-9C1D-34999E633ECA";
shapes = (
{
closed = 1;
nodes = (
(190,0,l),
(190,580,l,{
name = hr00;
}),
(321,580,l),
(320,573,o),
(320,567,o),
(320,560,cs),
(320,0,l),
(440,0,l),
(440,600,l),
(540,600,l),
(540,700,l),
(480,700,ls),
(429,700,o),
(389,685,o),
(362,659,c),
(335,673,o),
(301,680,o),
(260,680,cs),
(230,680,ls),
(130,680,o),
(70,620,o),
(70,540,cs),
(70,0,l)
);
}
);
width = 530;
},
{
background = {
shapes = (
{
closed = 1;
nodes = (
(120,0,l),
(120,630,l,{
name = hr00;
}),
(328,630,l),
(316,610,o),
(310,586,o),
(310,560,cs),
(310,0,l),
(370,0,l),
(370,650,l),
(530,650,l),
(530,700,l),
(470,700,ls),
(409,700,o),
(362,677,o),
(336,641,c),
(309,664,o),
(271,679,o),
(223,680,c),
(220,680,ls),
(120,680,o),
(60,620,o),
(60,540,cs),
(60,0,l)
);
}
);
};
guides = (
{
pos = (-10,620);
},
{
angle = 90;
pos = (320,0);
}
);
layerId = "FCEAB5BF-AFE7-45BC-83DB-D0DE89866BD6";
shapes = (
{
closed = 1;
nodes = (
(120,0,l),
(120,630,l,{
name = hr00;
}),
(328,630,l),
(316,610,o),
(310,586,o),
(310,560,cs),
(310,0,l),
(370,0,l),
(370,650,l),
(530,650,l),
(530,700,l),
(470,700,ls),
(409,700,o),
(362,677,o),
(336,641,c),
(311,663,o),
(269,680,o),
(222,680,cs),
(220,680,ls),
(120,680,o),
(60,620,o),
(60,540,cs),
(60,0,l)
);
}
);
width = 520;
}
);
metricLeft = h;
metricRight = longs;
userData = {
com.typemytype.robofont.mark = (
0.6,
0.704,
1,
1
);
};
},
{
color = 4;
glyphname = pi;
lastChange = "2017-03-25 20:11:42 +0000";
layers = (
{
layerId = "65DE19D7-C0F2-4D8D-9C1D-34999E633ECA";
shapes = (
{
closed = 1;
nodes = (
(0,500,l,{
name = hr00;
}),
(0,400,l),
(100,400,l),
(100,0,l),
(220,0,l),
(220,400,l),
(380,400,l),
(380,157,ls),
(380,57,o),
(441,-3,o),
(560,-3,cs),
(580,-3,l),
(580,97,l),
(560,97,ls),
(521,97,o),
(500,117,o),
(500,157,cs),
(500,400,l),
(610,400,l),
(610,500,l)
);
}
);
width = 650;
},
{
layerId = "FCEAB5BF-AFE7-45BC-83DB-D0DE89866BD6";
width = 600;
}
);
unicode = 960;
userData = {
com.typemytype.robofont.mark = (
0.656,
1,
0.6,
1
);
};
},
{
color = 9;
glyphname = "hamza-ar";
lastChange = "2019-05-17 23:32:30 +0000";
layers = (
{
background = {
shapes = (
{
closed = 1;
nodes = (
(351,69,l),
(255,69,ls),
(237,69,o),
(224,87,qs),
(212,104,o),
(212,123,qs),
(212,145,o),
(233,145,qs),
(351,145,l),
(351,215,l),
(192,215,ls),
(159,215,o),
(116,169,o),
(116,136,qs),
(116,89,o),
(159,69,q),
(98,69,l),
(98,-1,l),
(351,-1,l)
);
}
);
};
layerId = "65DE19D7-C0F2-4D8D-9C1D-34999E633ECA";
shapes = (
{
closed = 1;
nodes = (
(175,191,l),
(474,191,l),
(474,266,l),
(175,266,l)
);
},
{
closed = 1;
nodes = (
(236,250,l),
(274,250,l),
(274,382,l),
(236,382,l)
);
},
{
closed = 1;
nodes = (
(229,359,l),
(454,359,l),
(454,437,l),
(229,437,l)
);
}
);
width = 600;
},
{
layerId = "FCEAB5BF-AFE7-45BC-83DB-D0DE89866BD6";
width = 600;
}
);
unicode = 1569;
},
{
color = 9;
glyphname = "alef-ar";
lastChange = "2019-05-17 23:32:30 +0000";
layers = (
{
anchors = (
{
name = bottom;
pos = (180,0);
},
{
name = top;
pos = (180,700);
}
);
background = {
shapes = (
{
closed = 1;
nodes = (
(250,666,l),
(217,643,o),
(183,620,q),
(150,591,o),
(150,552,qs),
(150,0,l),
(250,0,l)
);
}
);
};
layerId = "65DE19D7-C0F2-4D8D-9C1D-34999E633ECA";
shapes = (
{
closed = 1;
nodes = (
(120,0,l),
(240,0,l),
(240,700,l),
(120,700,l)
);
}
);
width = 360;
},
{
layerId = "FCEAB5BF-AFE7-45BC-83DB-D0DE89866BD6";
width = 600;
}
);
unicode = 1575;
},
{
color = 9;
glyphname = "alef-ar.fina";
lastChange = "2019-05-17 23:32:30 +0000";
layers = (
{
anchors = (
{
name = bottom;
pos = (180,0);
},
{
name = top;
pos = (180,700);
}
);
background = {
shapes = (
{
closed = 1;
nodes = (
(370,117,l),
(249,117,l),
(249,557,ls),
(249,596,o),
(216,623,q),
(183,645,o),
(149,666,q),
(149,0,l),
(370,0,l)
);
}
);
};
layerId = "65DE19D7-C0F2-4D8D-9C1D-34999E633ECA";
shapes = (
{
closed = 1;
nodes = (
(365,100,l),
(240,100,l),
(240,700,l),
(120,700,l),
(120,140,ls),
(120,60,o),
(180,0,o),
(280,0,cs),
(365,0,l)
);
}
);
width = 360;
},
{
layerId = "FCEAB5BF-AFE7-45BC-83DB-D0DE89866BD6";
width = 600;
}
);
unicode = 65166;
},
{
color = 2;
glyphname = "alef-ar.short";
lastChange = "2019-05-17 23:48:08 +0000";
layers = (
{
anchors = (
{
name = bottom;
pos = (180,0);
},
{
name = top;
pos = (180,600);
}
);
layerId = "65DE19D7-C0F2-4D8D-9C1D-34999E633ECA";
shapes = (
{
closed = 1;
nodes = (
(120,0,l),
(240,0,l),
(240,600,l),
(120,600,l)
);
}
);
width = 360;
},
{
layerId = "FCEAB5BF-AFE7-45BC-83DB-D0DE89866BD6";
width = 600;
}
);
},
{
color = 2;
glyphname = "alef-ar.fina.short";
lastChange = "2019-05-17 23:48:22 +0000";
layers = (
{
anchors = (
{
name = bottom;
pos = (180,0);
},
{
name = top;
pos = (180,600);
}
);
layerId = "65DE19D7-C0F2-4D8D-9C1D-34999E633ECA";
shapes = (
{
closed = 1;
nodes = (
(365,100,l),
(240,100,l),
(240,600,l),
(120,600,l),
(120,140,ls),
(120,60,o),
(180,0,o),
(280,0,cs),
(365,0,l)
);
}
);
width = 360;
},
{
layerId = "FCEAB5BF-AFE7-45BC-83DB-D0DE89866BD6";
width = 600;
}
);
},
{
color = 2;
glyphname = "alefHamzaabove-ar";
lastChange = "2019-05-17 23:48:33 +0000";
layers = (
{
background = {
shapes = (
{
closed = 1;
nodes = (
(258,581,l),
(202,581,ls),
(177,581,o),
(177,611,qs),
(177,625,o),
(189,625,qs),
(258,625,l),
(258,666,l),
(165,666,ls),
(121,666,o),
(121,620,qs),
(121,593,o),
(146,581,q),
(110,581,l),
(110,539,l),
(258,539,l)
);
},
{
closed = 1;
nodes = (
(254,489,l),
(154,489,l),
(154,0,l),
(254,0,l)
);
}
);
};
layerId = "65DE19D7-C0F2-4D8D-9C1D-34999E633ECA";
shapes = (
{
ref = "alef-ar.short";
},
{
pos = (-145,-100);
ref = "hamzaabove-ar";
}
);
width = 360;
},
{
layerId = "FCEAB5BF-AFE7-45BC-83DB-D0DE89866BD6";
width = 600;
}
);
unicode = 1571;
},
{
color = 2;
glyphname = "alefHamzaabove-ar.fina";
lastChange = "2019-05-17 23:48:31 +0000";
layers = (
{
background = {
shapes = (
{
closed = 1;
nodes = (
(258,581,l),
(202,581,ls),
(177,581,o),
(177,611,qs),
(177,625,o),
(189,625,qs),
(258,625,l),
(258,666,l),
(165,666,ls),
(121,666,o),
(121,620,qs),
(121,593,o),
(146,581,q),
(110,581,l),
(110,539,l),
(258,539,l)
);
},
{
closed = 1;
nodes = (
(370,117,l),
(249,117,l),
(249,489,l),
(149,489,l),
(149,0,l),
(370,0,l)
);
}
);
};
layerId = "65DE19D7-C0F2-4D8D-9C1D-34999E633ECA";
shapes = (
{
ref = "alef-ar.fina.short";
},
{
pos = (-145,-100);
ref = "hamzaabove-ar";
}
);
width = 360;
},
{
layerId = "FCEAB5BF-AFE7-45BC-83DB-D0DE89866BD6";
width = 600;
}
);
unicode = 65156;
},
{
color = 2;
glyphname = "alefHamzabelow-ar";
lastChange = "2019-05-17 23:32:30 +0000";
layers = (
{
background = {
shapes = (
{
closed = 1;
nodes = (
(300,666,l),
(267,643,o),
(233,620,q),
(200,591,o),
(200,552,qs),
(200,0,l),
(300,0,l)
);
},
{
closed = 1;
nodes = (
(256,-159,l),
(200,-159,ls),
(175,-159,o),
(175,-129,qs),
(175,-115,o),
(187,-115,qs),
(256,-115,l),
(256,-74,l),
(163,-74,ls),
(119,-74,o),
(119,-120,qs),
(119,-147,o),
(144,-159,q),
(108,-159,l),
(108,-201,l),
(256,-201,l)
);
}
);
};
layerId = "65DE19D7-C0F2-4D8D-9C1D-34999E633ECA";
shapes = (
{
ref = "alef-ar";
},
{
ref = "hamzabelow-ar";
}
);
width = 360;
},
{
layerId = "FCEAB5BF-AFE7-45BC-83DB-D0DE89866BD6";
width = 600;
}
);
unicode = 1573;
},
{
color = 2;
glyphname = "alefHamzabelow-ar.fina";
lastChange = "2019-05-17 23:32:30 +0000";
layers = (
{
background = {
shapes = (
{
closed = 1;
nodes = (
(370,117,l),
(249,117,l),
(249,557,ls),
(249,596,o),
(216,623,q),
(183,645,o),
(149,666,q),
(149,0,l),
(370,0,l)
);
},
{
closed = 1;
nodes = (
(288,-159,l),
(232,-159,ls),
(207,-159,o),
(207,-129,qs),
(207,-115,o),
(219,-115,qs),
(288,-115,l),
(288,-74,l),
(195,-74,ls),
(151,-74,o),
(151,-120,qs),
(151,-147,o),
(176,-159,q),
(140,-159,l),
(140,-201,l),
(288,-201,l)
);
}
);
};
layerId = "65DE19D7-C0F2-4D8D-9C1D-34999E633ECA";
shapes = (
{
ref = "alef-ar.fina";
},
{
ref = "hamzabelow-ar";
}
);
width = 360;
},
{
layerId = "FCEAB5BF-AFE7-45BC-83DB-D0DE89866BD6";
width = 600;
}
);
unicode = 65160;
},
{
color = 2;
glyphname = "alefMadda-ar.fina";
lastChange = "2019-05-17 23:32:30 +0000";
layers = (
{
background = {
shapes = (
{
closed = 1;
nodes = (
(295,653,l),
(263,634,o),
(227,634,qs),
(205,634,o),
(149,664,o),
(131,664,qs),
(96,664,o),
(65,646,q),
(65,600,l),
(97,614,o),
(131,614,qs),
(146,614,o),
(202,589,o),
(217,589,qs),
(259,589,o),
(295,607,q)
);
},
{
closed = 1;
nodes = (
(420,117,l),
(249,117,l),
(249,549,l),
(149,549,l),
(149,0,l),
(420,0,l)
);
}
);
};
layerId = "65DE19D7-C0F2-4D8D-9C1D-34999E633ECA";
shapes = (
{
ref = "alef-ar.fina.short";
},
{
ref = "madda-ar";
}
);
width = 360;
},
{
layerId = "FCEAB5BF-AFE7-45BC-83DB-D0DE89866BD6";
width = 600;
}
);
unicode = 65154;
},
{
color = 9;
glyphname = "behDotless-ar.medi";
lastChange = "2019-05-17 23:38:38 +0000";
layers = (
{
anchors = (
{
name = bottom;
pos = (240,0);
},
{
name = ring;
},
{
name = top;
pos = (240,399);
}
);
background = {
shapes = (
{
closed = 1;
nodes = (
(266,-148,cs),
(266,-183,o),
(295,-212,o),
(330,-212,cs),
(365,-212,o),
(394,-183,o),
(394,-148,cs),
(394,-113,o),
(365,-84,o),
(330,-84,cs),
(295,-84,o),
(266,-113,o)
);
},
{
closed = 1;
nodes = (
(86,-148,cs),
(86,-183,o),
(115,-212,o),
(150,-212,cs),
(185,-212,o),
(214,-183,o),
(214,-148,cs),
(214,-113,o),
(185,-84,o),
(150,-84,cs),
(115,-84,o),
(86,-113,o)
);
}
);
};
guides = (
{
angle = 90;
pos = (300,0);
}
);
layerId = "65DE19D7-C0F2-4D8D-9C1D-34999E633ECA";
shapes = (
{
ref = "behDotless-ar.init";
},
{
pos = (60,0);
ref = arab.003;
}
);
width = 420;
},
{
layerId = "FCEAB5BF-AFE7-45BC-83DB-D0DE89866BD6";
width = 600;
}
);
},
{
color = 9;
glyphname = "behDotless-ar.init";
lastChange = "2019-05-17 23:38:11 +0000";
layers = (
{
anchors = (
{
name = bottom;
pos = (150,0);
},
{
name = init;
pos = (240,100);
},
{
name = ring;
},
{
name = top;
pos = (240,399);
}
);
background = {
shapes = (
{
closed = 1;
nodes = (
(176,-148,cs),
(176,-183,o),
(205,-212,o),
(240,-212,cs),
(275,-212,o),
(304,-183,o),
(304,-148,cs),
(304,-113,o),
(275,-84,o),
(240,-84,cs),
(205,-84,o),
(176,-113,o)
);
},
{
closed = 1;
nodes = (
(-4,-148,cs),
(-4,-183,o),
(25,-212,o),
(60,-212,cs),
(95,-212,o),
(124,-183,o),
(124,-148,cs),
(124,-113,o),
(95,-84,o),
(60,-84,cs),
(25,-84,o),
(-4,-113,o)
);
}
);
};
layerId = "65DE19D7-C0F2-4D8D-9C1D-34999E633ECA";
shapes = (
{
closed = 1;
nodes = (
(120,0,ls),
(239,0,o),
(300,60,o),
(300,160,cs),
(300,399,l),
(180,399,l),
(180,160,ls),
(180,120,o),
(159,100,o),
(120,100,cs),
(-5,100,l),
(-5,0,l)
);
}
);
width = 420;
},
{
layerId = "FCEAB5BF-AFE7-45BC-83DB-D0DE89866BD6";
width = 600;
}
);
},
{
color = 2;
glyphname = "beh-ar";
lastChange = "2019-05-17 23:32:30 +0000";
layers = (
{
background = {
shapes = (
{
closed = 1;
nodes = (
(600,300,l),
(564,273,o),
(528,246,q),
(507,228,o),
(503,204,qs),
(500,188,o),
(500,117,q),
(170,117,l),
(170,237,l),
(108,191,ls),
(85,174,o),
(79,163,qs),
(70,149,o),
(70,124,qs),
(70,50,ls),
(70,32,o),
(105,0,o),
(124,0,qs),
(546,0,ls),
(564,0,o),
(600,32,o),
(600,50,qs)
);
},
{
closed = 1;
nodes = (
(385,-128,o),
(357,-100,o),
(335,-100,qs),
(313,-100,o),
(285,-128,o),
(285,-150,qs),
(285,-172,o),
(313,-200,o),
(335,-200,qs),
(357,-200,o),
(385,-172,o),
(385,-150,qs)
);
}
);
};
layerId = "65DE19D7-C0F2-4D8D-9C1D-34999E633ECA";
shapes = (
{
ref = "behDotless-ar";
},
{
ref = "dotbelow-ar";
}
);
width = 600;
},
{
layerId = "FCEAB5BF-AFE7-45BC-83DB-D0DE89866BD6";
width = 600;
}
);
unicode = 1576;
},
{
color = 2;
glyphname = "beh-ar.fina";
lastChange = "2019-05-17 23:32:30 +0000";
layers = (
{
background = {
shapes = (
{
closed = 1;
nodes = (
(670,117,l),
(600,117,l),
(600,300,l),
(564,273,o),
(528,246,q),
(507,228,o),
(503,204,qs),
(500,188,o),
(500,117,q),
(170,117,l),
(170,237,l),
(108,191,ls),
(85,174,o),
(79,163,qs),
(70,149,o),
(70,124,qs),
(70,50,ls),
(70,32,o),
(105,0,o),
(124,0,qs),
(670,0,l)
);
},
{
closed = 1;
nodes = (
(385,-128,o),
(357,-100,o),
(335,-100,qs),
(313,-100,o),
(285,-128,o),
(285,-150,qs),
(285,-172,o),
(313,-200,o),
(335,-200,qs),
(357,-200,o),
(385,-172,o),
(385,-150,qs)
);
}
);
};
layerId = "65DE19D7-C0F2-4D8D-9C1D-34999E633ECA";
shapes = (
{
ref = "behDotless-ar.fina";
},
{
ref = "dotbelow-ar";
}
);
width = 600;
},
{
layerId = "FCEAB5BF-AFE7-45BC-83DB-D0DE89866BD6";
width = 600;
}
);
unicode = 65168;
},
{
color = 4;
glyphname = "beh-ar.medi";
lastChange = "2019-05-17 23:32:30 +0000";
layers = (
{
background = {
shapes = (
{
closed = 1;
nodes = (
(370,117,l),
(300,117,l),
(300,300,l),
(220,241,o),
(211,227,qs),
(200,208,o),
(200,117,q),
(0,117,l),
(-70,0,l),
(370,0,l)
);
},
{
closed = 1;
nodes = (
(240,-128,o),
(212,-100,o),
(190,-100,qs),
(168,-100,o),
(140,-128,o),
(140,-150,qs),
(140,-172,o),
(168,-200,o),
(190,-200,qs),
(212,-200,o),
(240,-172,o),
(240,-150,qs)
);
}
);
};
layerId = "65DE19D7-C0F2-4D8D-9C1D-34999E633ECA";
shapes = (
{
ref = "behDotless-ar.medi";
},
{
pos = (76,0);
ref = "dotbelow-ar";
}
);
width = 420;
},
{
layerId = "FCEAB5BF-AFE7-45BC-83DB-D0DE89866BD6";
width = 600;
}
);
unicode = 65170;
userData = {
com.typemytype.robofont.mark = (
0.6,
0.609,
1,
1
);
};
},
{
color = 4;
glyphname = "beh-ar.init";
lastChange = "2019-05-17 23:32:30 +0000";
layers = (
{
background = {
shapes = (
{
closed = 1;
nodes = (
(300,300,l),
(218,239,o),
(211,228,qs),
(200,209,o),
(200,117,q),
(0,117,l),
(-70,0,l),
(245,0,ls),
(264,0,o),
(300,31,o),
(300,50,qs)
);
},
{
closed = 1;
nodes = (
(240,-128,o),
(212,-100,o),
(190,-100,qs),
(168,-100,o),
(140,-128,o),
(140,-150,qs),
(140,-172,o),
(168,-200,o),
(190,-200,qs),
(212,-200,o),
(240,-172,o),
(240,-150,qs)
);
}
);
};
layerId = "65DE19D7-C0F2-4D8D-9C1D-34999E633ECA";
shapes = (
{
ref = "behDotless-ar.init";
},
{
alignment = -1;
pos = (46,0);
ref = "dotbelow-ar";
}
);
width = 420;
},
{
layerId = "FCEAB5BF-AFE7-45BC-83DB-D0DE89866BD6";
width = 600;
}
);
unicode = 65169;
userData = {
com.typemytype.robofont.mark = (
0.6,
0.609,
1,
1
);
};
},
{
color = 4;
glyphname = "alefMaksura-ar.medi";
lastChange = "2019-05-17 23:32:30 +0000";
layers = (
{
background = {
shapes = (
{
closed = 1;
nodes = (
(471,117,l),
(400,117,l),
(400,300,l),
(320,247,o),
(311,229,qs),
(300,210,o),
(300,117,q),
(0,117,l),
(-70,0,l),
(471,0,l)
);
}
);
};
layerId = "65DE19D7-C0F2-4D8D-9C1D-34999E633ECA";
shapes = (
{
ref = "behDotless-ar.medi";
}
);
width = 420;
},
{
layerId = "FCEAB5BF-AFE7-45BC-83DB-D0DE89866BD6";
width = 600;
}
);
unicode = 64489;
},
{
color = 4;
glyphname = "alefMaksura-ar.init";
lastChange = "2019-05-17 23:32:30 +0000";
layers = (
{
background = {
shapes = (
{
closed = 1;
nodes = (
(400,300,l),
(320,247,o),
(311,229,qs),
(300,210,o),
(300,117,q),
(0,117,l),
(-70,0,l),
(346,0,ls),
(364,0,o),
(400,32,o),
(400,50,qs)
);
}
);
};
layerId = "65DE19D7-C0F2-4D8D-9C1D-34999E633ECA";
shapes = (
{
ref = "behDotless-ar.init";
}
);
width = 420;
},
{
layerId = "FCEAB5BF-AFE7-45BC-83DB-D0DE89866BD6";
width = 600;
}
);
unicode = 64488;
},
{
color = 2;
glyphname = "teh-ar";
lastChange = "2019-05-17 23:32:30 +0000";
layers = (
{
anchors = (
{
name = bottom;
pos = (300,0);
},
{
name = top;
pos = (300,500);
}
);
background = {
shapes = (
{
closed = 1;
nodes = (
(480,447,o),
(452,475,o),
(430,475,qs),
(408,475,o),
(380,447,o),
(380,425,qs),
(380,403,o),
(408,375,o),
(430,375,qs),
(452,375,o),
(480,403,o),
(480,425,qs)
);
},
{
closed = 1;
nodes = (
(310,447,o),
(282,475,o),
(260,475,qs),
(238,475,o),
(210,447,o),
(210,425,qs),
(210,403,o),
(238,375,o),
(260,375,qs),
(282,375,o),
(310,403,o),
(310,425,qs)
);
},
{
closed = 1;
nodes = (
(600,300,l),
(564,273,o),
(528,246,q),
(507,228,o),
(503,204,qs),
(500,188,o),
(500,117,q),
(170,117,l),
(170,237,l),
(108,191,ls),
(85,174,o),
(79,163,qs),
(70,149,o),
(70,124,qs),
(70,50,ls),
(70,32,o),
(105,0,o),
(124,0,qs),
(546,0,ls),
(564,0,o),
(600,32,o),
(600,50,qs)
);
}
);
};
layerId = "65DE19D7-C0F2-4D8D-9C1D-34999E633ECA";
shapes = (
{
ref = "behDotless-ar";
},
{
ref = "twodotshorizontalabove-ar";
}
);
width = 600;
},
{
layerId = "FCEAB5BF-AFE7-45BC-83DB-D0DE89866BD6";
width = 600;
}
);
unicode = 1578;
},
{
color = 2;
glyphname = "teh-ar.fina";
lastChange = "2019-05-17 23:32:30 +0000";
layers = (
{
anchors = (
{
name = bottom;
pos = (300,0);
},
{
name = top;
pos = (300,500);
}
);
background = {
shapes = (
{
closed = 1;
nodes = (
(460,457,o),
(432,485,o),
(410,485,qs),
(388,485,o),
(360,457,o),
(360,435,qs),
(360,413,o),
(388,385,o),
(410,385,qs),
(432,385,o),
(460,413,o),
(460,435,qs)
);
},
{
closed = 1;
nodes = (
(290,457,o),
(262,485,o),
(240,485,qs),
(218,485,o),
(190,457,o),
(190,435,qs),
(190,413,o),
(218,385,o),
(240,385,qs),
(262,385,o),
(290,413,o),
(290,435,qs)
);
},
{
closed = 1;
nodes = (
(670,117,l),
(600,117,l),
(600,300,l),
(564,273,o),
(528,246,q),
(507,228,o),
(503,204,qs),
(500,188,o),
(500,117,q),
(170,117,l),
(170,237,l),
(108,191,ls),
(85,174,o),
(79,163,qs),
(70,149,o),
(70,124,qs),
(70,50,ls),
(70,32,o),
(105,0,o),
(124,0,qs),
(670,0,l)
);
}
);
};
layerId = "65DE19D7-C0F2-4D8D-9C1D-34999E633ECA";
shapes = (
{
ref = "behDotless-ar.fina";
},
{
ref = "twodotshorizontalabove-ar";
}
);
width = 600;
},
{
layerId = "FCEAB5BF-AFE7-45BC-83DB-D0DE89866BD6";
width = 600;
}
);
unicode = 65174;
},
{
color = 4;
glyphname = "teh-ar.medi";
lastChange = "2019-05-17 23:32:30 +0000";
layers = (
{
background = {
shapes = (
{
closed = 1;
nodes = (
(380,477,o),
(352,505,o),
(330,505,qs),
(308,505,o),
(280,477,o),
(280,455,qs),
(280,433,o),
(308,405,o),
(330,405,qs),
(352,405,o),
(380,433,o),
(380,455,qs)
);
},
{
closed = 1;
nodes = (
(210,477,o),
(182,505,o),
(160,505,qs),
(138,505,o),
(110,477,o),
(110,455,qs),
(110,433,o),
(138,405,o),
(160,405,qs),
(182,405,o),
(210,433,o),
(210,455,qs)
);
},
{
closed = 1;
nodes = (
(471,117,l),
(400,117,l),
(400,300,l),
(320,247,o),
(311,229,qs),
(300,210,o),
(300,117,q),
(0,117,l),
(-70,0,l),
(471,0,l)
);
}
);
};
guides = (
{
angle = 90;
pos = (240,0);
}
);
layerId = "65DE19D7-C0F2-4D8D-9C1D-34999E633ECA";
shapes = (
{
ref = "behDotless-ar.medi";
},
{
pos = (-24,-101);
ref = "twodotshorizontalabove-ar";
}
);
width = 420;
},
{
layerId = "FCEAB5BF-AFE7-45BC-83DB-D0DE89866BD6";
width = 600;
}
);
unicode = 65176;
userData = {
com.typemytype.robofont.guides = (
{
angle = 90;
isGlobal = 0;
magnetic = 5;
x = 240;
y = 0;
}
);
com.typemytype.robofont.mark = (
0.6,
0.609,
1,
1
);
};
},
{
color = 4;
glyphname = "teh-ar.init";
lastChange = "2019-05-17 23:32:30 +0000";
layers = (
{
background = {
shapes = (
{
closed = 1;
nodes = (
(385,522,o),
(357,550,o),
(335,550,qs),
(313,550,o),
(285,522,o),
(285,500,qs),
(285,478,o),
(313,450,o),
(335,450,qs),
(357,450,o),
(385,478,o),
(385,500,qs)
);
},
{
closed = 1;
nodes = (
(215,522,o),
(187,550,o),
(165,550,qs),
(143,550,o),
(115,522,o),
(115,500,qs),
(115,478,o),
(143,450,o),
(165,450,qs),
(187,450,o),
(215,478,o),
(215,500,qs)
);
},
{
closed = 1;
nodes = (
(400,300,l),
(320,247,o),
(311,229,qs),
(300,210,o),
(300,117,q),
(0,117,l),
(-70,0,l),
(346,0,ls),
(364,0,o),
(400,32,o),
(400,50,qs)
);
}
);
};
layerId = "65DE19D7-C0F2-4D8D-9C1D-34999E633ECA";
shapes = (
{
ref = "behDotless-ar.init";
},
{
pos = (-24,-101);
ref = "twodotshorizontalabove-ar";
}
);
width = 420;
},
{
layerId = "FCEAB5BF-AFE7-45BC-83DB-D0DE89866BD6";
width = 600;
}
);
unicode = 65175;
userData = {
com.typemytype.robofont.mark = (
0.6,
0.609,
1,
1
);
};
},
{
color = 2;
glyphname = "theh-ar";
lastChange = "2019-05-17 23:32:30 +0000";
layers = (
{
anchors = (
{
name = bottom;
pos = (300,0);
},
{
name = top;
pos = (300,500);
}
);
background = {
shapes = (
{
closed = 1;
nodes = (
(384,597,o),
(337,597,qs),
(290,597,o),
(290,553,qs),
(290,509,o),
(337,509,qs),
(384,509,o),
(384,553,qs)
);
},
{
closed = 1;
nodes = (
(465,487,o),
(418,487,qs),
(370,487,o),
(370,443,qs),
(370,398,o),
(418,398,qs),
(465,398,o),
(465,443,qs)
);
},
{
closed = 1;
nodes = (
(304,487,o),
(257,487,qs),
(210,487,o),
(210,443,qs),
(210,398,o),
(257,398,qs),
(304,398,o),
(304,443,qs)
);
},
{
closed = 1;
nodes = (
(600,300,l),
(564,273,o),
(528,246,q),
(507,228,o),
(503,204,qs),
(500,188,o),
(500,117,q),
(170,117,l),
(170,237,l),
(108,191,ls),
(85,174,o),
(79,163,qs),
(70,149,o),
(70,124,qs),
(70,50,ls),
(70,32,o),
(105,0,o),
(124,0,qs),
(546,0,ls),
(564,0,o),
(600,32,o),
(600,50,qs)
);
}
);
};
layerId = "65DE19D7-C0F2-4D8D-9C1D-34999E633ECA";
shapes = (
{
ref = "behDotless-ar";
},
{
ref = "threedotsupabove-ar";
}
);
width = 600;
},
{
layerId = "FCEAB5BF-AFE7-45BC-83DB-D0DE89866BD6";
width = 600;
}
);
unicode = 1579;
},
{
color = 2;
glyphname = "theh-ar.fina";
lastChange = "2019-05-17 23:32:30 +0000";
layers = (
{
anchors = (
{
name = bottom;
pos = (300,0);
},
{
name = top;
pos = (300,500);
}
);
background = {
shapes = (
{
closed = 1;
nodes = (
(384,599,o),
(337,599,qs),
(290,599,o),
(290,554,qs),
(290,510,o),
(337,510,qs),
(384,510,o),
(384,554,qs)
);
},
{
closed = 1;
nodes = (
(464,488,o),
(417,488,qs),
(370,488,o),
(370,443,qs),
(370,399,o),
(417,399,qs),
(464,399,o),
(464,443,qs)
);
},
{
closed = 1;
nodes = (
(304,488,o),
(257,488,qs),
(210,488,o),
(210,443,qs),
(210,399,o),
(257,399,qs),
(304,399,o),
(304,443,qs)
);
},
{
closed = 1;
nodes = (
(670,117,l),
(600,117,l),
(600,300,l),
(564,273,o),
(528,246,q),
(507,228,o),
(503,204,qs),
(500,188,o),
(500,117,q),
(170,117,l),
(170,237,l),
(108,191,ls),
(85,174,o),
(79,163,qs),
(70,149,o),
(70,124,qs),
(70,50,ls),
(70,32,o),
(105,0,o),
(124,0,qs),
(670,0,l)
);
}
);
};
layerId = "65DE19D7-C0F2-4D8D-9C1D-34999E633ECA";
shapes = (
{
ref = "behDotless-ar.fina";
},
{
ref = "threedotsupabove-ar";
}
);
width = 600;
},
{
layerId = "FCEAB5BF-AFE7-45BC-83DB-D0DE89866BD6";
width = 600;
}
);
unicode = 65178;
},
{
color = 4;
glyphname = "theh-ar.medi";
lastChange = "2019-05-17 23:32:30 +0000";
layers = (
{
background = {
shapes = (
{
closed = 1;
nodes = (
(322,653,o),
(276,653,qs),
(229,653,o),
(229,607,qs),
(229,561,o),
(276,561,qs),
(322,561,o),
(322,607,qs)
);
},
{
closed = 1;
nodes = (
(400,539,o),
(354,539,qs),
(308,539,o),
(308,494,qs),
(308,448,o),
(354,448,qs),
(400,448,o),
(400,494,qs)
);
},
{
closed = 1;
nodes = (
(243,539,o),
(197,539,qs),
(150,539,o),
(150,494,qs),
(150,448,o),
(197,448,qs),
(243,448,o),
(243,494,qs)
);
},
{
closed = 1;
nodes = (
(471,117,l),
(400,117,l),
(400,300,l),
(320,247,o),
(311,229,qs),
(300,210,o),
(300,117,q),
(0,117,l),
(-70,0,l),
(471,0,l)
);
}
);
};
layerId = "65DE19D7-C0F2-4D8D-9C1D-34999E633ECA";
shapes = (
{
ref = "behDotless-ar.medi";
},
{
pos = (-14,-101);
ref = "threedotsupabove-ar";
}
);
width = 420;
},
{
layerId = "FCEAB5BF-AFE7-45BC-83DB-D0DE89866BD6";
width = 600;
}
);
unicode = 65180;
userData = {
com.typemytype.robofont.mark = (
0.6,
0.986,
1,
1
);
};
},
{
color = 4;
glyphname = "theh-ar.init";
lastChange = "2019-05-17 23:32:30 +0000";
layers = (
{
background = {
shapes = (
{
closed = 1;
nodes = (
(322,653,o),
(276,653,qs),
(229,653,o),
(229,607,qs),
(229,561,o),
(276,561,qs),
(322,561,o),
(322,607,qs)
);
},
{
closed = 1;
nodes = (
(400,539,o),
(354,539,qs),
(308,539,o),
(308,494,qs),
(308,448,o),
(354,448,qs),
(400,448,o),
(400,494,qs)
);
},
{
closed = 1;
nodes = (
(243,539,o),
(197,539,qs),
(150,539,o),
(150,494,qs),
(150,448,o),
(197,448,qs),
(243,448,o),
(243,494,qs)
);
},
{
closed = 1;
nodes = (
(400,300,l),
(320,247,o),
(311,229,qs),
(300,210,o),
(300,117,q),
(0,117,l),
(-70,0,l),
(346,0,ls),
(364,0,o),
(400,32,o),
(400,50,qs)
);
}
);
};
layerId = "65DE19D7-C0F2-4D8D-9C1D-34999E633ECA";
shapes = (
{
ref = "behDotless-ar.init";
},
{
alignment = 1;
pos = (-14,-101);
ref = "threedotsupabove-ar";
}
);
width = 420;
},
{
layerId = "FCEAB5BF-AFE7-45BC-83DB-D0DE89866BD6";
width = 600;
}
);
unicode = 65179;
userData = {
com.typemytype.robofont.mark = (
0.6,
0.986,
1,
1
);
};
},
{
color = 2;
glyphname = "jeem-ar";
lastChange = "2019-05-17 23:32:30 +0000";
layers = (
{
anchors = (
{
name = bottom;
pos = (300,0);
},
{
name = top;
pos = (300,500);
}
);
background = {
shapes = (
{
closed = 1;
nodes = (
(450,117,l),
(437,124,o),
(374,177,o),
(366,189,q),
(337,244,o),
(309,299,q),
(266,370,o),
(220,370,qs),
(180,370,o),
(150,325,q),
(150,221,l),
(167,251,o),
(199,251,qs),
(220,251,o),
(234,222,q),
(243,199,o),
(261,154,o),
(310,117,q),
(198,117,ls),
(127,117,o),
(30,19,o),
(30,-52,qs),
(30,-112,o),
(67,-166,qs),
(109,-226,o),
(166,-226,qs),
(182,-226,o),
(198,-220,q),
(202,-224,o),
(208,-224,qs),
(221,-224,o),
(255,-188,o),
(255,-175,qs),
(255,-101,l),
(166,-101,ls),
(135,-101,o),
(135,-56,qs),
(135,0,o),
(171,0,qs),
(402,0,ls),
(423,0,o),
(450,29,o),
(450,50,qs)
);
},
{
closed = 1;
nodes = (
(450,-123,o),
(422,-95,o),
(400,-95,qs),
(378,-95,o),
(350,-123,o),
(350,-145,qs),
(350,-167,o),
(378,-195,o),
(400,-195,qs),
(422,-195,o),
(450,-167,o),
(450,-145,qs)
);
}
);
};
layerId = "65DE19D7-C0F2-4D8D-9C1D-34999E633ECA";
shapes = (
{
ref = "hah-ar";
},
{
ref = "dotcenter-ar";
}
);
width = 600;
},
{
layerId = "FCEAB5BF-AFE7-45BC-83DB-D0DE89866BD6";
width = 600;
}
);
unicode = 1580;
},
{
color = 2;
glyphname = "jeem-ar.fina";
lastChange = "2019-05-17 23:32:30 +0000";
layers = (
{
anchors = (
{
name = bottom;
pos = (300,0);
},
{
name = top;
pos = (300,500);
}
);
background = {
shapes = (
{
closed = 1;
nodes = (
(520,117,l),
(450,117,l),
(437,124,o),
(406,150,qs),
(374,177,o),
(366,189,q),
(337,244,o),
(309,298,q),
(266,370,o),
(220,370,qs),
(180,370,o),
(150,325,q),
(150,221,l),
(166,251,o),
(199,251,qs),
(219,251,o),
(233,222,qs),
(243,199,o),
(252,176,q),
(264,152,o),
(310,117,q),
(198,117,ls),
(127,117,o),
(30,19,o),
(30,-52,qs),
(30,-220,o),
(198,-220,qs),
(254,-220,o),
(254,-170,qs),
(254,-101,l),
(166,-101,ls),
(135,-101,o),
(135,-52,qs),
(135,0,o),
(171,0,qs),
(520,0,l)
);
},
{
closed = 1;
nodes = (
(450,-123,o),
(422,-95,o),
(400,-95,qs),
(378,-95,o),
(350,-123,o),
(350,-145,qs),
(350,-167,o),
(378,-195,o),
(400,-195,qs),
(422,-195,o),
(450,-167,o),
(450,-145,qs)
);
}
);
};
layerId = "65DE19D7-C0F2-4D8D-9C1D-34999E633ECA";
shapes = (
{
ref = "hah-ar.fina";
},
{
ref = "dotcenter-ar";
}
);
width = 600;
},
{
layerId = "FCEAB5BF-AFE7-45BC-83DB-D0DE89866BD6";
width = 600;
}
);
unicode = 65182;
},
{
color = 2;
glyphname = "jeem-ar.medi";
lastChange = "2019-05-17 23:32:30 +0000";
layers = (
{
anchors = (
{
name = bottom;
pos = (300,0);
},
{
name = top;
pos = (300,500);
}
);
background = {
shapes = (
{
closed = 1;
nodes = (
(570,117,l),
(431,117,l),
(331,268,ls),
(295,322,o),
(288,331,qs),
(258,365,o),
(224,365,qs),
(188,365,o),
(164,325,q),
(164,225,l),
(184,245,o),
(214,245,qs),
(247,245,o),
(278,198,qs),
(331,117,l),
(0,117,l),
(-70,0,l),
(409,0,l),
(450,-62,l),
(450,0,l),
(570,0,l)
);
},
{
closed = 1;
nodes = (
(335,-128,o),
(307,-100,o),
(285,-100,qs),
(263,-100,o),
(235,-128,o),
(235,-150,qs),
(235,-172,o),
(263,-200,o),
(285,-200,qs),
(307,-200,o),
(335,-172,o),
(335,-150,qs)
);
}
);
};
layerId = "65DE19D7-C0F2-4D8D-9C1D-34999E633ECA";
shapes = (
{
ref = "hah-ar.medi";
},
{
pos = (136,0);
ref = "dotbelow-ar";
}
);
width = 600;
},
{
layerId = "FCEAB5BF-AFE7-45BC-83DB-D0DE89866BD6";
width = 600;
}
);
unicode = 65184;
},
{
color = 2;
glyphname = "jeem-ar.init";
lastChange = "2019-05-17 23:32:30 +0000";
layers = (
{
anchors = (
{
name = bottom;
pos = (300,0);
},
{
name = top;
pos = (300,500);
}
);
background = {
shapes = (
{
closed = 1;
nodes = (
(450,117,l),
(437,124,o),
(374,177,o),
(366,189,q),
(337,244,o),
(309,299,q),
(266,370,o),
(220,370,qs),
(180,370,o),
(150,325,q),
(150,221,l),
(167,251,o),
(199,251,qs),
(220,251,o),
(234,222,q),
(243,199,o),
(261,154,o),
(310,117,q),
(0,117,l),
(-70,0,l),
(390,0,ls),
(413,0,o),
(450,28,o),
(450,50,qs)
);
},
{
closed = 1;
nodes = (
(235,-128,o),
(207,-100,o),
(185,-100,qs),
(163,-100,o),
(135,-128,o),
(135,-150,qs),
(135,-172,o),
(163,-200,o),
(185,-200,qs),
(207,-200,o),
(235,-172,o),
(235,-150,qs)
);
}
);
};
layerId = "65DE19D7-C0F2-4D8D-9C1D-34999E633ECA";
shapes = (
{
ref = "hah-ar.init";
},
{
pos = (136,0);
ref = "dotbelow-ar";
}
);
width = 600;
},
{
layerId = "FCEAB5BF-AFE7-45BC-83DB-D0DE89866BD6";
width = 600;
}
);
unicode = 65183;
},
{
color = 9;
glyphname = "hah-ar";
lastChange = "2019-05-17 23:32:30 +0000";
layers = (
{
anchors = (
{
name = bottom;
pos = (300,0);
},
{
name = center;
pos = (300,250);
},
{
name = top;
pos = (300,500);
}
);
background = {
shapes = (
{
closed = 1;
nodes = (
(450,-101,l),
(166,-101,ls),
(151,-101,o),
(143,-85,qs),
(135,-72,o),
(135,-57,qs),
(135,0,o),
(171,0,qs),
(402,0,ls),
(423,0,o),
(450,29,o),
(450,50,qs),
(450,117,l),
(437,124,o),
(406,150,qs),
(374,177,o),
(366,189,q),
(337,244,o),
(309,299,q),
(266,370,o),
(220,370,qs),
(180,370,o),
(150,325,q),
(150,221,l),
(167,251,o),
(199,251,qs),
(220,251,o),
(234,222,q),
(243,199,o),
(261,154,o),
(310,117,q),
(198,117,ls),
(127,117,o),
(30,19,o),
(30,-52,qs),
(30,-122,o),
(128,-220,o),
(198,-220,qs),
(401,-220,ls),
(421,-220,o),
(450,-190,o),
(450,-170,qs)
);
}
);
};
layerId = "65DE19D7-C0F2-4D8D-9C1D-34999E633ECA";
width = 600;
},
{
layerId = "FCEAB5BF-AFE7-45BC-83DB-D0DE89866BD6";
width = 600;
}
);
unicode = 1581;
},
{
color = 2;
glyphname = "hah-ar.fina";
lastChange = "2019-05-17 23:32:30 +0000";
layers = (
{
anchors = (
{
name = bottom;
pos = (300,0);
},
{
name = center;
pos = (300,250);
},
{
name = top;
pos = (300,500);
}
);
background = {
shapes = (
{
closed = 1;
nodes = (
(520,117,l),
(450,117,l),
(437,124,o),
(406,150,qs),
(374,177,o),
(366,189,q),
(337,244,o),
(309,298,q),
(266,370,o),
(220,370,qs),
(180,370,o),
(150,325,q),
(150,221,l),
(167,251,o),
(199,251,qs),
(220,251,o),
(234,222,q),
(243,199,o),
(261,154,o),
(310,117,q),
(198,117,ls),
(127,117,o),
(30,19,o),
(30,-52,qs),
(30,-122,o),
(128,-220,o),
(198,-220,qs),
(401,-220,ls),
(422,-220,o),
(450,-190,o),
(450,-170,qs),
(450,-101,l),
(166,-101,ls),
(151,-101,o),
(143,-85,qs),
(135,-72,o),
(135,-57,qs),
(135,0,o),
(171,0,qs),
(520,0,l)
);
}
);
};
layerId = "65DE19D7-C0F2-4D8D-9C1D-34999E633ECA";
width = 600;
},
{
layerId = "FCEAB5BF-AFE7-45BC-83DB-D0DE89866BD6";
width = 600;
}
);
unicode = 65186;
},
{
color = 2;
glyphname = "hah-ar.medi";
lastChange = "2019-05-17 23:32:30 +0000";
layers = (
{
anchors = (
{
name = bottom;
pos = (300,0);
},
{
name = top;
pos = (300,500);
}
);
background = {
shapes = (
{
closed = 1;
nodes = (
(570,117,l),
(431,117,l),
(331,268,ls),
(295,322,o),
(288,331,qs),
(258,365,o),
(224,365,qs),
(188,365,o),
(164,325,q),
(164,225,l),
(184,245,o),
(214,245,qs),
(247,245,o),
(278,198,qs),
(331,117,l),
(0,117,l),
(-70,0,l),
(409,0,l),
(450,-62,l),
(450,0,l),
(570,0,l)
);
}
);
};
layerId = "65DE19D7-C0F2-4D8D-9C1D-34999E633ECA";
width = 600;
},
{
layerId = "FCEAB5BF-AFE7-45BC-83DB-D0DE89866BD6";
width = 600;
}
);
unicode = 65188;
},
{
color = 9;
glyphname = "hah-ar.init";
lastChange = "2019-05-17 23:32:30 +0000";
layers = (
{
anchors = (
{
name = bottom;
pos = (300,0);
},
{
name = top;
pos = (300,500);
}
);
background = {
shapes = (
{
closed = 1;
nodes = (
(450,117,l),
(435,125,o),
(377,174,o),
(366,189,q),
(337,241,o),
(326,269,q),
(295,320,o),
(284,333,qs),
(253,370,o),
(220,370,qs),
(180,370,o),
(150,325,q),
(150,221,l),
(167,251,o),
(199,251,qs),
(220,251,o),
(235,222,q),
(243,199,o),
(261,154,o),
(310,117,q),
(0,117,l),
(-70,0,l),
(390,0,ls),
(413,0,o),
(450,28,o),
(450,50,qs)
);
}
);
};
layerId = "65DE19D7-C0F2-4D8D-9C1D-34999E633ECA";
width = 600;
},
{
layerId = "FCEAB5BF-AFE7-45BC-83DB-D0DE89866BD6";
width = 600;
}
);
unicode = 65187;
},
{
color = 2;
glyphname = "khah-ar";
lastChange = "2019-05-17 23:32:30 +0000";
layers = (
{
anchors = (
{
name = bottom;
pos = (300,0);
},
{
name = top;
pos = (300,500);
}
);
background = {
shapes = (
{
closed = 1;
nodes = (
(300,562,o),
(272,590,o),
(250,590,qs),
(228,590,o),
(200,562,o),
(200,540,qs),
(200,518,o),
(228,490,o),
(250,490,qs),
(272,490,o),
(300,518,o),
(300,540,qs)
);
},
{
closed = 1;
nodes = (
(450,-101,l),
(166,-101,ls),
(151,-101,o),
(143,-85,qs),
(135,-72,o),
(135,-57,qs),
(135,0,o),
(171,0,qs),
(402,0,ls),
(423,0,o),
(450,29,o),
(450,50,qs),
(450,117,l),
(437,124,o),
(406,150,qs),
(374,177,o),
(366,189,q),
(337,244,o),
(309,299,q),
(266,370,o),
(220,370,qs),
(180,370,o),
(150,325,q),
(150,221,l),
(167,251,o),
(199,251,qs),
(220,251,o),
(234,222,q),
(243,199,o),
(261,154,o),
(310,117,q),
(198,117,ls),
(127,117,o),
(30,19,o),
(30,-52,qs),
(30,-122,o),
(128,-220,o),
(198,-220,qs),
(401,-220,ls),
(421,-220,o),
(450,-190,o),
(450,-170,qs)
);
}
);
};
layerId = "65DE19D7-C0F2-4D8D-9C1D-34999E633ECA";
shapes = (
{
ref = "hah-ar";
},
{
pos = (136,0);
ref = "dotabove-ar";
}
);
width = 600;
},
{
layerId = "FCEAB5BF-AFE7-45BC-83DB-D0DE89866BD6";
width = 600;
}
);
unicode = 1582;
},
{
color = 2;
glyphname = "khah-ar.fina";
lastChange = "2019-05-17 23:32:30 +0000";
layers = (
{
anchors = (
{
name = bottom;
pos = (300,0);
},
{
name = top;
pos = (300,500);
}
);
background = {
shapes = (
{
closed = 1;
nodes = (
(275,577,o),
(247,605,o),
(225,605,qs),
(203,605,o),
(175,577,o),
(175,555,qs),
(175,533,o),
(203,505,o),
(225,505,qs),
(247,505,o),
(275,533,o),
(275,555,qs)
);
},
{
closed = 1;
nodes = (
(495,117,l),
(425,117,l),
(412,124,o),
(381,150,qs),
(349,177,o),
(341,189,q),
(312,244,o),
(284,298,q),
(241,370,o),
(195,370,qs),
(155,370,o),
(125,325,q),
(125,221,l),
(141,251,o),
(174,251,qs),
(195,251,o),
(209,222,q),
(218,199,o),
(236,154,o),
(285,117,q),
(173,117,ls),
(103,117,o),
(5,19,o),
(5,-52,qs),
(5,-122,o),
(104,-220,o),
(173,-220,qs),
(376,-220,ls),
(396,-220,o),
(425,-190,o),
(425,-170,qs),
(425,-101,l),
(141,-101,ls),
(126,-101,o),
(117,-85,qs),
(110,-72,o),
(110,-57,qs),
(110,0,o),
(146,0,qs),
(495,0,l)
);
}
);
};
layerId = "65DE19D7-C0F2-4D8D-9C1D-34999E633ECA";
shapes = (
{
ref = "hah-ar.fina";
},
{
pos = (136,0);
ref = "dotabove-ar";
}
);
width = 600;
},
{
layerId = "FCEAB5BF-AFE7-45BC-83DB-D0DE89866BD6";
width = 600;
}
);
unicode = 65190;
},
{
color = 2;
glyphname = "khah-ar.medi";
lastChange = "2019-05-17 23:32:30 +0000";
layers = (
{
anchors = (
{
name = bottom;
pos = (300,0);
},
{
name = top;
pos = (300,500);
}
);
background = {
shapes = (
{
closed = 1;
nodes = (
(275,552,o),
(247,580,o),
(225,580,qs),
(203,580,o),
(175,552,o),
(175,530,qs),
(175,508,o),
(203,480,o),
(225,480,qs),
(247,480,o),
(275,508,o),
(275,530,qs)
);
},
{
closed = 1;
nodes = (
(570,117,l),
(431,117,l),
(331,268,ls),
(295,322,o),
(288,331,qs),
(258,365,o),
(224,365,qs),
(188,365,o),
(164,325,q),
(164,225,l),
(184,245,o),
(214,245,qs),
(247,245,o),
(278,198,qs),
(331,117,l),
(0,117,l),
(-70,0,l),
(409,0,l),
(450,-62,l),
(450,0,l),
(570,0,l)
);
}
);
};
layerId = "65DE19D7-C0F2-4D8D-9C1D-34999E633ECA";
shapes = (
{
ref = "hah-ar.medi";
},
{
pos = (136,0);
ref = "dotabove-ar";
}
);
width = 600;
},
{
layerId = "FCEAB5BF-AFE7-45BC-83DB-D0DE89866BD6";
width = 600;
}
);
unicode = 65192;
},
{
color = 2;
glyphname = "khah-ar.init";
lastChange = "2019-05-17 23:32:30 +0000";
layers = (
{
anchors = (
{
name = bottom;
pos = (300,0);
},
{
name = top;
pos = (300,500);
}
);
background = {
shapes = (
{
closed = 1;
nodes = (
(225,552,o),
(197,580,o),
(175,580,qs),
(153,580,o),
(125,552,o),
(125,530,qs),
(125,508,o),
(153,480,o),
(175,480,qs),
(197,480,o),
(225,508,o),
(225,530,qs)
);
},
{
closed = 1;
nodes = (
(450,117,l),
(437,124,o),
(374,177,o),
(366,189,q),
(337,244,o),
(309,299,q),
(266,370,o),
(220,370,qs),
(180,370,o),
(150,325,q),
(150,221,l),
(167,251,o),
(199,251,qs),
(220,251,o),
(234,222,q),
(243,199,o),
(261,154,o),
(310,117,q),
(0,117,l),
(-70,0,l),
(390,0,ls),
(413,0,o),
(450,28,o),
(450,50,qs)
);
}
);
};
layerId = "65DE19D7-C0F2-4D8D-9C1D-34999E633ECA";
shapes = (
{
ref = "hah-ar.init";
},
{
pos = (136,0);
ref = "dotabove-ar";
}
);
width = 600;
},
{
layerId = "FCEAB5BF-AFE7-45BC-83DB-D0DE89866BD6";
width = 600;
}
);
unicode = 65191;
},
{
color = 9;
glyphname = "dal-ar";
lastChange = "2019-05-17 23:32:30 +0000";
layers = (
{
anchors = (
{
name = bottom;
pos = (330,0);
},
{
name = top;
pos = (300,320);
}
);
background = {
shapes = (
{
closed = 1;
nodes = (
(500,220,ls),
(500,260,o),
(444,316,o),
(400,316,qs),
(238,316,ls),
(217,316,o),
(193,333,qs),
(171,348,o),
(160,367,q),
(160,216,l),
(357,216,ls),
(371,216,o),
(400,193,o),
(400,179,qs),
(400,117,l),
(104,117,l),
(104,0,l),
(452,0,ls),
(473,0,o),
(500,29,o),
(500,50,qs)
);
}
);
};
layerId = "65DE19D7-C0F2-4D8D-9C1D-34999E633ECA";
shapes = (
{
closed = 1;
nodes = (
(160,320,l),
(160,220,l),
(420,220,l),
(420,100,l),
(110,100,l),
(110,80,l),
(163,0,l),
(540,0,l),
(540,180,ls),
(540,260,o),
(480,320,o),
(380,320,cs)
);
}
);
width = 660;
},
{
layerId = "FCEAB5BF-AFE7-45BC-83DB-D0DE89866BD6";
width = 600;
}
);
unicode = 1583;
userData = {
com.typemytype.robofont.mark = (
0.6,
0.986,
1,
1
);
};
},
{
color = 5;
glyphname = "dal-ar.fina";
lastChange = "2019-05-17 23:32:30 +0000";
layers = (
{
background = {
shapes = (
{
closed = 1;
nodes = (
(570,117,l),
(500,117,l),
(500,220,ls),
(500,260,o),
(444,316,o),
(400,316,qs),
(238,316,ls),
(217,316,o),
(193,333,qs),
(171,348,o),
(160,367,q),
(160,216,l),
(357,216,ls),
(371,216,o),
(400,193,o),
(400,179,qs),
(400,117,l),
(104,117,l),
(104,0,l),
(570,0,l)
);
}
);
};
layerId = "65DE19D7-C0F2-4D8D-9C1D-34999E633ECA";
shapes = (
{
closed = 1;
nodes = (
(665,0,l),
(665,100,l),
(520,100,l),
(520,0,l)
);
},
{
ref = "dal-ar";
}
);
width = 660;
},
{
layerId = "FCEAB5BF-AFE7-45BC-83DB-D0DE89866BD6";
width = 600;
}
);
unicode = 65194;
},
{
color = 4;
glyphname = "thal-ar";
lastChange = "2019-05-17 23:32:30 +0000";
layers = (
{
background = {
shapes = (
{
closed = 1;
nodes = (
(280,602,o),
(252,630,o),
(230,630,qs),
(208,630,o),
(180,602,o),
(180,580,qs),
(180,558,o),
(208,530,o),
(230,530,qs),
(252,530,o),
(280,558,o),
(280,580,qs)
);
},
{
closed = 1;
nodes = (
(500,220,ls),
(500,260,o),
(444,316,o),
(400,316,qs),
(238,316,ls),
(217,316,o),
(193,333,qs),
(171,348,o),
(160,367,q),
(160,216,l),
(357,216,ls),
(371,216,o),
(400,193,o),
(400,179,qs),
(400,117,l),
(104,117,l),
(104,0,l),
(452,0,ls),
(473,0,o),
(500,29,o),
(500,50,qs)
);
}
);
};
layerId = "65DE19D7-C0F2-4D8D-9C1D-34999E633ECA";
shapes = (
{
ref = "thal-ar.isol";
}
);
width = 660;
},
{
layerId = "FCEAB5BF-AFE7-45BC-83DB-D0DE89866BD6";
width = 600;
}
);
unicode = 1584;
userData = {
com.typemytype.robofont.mark = (
0.6,
0.609,
1,
1
);
};
},
{
color = 4;
glyphname = "thal-ar.fina";
lastChange = "2019-05-17 23:32:30 +0000";
layers = (
{
background = {
shapes = (
{
closed = 1;
nodes = (
(280,602,o),
(252,630,o),
(230,630,qs),
(208,630,o),
(180,602,o),
(180,580,qs),
(180,558,o),
(208,530,o),
(230,530,qs),
(252,530,o),
(280,558,o),
(280,580,qs)
);
},
{
closed = 1;
nodes = (
(570,117,l),
(500,117,l),
(500,220,ls),
(500,260,o),
(444,316,o),
(400,316,qs),
(238,316,ls),
(217,316,o),
(193,333,qs),
(171,348,o),
(160,367,q),
(160,216,l),
(357,216,ls),
(371,216,o),
(400,193,o),
(400,179,qs),
(400,117,l),
(104,117,l),
(104,0,l),
(570,0,l)
);
}
);
};
layerId = "65DE19D7-C0F2-4D8D-9C1D-34999E633ECA";
shapes = (
{
ref = "dal-ar.fina";
},
{
pos = (136,-180);
ref = "dotabove-ar";
}
);
width = 660;
},
{
layerId = "FCEAB5BF-AFE7-45BC-83DB-D0DE89866BD6";
width = 600;
}
);
unicode = 65196;
userData = {
com.typemytype.robofont.mark = (
0.6,
0.609,
1,
1
);
};
},
{
color = 9;
glyphname = "reh-ar";
lastChange = "2019-05-17 23:40:42 +0000";
layers = (
{
anchors = (
{
name = bottom;
pos = (120,-200);
},
{
name = init;
pos = (240,100);
},
{
name = top;
pos = (190,350);
}
);
background = {
shapes = (
{
closed = 1;
nodes = (
(300,235,l),
(220,195,o),
(216,191,qs),
(184,167,o),
(184,113,qs),
(184,-57,l),
(55,-57,l),
(60,-108,o),
(132,-168,o),
(184,-168,qs),
(235,-168,o),
(300,-107,o),
(300,-57,qs)
);
}
);
};
layerId = "65DE19D7-C0F2-4D8D-9C1D-34999E633ECA";
shapes = (
{
closed = 1;
nodes = (
(73,-200,l),
(120,-200,ls),
(239,-200,o),
(300,-140,o),
(300,-40,cs),
(300,270,l),
(246,350,l),
(180,350,l),
(180,-40,ls),
(180,-80,o),
(159,-100,o),
(120,-100,cs),
(20,-100,l),
(20,-120,l)
);
}
);
width = 420;
},
{
layerId = "FCEAB5BF-AFE7-45BC-83DB-D0DE89866BD6";
width = 600;
}
);
unicode = 1585;
},
{
color = 9;
glyphname = "reh-ar.fina";
lastChange = "2019-05-17 23:40:54 +0000";
layers = (
{
background = {
shapes = (
{
closed = 1;
nodes = (
(430,117,l),
(300,117,l),
(300,235,l),
(220,195,o),
(216,191,qs),
(184,167,o),
(184,113,qs),
(184,-57,l),
(55,-57,l),
(60,-106,o),
(134,-173,o),
(184,-173,qs),
(233,-173,o),
(300,-106,o),
(300,-57,qs),
(300,0,l),
(430,0,l)
);
}
);
};
layerId = "65DE19D7-C0F2-4D8D-9C1D-34999E633ECA";
shapes = (
{
ref = "reh-ar";
},
{
pos = (60,0);
ref = arab.005;
}
);
width = 420;
},
{
layerId = "FCEAB5BF-AFE7-45BC-83DB-D0DE89866BD6";
width = 600;
}
);
metricLeft = "reh-ar";
unicode = 65198;
userData = {
com.typemytype.robofont.mark = (
0.6,
0.986,
1,
1
);
};
},
{
color = 4;
glyphname = "zain-ar";
lastChange = "2019-05-17 23:32:30 +0000";
layers = (
{
background = {
shapes = (
{
closed = 1;
nodes = (
(270,457,o),
(242,485,o),
(220,485,qs),
(198,485,o),
(170,457,o),
(170,435,qs),
(170,413,o),
(198,385,o),
(220,385,qs),
(242,385,o),
(270,413,o),
(270,435,qs)
);
},
{
closed = 1;
nodes = (
(300,235,l),
(220,195,o),
(216,191,qs),
(184,167,o),
(184,113,qs),
(184,-57,l),
(55,-57,l),
(60,-108,o),
(132,-168,o),
(184,-168,qs),
(235,-168,o),
(300,-107,o),
(300,-57,qs)
);
}
);
};
layerId = "65DE19D7-C0F2-4D8D-9C1D-34999E633ECA";
shapes = (
{
ref = "reh-ar";
},
{
pos = (26,-150);
ref = "dotabove-ar";
}
);
width = 420;
},
{
layerId = "FCEAB5BF-AFE7-45BC-83DB-D0DE89866BD6";
width = 600;
}
);
unicode = 1586;
userData = {
com.typemytype.robofont.mark = (
0.6,
0.609,
1,
1
);
};
},
{
color = 4;
glyphname = "zain-ar.fina";
lastChange = "2019-05-17 23:32:30 +0000";
layers = (
{
background = {
shapes = (
{
closed = 1;
nodes = (
(270,457,o),
(242,485,o),
(220,485,qs),
(198,485,o),
(170,457,o),
(170,435,qs),
(170,413,o),
(198,385,o),
(220,385,qs),
(242,385,o),
(270,413,o),
(270,435,qs)
);
},
{
closed = 1;
nodes = (
(430,117,l),
(300,117,l),
(300,235,l),
(220,195,o),
(216,191,qs),
(184,167,o),
(184,113,qs),
(184,-57,l),
(55,-57,l),
(60,-106,o),
(134,-173,o),
(184,-173,qs),
(233,-173,o),
(300,-106,o),
(300,-57,qs),
(300,0,l),
(430,0,l)
);
}
);
};
layerId = "65DE19D7-C0F2-4D8D-9C1D-34999E633ECA";
shapes = (
{
ref = "reh-ar.fina";
},
{
pos = (26,-150);
ref = "dotabove-ar";
}
);
width = 420;
},
{
layerId = "FCEAB5BF-AFE7-45BC-83DB-D0DE89866BD6";
width = 600;
}
);
unicode = 65200;
userData = {
com.typemytype.robofont.mark = (
0.6,
0.609,
1,
1
);
};
},
{
color = 9;
glyphname = "seen-ar";
lastChange = "2019-05-17 23:42:28 +0000";
layers = (
{
anchors = (
{
name = bottom;
pos = (900,0);
},
{
name = init;
pos = (1200,100);
},
{
name = top;
pos = (900,400);
}
);
background = {
shapes = (
{
closed = 1;
nodes = (
(800,316,l),
(724,278,ls),
(701,267,o),
(701,232,qs),
(701,117,l),
(629,117,l),
(629,280,l),
(551,241,o),
(545,237,qs),
(529,224,o),
(529,188,qs),
(529,181,o),
(530,135,o),
(530,117,q),
(456,117,l),
(456,233,l),
(424,219,o),
(393,205,q),
(356,186,o),
(343,160,qs),
(334,143,o),
(333,116,qs),
(332,99,o),
(334,65,qs),
(337,28,o),
(337,14,q),
(337,14,l),
(337,-44,o),
(277,-95,o),
(233,-95,qs),
(185,-95,o),
(159,-65,qs),
(140,-42,o),
(131,5,q),
(125,46,o),
(120,87,q),
(59,63,o),
(59,-32,qs),
(59,-108,o),
(122,-156,qs),
(179,-201,o),
(257,-201,qs),
(338,-201,o),
(456,-81,o),
(455,0,q),
(744,0,ls),
(800,0,o),
(800,48,qs)
);
}
);
};
layerId = "65DE19D7-C0F2-4D8D-9C1D-34999E633ECA";
shapes = (
{
closed = 1;
nodes = (
(540,200,l),
(540,-40,ls),
(540,-80,o),
(519,-100,o),
(480,-100,cs),
(240,-100,l),
(240,150,l),
(120,150,l),
(120,-60,ls),
(120,-140,o),
(180,-200,o),
(280,-200,cs),
(480,-200,ls),
(599,-200,o),
(660,-140,o),
(660,-40,cs),
(660,200,l)
);
},
{
closed = 1;
nodes = (
(840,400,l),
(840,160,ls),
(840,120,o),
(819,100,o),
(780,100,cs),
(660,100,l),
(660,270,l),
(606,350,l),
(540,350,l),
(540,140,ls),
(540,60,o),
(600,0,o),
(700,0,cs),
(780,0,ls),
(899,0,o),
(960,60,o),
(960,160,cs),
(960,400,l)
);
},
{
closed = 1;
nodes = (
(1206,500,l),
(1140,500,l),
(1140,160,ls),
(1140,120,o),
(1119,100,o),
(1080,100,cs),
(960,100,l),
(960,350,l),
(840,350,l),
(840,140,ls),
(840,60,o),
(900,0,o),
(1000,0,cs),
(1080,0,ls),
(1199,0,o),
(1260,60,o),
(1260,160,cs),
(1260,420,l)
);
}
);
width = 1380;
},
{
layerId = "FCEAB5BF-AFE7-45BC-83DB-D0DE89866BD6";
width = 600;
}
);
unicode = 1587;
},
{
color = 4;
glyphname = "seen-ar.fina";
lastChange = "2019-05-17 23:42:34 +0000";
layers = (
{
background = {
shapes = (
{
closed = 1;
nodes = (
(870,117,l),
(800,117,l),
(800,316,l),
(724,278,ls),
(701,267,o),
(701,232,qs),
(701,117,l),
(629,117,l),
(629,280,l),
(551,241,o),
(545,237,qs),
(529,224,o),
(529,188,qs),
(529,181,o),
(530,135,o),
(530,117,q),
(456,117,l),
(456,233,l),
(424,219,o),
(393,205,q),
(356,186,o),
(343,160,qs),
(333,139,o),
(333,104,qs),
(333,90,o),
(337,29,o),
(337,14,qs),
(337,-44,o),
(277,-95,o),
(233,-95,qs),
(185,-95,o),
(159,-65,qs),
(140,-42,o),
(131,5,q),
(125,46,o),
(120,87,q),
(59,63,o),
(59,-32,qs),
(59,-108,o),
(122,-156,qs),
(179,-201,o),
(257,-201,qs),
(338,-201,o),
(456,-81,o),
(455,0,q),
(870,0,l)
);
}
);
};
layerId = "65DE19D7-C0F2-4D8D-9C1D-34999E633ECA";
shapes = (
{
ref = "seen-ar";
},
{
pos = (1020,0);
ref = arab.005;
}
);
width = 1380;
},
{
layerId = "FCEAB5BF-AFE7-45BC-83DB-D0DE89866BD6";
width = 600;
}
);
metricLeft = "seen-ar";
unicode = 65202;
userData = {
com.typemytype.robofont.mark = (
0.6,
0.986,
1,
1
);
};
},
{
color = 9;
glyphname = "seen-ar.medi";
lastChange = "2019-05-17 23:42:44 +0000";
layers = (
{
background = {
shapes = (
{
closed = 1;
nodes = (
(621,117,l),
(550,117,l),
(550,316,l),
(474,278,ls),
(451,267,o),
(451,232,qs),
(451,117,l),
(379,117,l),
(379,280,l),
(300,241,o),
(295,237,qs),
(279,224,o),
(279,188,qs),
(279,181,o),
(280,135,o),
(280,117,q),
(206,117,l),
(206,233,l),
(163,211,o),
(119,189,q),
(107,178,o),
(107,117,q),
(0,117,l),
(-70,0,l),
(621,0,l)
);
}
);
};
layerId = "65DE19D7-C0F2-4D8D-9C1D-34999E633ECA";
shapes = (
{
ref = "seen-ar.init";
},
{
pos = (660,0);
ref = arab.005;
}
);
width = 1020;
},
{
layerId = "FCEAB5BF-AFE7-45BC-83DB-D0DE89866BD6";
width = 600;
}
);
metricLeft = "seen-ar.init";
unicode = 65204;
userData = {
com.typemytype.robofont.mark = (
0.6,
0.986,
1,
1
);
};
},
{
color = 9;
glyphname = "seen-ar.init";
lastChange = "2019-05-17 23:41:08 +0000";
layers = (
{
anchors = (
{
name = bottom;
pos = (540,0);
},
{
name = init;
pos = (840,100);
},
{
name = top;
pos = (540,400);
}
);
background = {
shapes = (
{
closed = 1;
nodes = (
(550,316,l),
(476,279,o),
(466,271,qs),
(449,256,o),
(449,219,qs),
(449,211,o),
(451,145,o),
(451,117,q),
(379,117,l),
(379,280,l),
(300,241,o),
(295,237,qs),
(279,224,o),
(279,188,qs),
(279,182,o),
(280,135,o),
(280,117,q),
(206,117,l),
(206,233,l),
(123,191,ls),
(108,184,o),
(106,157,qs),
(107,167,o),
(107,117,q),
(0,117,l),
(-70,0,l),
(494,0,ls),
(550,0,o),
(550,48,qs)
);
}
);
};
layerId = "65DE19D7-C0F2-4D8D-9C1D-34999E633ECA";
shapes = (
{
closed = 1;
nodes = (
(-5,0,l),
(120,0,ls),
(239,0,o),
(300,60,o),
(300,160,cs),
(300,200,l),
(180,200,l),
(180,160,ls),
(180,120,o),
(159,100,o),
(120,100,cs),
(-5,100,l)
);
},
{
closed = 1;
nodes = (
(480,400,l),
(480,160,ls),
(480,120,o),
(459,100,o),
(420,100,cs),
(240,100,l),
(300,185,l),
(300,270,l),
(246,350,l),
(180,350,l),
(180,140,ls),
(180,60,o),
(240,0,o),
(340,0,cs),
(420,0,ls),
(539,0,o),
(600,60,o),
(600,160,cs),
(600,400,l)
);
},
{
closed = 1;
nodes = (
(846,500,l),
(780,500,l),
(780,160,ls),
(780,120,o),
(759,100,o),
(720,100,cs),
(600,100,l),
(600,350,l),
(480,350,l),
(480,140,ls),
(480,60,o),
(540,0,o),
(640,0,cs),
(720,0,ls),
(839,0,o),
(900,60,o),
(900,160,cs),
(900,420,l)
);
}
);
width = 1020;
},
{
layerId = "FCEAB5BF-AFE7-45BC-83DB-D0DE89866BD6";
width = 600;
}
);
metricRight = "seen-ar";
unicode = 65203;
},
{
color = 4;
glyphname = "sheen-ar";
lastChange = "2019-05-17 23:32:30 +0000";
layers = (
{
background = {
shapes = (
{
closed = 1;
nodes = (
(651,625,o),
(633,639,qs),
(617,651,o),
(593,651,qs),
(569,651,o),
(552,639,qs),
(534,625,o),
(534,602,qs),
(534,579,o),
(552,566,qs),
(569,554,o),
(593,554,qs),
(617,554,o),
(633,566,qs),
(651,579,o),
(651,602,qs)
);
},
{
closed = 1;
nodes = (
(751,505,o),
(732,519,qs),
(716,531,o),
(692,531,qs),
(668,531,o),
(651,519,qs),
(633,505,o),
(633,482,qs),
(633,459,o),
(651,446,qs),
(668,434,o),
(692,434,qs),
(716,434,o),
(732,446,qs),
(751,459,o),
(751,482,qs)
);
},
{
closed = 1;
nodes = (
(551,505,o),
(533,519,qs),
(517,531,o),
(493,531,qs),
(469,531,o),
(453,519,qs),
(434,505,o),
(434,482,qs),
(434,459,o),
(453,446,qs),
(469,434,o),
(493,434,qs),
(517,434,o),
(533,446,qs),
(551,459,o),
(551,482,qs)
);
},
{
closed = 1;
nodes = (
(800,316,l),
(724,278,ls),
(701,267,o),
(701,232,qs),
(701,117,l),
(629,117,l),
(629,280,l),
(551,241,o),
(545,237,qs),
(529,224,o),
(529,188,qs),
(529,181,o),
(530,135,o),
(530,117,q),
(456,117,l),
(456,233,l),
(424,219,o),
(393,205,q),
(356,186,o),
(343,160,qs),
(334,143,o),
(333,116,qs),
(332,99,o),
(334,65,qs),
(337,28,o),
(337,14,q),
(337,14,l),
(337,-44,o),
(277,-95,o),
(233,-95,qs),
(185,-95,o),
(159,-65,qs),
(140,-42,o),
(131,5,q),
(125,46,o),
(120,87,q),
(59,63,o),
(59,-32,qs),
(59,-108,o),
(122,-156,qs),
(179,-201,o),
(257,-201,qs),
(338,-201,o),
(456,-81,o),
(455,0,q),
(744,0,ls),
(800,0,o),
(800,48,qs)
);
}
);
};
layerId = "65DE19D7-C0F2-4D8D-9C1D-34999E633ECA";
shapes = (
{
ref = "seen-ar";
},
{
pos = (646,-100);
ref = "threedotsupabove-ar";
}
);
width = 1380;
},
{
layerId = "FCEAB5BF-AFE7-45BC-83DB-D0DE89866BD6";
width = 600;
}
);
unicode = 1588;
userData = {
com.typemytype.robofont.mark = (
0.6,
0.986,
1,
1
);
};
},
{
color = 4;
glyphname = "sheen-ar.fina";
lastChange = "2019-05-17 23:45:35 +0000";
layers = (
{
background = {
shapes = (
{
closed = 1;
nodes = (
(679,605,o),
(662,618,qs),
(646,630,o),
(623,630,qs),
(600,630,o),
(584,618,qs),
(566,605,o),
(566,583,qs),
(566,561,o),
(584,548,qs),
(600,536,o),
(623,536,qs),
(646,536,o),
(679,561,o),
(679,583,qs)
);
},
{
closed = 1;
nodes = (
(776,488,o),
(758,501,qs),
(742,513,o),
(719,513,qs),
(696,513,o),
(680,501,qs),
(662,488,o),
(662,466,qs),
(662,444,o),
(680,431,qs),
(696,419,o),
(719,419,qs),
(742,419,o),
(776,444,o),
(776,466,qs)
);
},
{
closed = 1;
nodes = (
(583,488,o),
(565,501,qs),
(549,513,o),
(526,513,qs),
(503,513,o),
(487,501,qs),
(469,488,o),
(469,466,qs),
(469,444,o),
(487,431,qs),
(503,419,o),
(526,419,qs),
(549,419,o),
(565,431,qs),
(583,444,o),
(583,466,qs)
);
},
{
closed = 1;
nodes = (
(870,117,l),
(800,117,l),
(800,316,l),
(724,278,ls),
(701,267,o),
(701,232,qs),
(701,117,l),
(629,117,l),
(629,280,l),
(551,241,o),
(545,237,qs),
(529,224,o),
(529,188,qs),
(529,181,o),
(530,135,o),
(530,117,q),
(456,117,l),
(456,233,l),
(424,219,o),
(393,205,q),
(356,186,o),
(343,160,qs),
(333,139,o),
(333,104,qs),
(333,90,o),
(337,29,o),
(337,14,qs),
(337,-44,o),
(277,-95,o),
(233,-95,qs),
(185,-95,o),
(159,-65,qs),
(140,-42,o),
(131,5,q),
(125,46,o),
(120,87,q),
(59,63,o),
(59,-32,qs),
(59,-108,o),
(122,-156,qs),
(179,-201,o),
(257,-201,qs),
(338,-201,o),
(456,-81,o),
(455,0,q),
(870,0,l)
);
}
);
};
layerId = "65DE19D7-C0F2-4D8D-9C1D-34999E633ECA";
shapes = (
{
ref = "seen-ar.fina";
},
{
pos = (646,-100);
ref = "threedotsupabove-ar";
}
);
width = 1380;
},
{
layerId = "FCEAB5BF-AFE7-45BC-83DB-D0DE89866BD6";
width = 600;
}
);
unicode = 65206;
userData = {
com.typemytype.robofont.mark = (
0.6,
0.986,
1,
1
);
};
},
{
color = 4;
glyphname = "sheen-ar.medi";
lastChange = "2019-05-17 23:32:30 +0000";
layers = (
{
background = {
shapes = (
{
closed = 1;
nodes = (
(368,623,o),
(338,650,o),
(315,650,qs),
(261,650,o),
(261,600,qs),
(261,550,o),
(315,550,qs),
(338,550,o),
(368,578,o),
(368,600,qs)
);
},
{
closed = 1;
nodes = (
(459,498,o),
(429,525,o),
(406,525,qs),
(352,525,o),
(352,475,qs),
(352,425,o),
(406,425,qs),
(429,425,o),
(459,453,o),
(459,475,qs)
);
},
{
closed = 1;
nodes = (
(277,498,o),
(247,525,o),
(224,525,qs),
(170,525,o),
(170,475,qs),
(170,425,o),
(224,425,qs),
(247,425,o),
(277,453,o),
(277,475,qs)
);
},
{
closed = 1;
nodes = (
(621,117,l),
(550,117,l),
(550,316,l),
(474,278,ls),
(451,267,o),
(451,232,qs),
(451,117,l),
(379,117,l),
(379,280,l),
(300,241,o),
(295,237,qs),
(279,224,o),
(279,188,qs),
(279,181,o),
(280,135,o),
(280,117,q),
(206,117,l),
(206,233,l),
(163,211,o),
(119,189,q),
(107,178,o),
(107,117,q),
(0,117,l),
(-70,0,l),
(621,0,l)
);
}
);
};
layerId = "65DE19D7-C0F2-4D8D-9C1D-34999E633ECA";
shapes = (
{
ref = "seen-ar.medi";
},
{
pos = (286,-100);
ref = "threedotsupabove-ar";
}
);
width = 1020;
},
{
layerId = "FCEAB5BF-AFE7-45BC-83DB-D0DE89866BD6";
width = 600;
}
);
unicode = 65208;
userData = {
com.typemytype.robofont.mark = (
0.6,
0.986,
1,
1
);
};
},
{
color = 4;
glyphname = "sheen-ar.init";
lastChange = "2019-05-17 23:32:30 +0000";
layers = (
{
background = {
shapes = (
{
closed = 1;
nodes = (
(368,623,o),
(338,650,o),
(315,650,qs),
(261,650,o),
(261,600,qs),
(261,550,o),
(315,550,qs),
(338,550,o),
(368,578,o),
(368,600,qs)
);
},
{
closed = 1;
nodes = (
(459,498,o),
(429,525,o),
(406,525,qs),
(352,525,o),
(352,475,qs),
(352,425,o),
(406,425,qs),
(429,425,o),
(459,453,o),
(459,475,qs)
);
},
{
closed = 1;
nodes = (
(277,498,o),
(247,525,o),
(224,525,qs),
(170,525,o),
(170,475,qs),
(170,425,o),
(224,425,qs),
(247,425,o),
(277,453,o),
(277,475,qs)
);
},
{
closed = 1;
nodes = (
(550,316,l),
(476,279,o),
(466,271,qs),
(449,256,o),
(449,219,qs),
(449,211,o),
(451,145,o),
(451,117,q),
(379,117,l),
(379,280,l),
(300,241,o),
(295,237,qs),
(279,224,o),
(279,188,qs),
(279,182,o),
(280,135,o),
(280,117,q),
(206,117,l),
(206,233,l),
(123,191,ls),
(108,184,o),
(106,157,qs),
(107,167,o),
(107,117,q),
(0,117,l),
(-70,0,l),
(494,0,ls),
(550,0,o),
(550,48,qs)
);
}
);
};
layerId = "65DE19D7-C0F2-4D8D-9C1D-34999E633ECA";
shapes = (
{
ref = "seen-ar.init";
},
{
pos = (286,-100);
ref = "threedotsupabove-ar";
}
);
width = 1020;
},
{
layerId = "FCEAB5BF-AFE7-45BC-83DB-D0DE89866BD6";
width = 600;
}
);
unicode = 65207;
userData = {
com.typemytype.robofont.mark = (
0.6,
0.986,
1,
1
);
};
},
{
color = 9;
glyphname = "sad-ar";
lastChange = "2019-05-17 23:32:30 +0000";
layers = (
{
background = {
shapes = (
{
closed = 1;
nodes = (
(950,238,ls),
(950,264,o),
(936,283,qs),
(919,305,o),
(894,305,qs),
(539,305,ls),
(479,305,o),
(442,254,q),
(442,329,l),
(325,257,l),
(325,-10,ls),
(325,-49,o),
(293,-73,qs),
(264,-95,o),
(224,-95,qs),
(174,-95,o),
(149,-65,qs),
(129,-42,o),
(121,5,q),
(115,46,o),
(110,87,q),
(49,63,o),
(49,-32,qs),
(49,-108,o),
(111,-156,qs),
(169,-201,o),
(247,-201,qs),
(328,-201,o),
(446,-81,o),
(445,0,q),
(887,0,ls),
(912,0,o),
(950,36,o),
(950,61,qs)
);
},
{
closed = 1;
nodes = (
(442,117,l),
(442,205,l),
(791,205,ls),
(844,205,o),
(844,168,qs),
(844,117,l)
);
}
);
};
layerId = "65DE19D7-C0F2-4D8D-9C1D-34999E633ECA";
width = 600;
},
{
layerId = "FCEAB5BF-AFE7-45BC-83DB-D0DE89866BD6";
width = 600;
}
);
unicode = 1589;
},
{
color = 2;
glyphname = "sad-ar.fina";
lastChange = "2019-05-17 23:32:30 +0000";
layers = (
{
background = {
shapes = (
{
closed = 1;
nodes = (
(1020,117,l),
(945,117,l),
(945,230,ls),
(945,257,o),
(928,280,qs),
(910,305,o),
(884,305,qs),
(529,305,ls),
(472,305,o),
(432,254,q),
(432,329,l),
(315,257,l),
(315,-10,ls),
(315,-49,o),
(283,-73,qs),
(253,-95,o),
(213,-95,qs),
(165,-95,o),
(139,-65,qs),
(119,-42,o),
(111,5,qs),
(105,46,o),
(100,87,q),
(39,63,o),
(39,-32,qs),
(39,-108,o),
(102,-156,qs),
(159,-201,o),
(237,-201,qs),
(318,-201,o),
(436,-81,o),
(435,0,q),
(1020,0,l)
);
},
{
closed = 1;
nodes = (
(442,117,l),
(442,205,l),
(791,205,ls),
(844,205,o),
(844,168,qs),
(844,117,l)
);
}
);
};
layerId = "65DE19D7-C0F2-4D8D-9C1D-34999E633ECA";
width = 600;
},
{
layerId = "FCEAB5BF-AFE7-45BC-83DB-D0DE89866BD6";
width = 600;
}
);
unicode = 65210;
},
{
color = 2;
glyphname = "sad-ar.medi";
lastChange = "2019-05-17 23:32:30 +0000";
layers = (
{
background = {
shapes = (
{
closed = 1;
nodes = (
(770,117,l),
(700,117,l),
(700,244,ls),
(700,274,o),
(672,291,qs),
(648,305,o),
(617,305,qs),
(315,305,ls),
(258,305,o),
(218,254,q),
(218,329,l),
(118,257,l),
(118,117,l),
(0,117,l),
(-70,0,l),
(770,0,l)
);
},
{
closed = 1;
nodes = (
(218,117,l),
(218,205,l),
(540,205,ls),
(562,205,o),
(579,194,qs),
(600,182,o),
(600,162,qs),
(600,117,l)
);
}
);
};
layerId = "65DE19D7-C0F2-4D8D-9C1D-34999E633ECA";
width = 600;
},
{
layerId = "FCEAB5BF-AFE7-45BC-83DB-D0DE89866BD6";
width = 600;
}
);
unicode = 65212;
},
{
color = 9;
glyphname = "sad-ar.init";
lastChange = "2019-05-17 23:32:30 +0000";
layers = (
{
background = {
shapes = (
{
closed = 1;
nodes = (
(700,244,ls),
(700,274,o),
(672,291,qs),
(648,305,o),
(617,305,qs),
(315,305,ls),
(258,305,o),
(218,254,q),
(218,329,l),
(118,257,l),
(118,117,l),
(0,117,l),
(-70,0,l),
(650,0,ls),
(671,0,o),
(700,29,o),
(700,50,qs)
);
},
{
closed = 1;
nodes = (
(218,117,l),
(218,205,l),
(540,205,ls),
(562,205,o),
(579,194,qs),
(600,182,o),
(600,162,qs),
(600,117,l)
);
}
);
};
layerId = "65DE19D7-C0F2-4D8D-9C1D-34999E633ECA";
width = 600;
},
{
layerId = "FCEAB5BF-AFE7-45BC-83DB-D0DE89866BD6";
width = 600;
}
);
unicode = 65211;
},
{
color = 2;
glyphname = "dad-ar";
lastChange = "2019-05-17 23:32:30 +0000";
layers = (
{
background = {
shapes = (
{
closed = 1;
nodes = (
(720,587,o),
(692,615,o),
(670,615,qs),
(648,615,o),
(620,587,o),
(620,565,qs),
(620,543,o),
(648,515,o),
(670,515,qs),
(692,515,o),
(720,543,o),
(720,565,qs)
);
},
{
closed = 1;
nodes = (
(950,238,ls),
(950,264,o),
(936,283,qs),
(919,305,o),
(894,305,qs),
(539,305,ls),
(479,305,o),
(442,254,q),
(442,329,l),
(325,257,l),
(325,-10,ls),
(325,-49,o),
(293,-73,qs),
(264,-95,o),
(224,-95,qs),
(174,-95,o),
(149,-65,qs),
(129,-42,o),
(121,5,q),
(115,46,o),
(110,87,q),
(49,63,o),
(49,-32,qs),
(49,-108,o),
(111,-156,qs),
(169,-201,o),
(247,-201,qs),
(328,-201,o),
(446,-81,o),
(445,0,q),
(887,0,ls),
(912,0,o),
(950,36,o),
(950,61,qs)
);
},
{
closed = 1;
nodes = (
(442,117,l),
(442,205,l),
(791,205,ls),
(844,205,o),
(844,168,qs),
(844,117,l)
);
}
);
};
layerId = "65DE19D7-C0F2-4D8D-9C1D-34999E633ECA";
shapes = (
{
ref = "sad-ar";
},
{
ref = "dotabove-ar";
}
);
width = 600;
},
{
layerId = "FCEAB5BF-AFE7-45BC-83DB-D0DE89866BD6";
width = 600;
}
);
unicode = 1590;
},
{
color = 2;
glyphname = "dad-ar.fina";
lastChange = "2019-05-17 23:32:30 +0000";
layers = (
{
background = {
shapes = (
{
closed = 1;
nodes = (
(760,587,o),
(732,615,o),
(710,615,qs),
(688,615,o),
(660,587,o),
(660,565,qs),
(660,543,o),
(688,515,o),
(710,515,qs),
(732,515,o),
(760,543,o),
(760,565,qs)
);
},
{
closed = 1;
nodes = (
(1020,117,l),
(945,117,l),
(945,230,ls),
(945,257,o),
(928,280,qs),
(910,305,o),
(884,305,qs),
(529,305,ls),
(472,305,o),
(432,254,q),
(432,329,l),
(315,257,l),
(315,-10,ls),
(315,-49,o),
(283,-73,qs),
(253,-95,o),
(213,-95,qs),
(165,-95,o),
(139,-65,qs),
(119,-42,o),
(111,5,qs),
(105,46,o),
(100,87,q),
(39,63,o),
(39,-32,qs),
(39,-108,o),
(102,-156,qs),
(159,-201,o),
(237,-201,qs),
(318,-201,o),
(436,-81,o),
(435,0,q),
(1020,0,l)
);
},
{
closed = 1;
nodes = (
(442,117,l),
(442,205,l),
(791,205,ls),
(844,205,o),
(844,168,qs),
(844,117,l)
);
}
);
};
layerId = "65DE19D7-C0F2-4D8D-9C1D-34999E633ECA";
shapes = (
{
ref = "sad-ar.fina";
},
{
ref = "dotabove-ar";
}
);
width = 600;
},
{
layerId = "FCEAB5BF-AFE7-45BC-83DB-D0DE89866BD6";
width = 600;
}
);
unicode = 65214;
},
{
color = 2;
glyphname = "dad-ar.medi";
lastChange = "2019-05-17 23:32:30 +0000";
layers = (
{
background = {
shapes = (
{
closed = 1;
nodes = (
(505,565,o),
(453,565,qs),
(400,565,o),
(400,515,qs),
(400,465,o),
(453,465,qs),
(505,465,o),
(505,515,qs)
);
},
{
closed = 1;
nodes = (
(770,117,l),
(700,117,l),
(700,244,ls),
(700,274,o),
(672,291,qs),
(648,305,o),
(617,305,qs),
(315,305,ls),
(258,305,o),
(218,254,q),
(218,329,l),
(118,257,l),
(118,117,l),
(0,117,l),
(-70,0,l),
(770,0,l)
);
},
{
closed = 1;
nodes = (
(218,117,l),
(218,205,l),
(540,205,ls),
(562,205,o),
(579,194,qs),
(600,182,o),
(600,162,qs),
(600,117,l)
);
}
);
};
layerId = "65DE19D7-C0F2-4D8D-9C1D-34999E633ECA";
shapes = (
{
ref = "sad-ar.medi";
},
{
ref = "dotabove-ar";
}
);
width = 600;
},
{
layerId = "FCEAB5BF-AFE7-45BC-83DB-D0DE89866BD6";
width = 600;
}
);
unicode = 65216;
},
{
color = 2;
glyphname = "dad-ar.init";
lastChange = "2019-05-17 23:32:30 +0000";
layers = (
{
background = {
shapes = (
{
closed = 1;
nodes = (
(530,537,o),
(502,565,o),
(480,565,qs),
(458,565,o),
(430,537,o),
(430,515,qs),
(430,493,o),
(458,465,o),
(480,465,qs),
(502,465,o),
(530,493,o),
(530,515,qs)
);
},
{
closed = 1;
nodes = (
(700,244,ls),
(700,274,o),
(672,291,qs),
(648,305,o),
(617,305,qs),
(315,305,ls),
(258,305,o),
(218,254,q),
(218,329,l),
(118,257,l),
(118,117,l),
(0,117,l),
(-70,0,l),
(650,0,ls),
(671,0,o),
(700,29,o),
(700,50,qs)
);
},
{
closed = 1;
nodes = (
(218,117,l),
(218,205,l),
(540,205,ls),
(562,205,o),
(579,194,qs),
(600,182,o),
(600,162,qs),
(600,117,l)
);
}
);
};
layerId = "65DE19D7-C0F2-4D8D-9C1D-34999E633ECA";
shapes = (
{
ref = "sad-ar.init";
},
{
ref = "dotabove-ar";
}
);
width = 600;
},
{
layerId = "FCEAB5BF-AFE7-45BC-83DB-D0DE89866BD6";
width = 600;
}
);
unicode = 65215;
},
{
color = 9;
glyphname = "tah-ar";
lastChange = "2019-05-17 23:32:30 +0000";
layers = (
{
background = {
shapes = (
{
closed = 1;
nodes = (
(850,214,ls),
(850,247,o),
(842,260,qs),
(830,280,o),
(774,311,o),
(750,311,qs),
(411,311,ls),
(357,311,o),
(317,262,q),
(317,666,l),
(283,646,o),
(249,627,q),
(218,603,o),
(218,562,qs),
(218,117,l),
(80,117,l),
(40,0,l),
(800,0,ls),
(821,0,o),
(850,29,o),
(850,50,qs)
);
},
{
closed = 1;
nodes = (
(317,117,l),
(317,205,l),
(690,205,ls),
(711,205,o),
(729,193,qs),
(750,180,o),
(750,160,qs),
(750,117,l)
);
}
);
};
layerId = "65DE19D7-C0F2-4D8D-9C1D-34999E633ECA";
width = 600;
},
{
layerId = "FCEAB5BF-AFE7-45BC-83DB-D0DE89866BD6";
width = 600;
}
);
unicode = 1591;
},
{
color = 2;
glyphname = "tah-ar.fina";
lastChange = "2019-05-17 23:32:30 +0000";
layers = (
{
background = {
shapes = (
{
closed = 1;
nodes = (
(815,117,l),
(750,117,l),
(750,214,ls),
(750,244,o),
(745,255,qs),
(740,263,o),
(717,284,qs),
(687,311,o),
(650,311,qs),
(311,311,ls),
(257,311,o),
(217,262,q),
(217,666,l),
(183,646,o),
(149,627,q),
(118,603,o),
(118,562,qs),
(118,117,l),
(30,117,l),
(-10,0,l),
(820,0,l)
);
},
{
closed = 1;
nodes = (
(217,117,l),
(217,205,l),
(590,205,ls),
(611,205,o),
(629,193,qs),
(650,180,o),
(650,160,qs),
(650,117,l)
);
}
);
};
layerId = "65DE19D7-C0F2-4D8D-9C1D-34999E633ECA";
width = 600;
},
{
layerId = "FCEAB5BF-AFE7-45BC-83DB-D0DE89866BD6";
width = 600;
}
);
unicode = 65218;
},
{
color = 2;
glyphname = "tah-ar.medi";
lastChange = "2019-05-17 23:32:30 +0000";
layers = (
{
background = {
shapes = (
{
closed = 1;
nodes = (
(820,117,l),
(750,117,l),
(750,214,ls),
(750,244,o),
(745,255,qs),
(740,263,o),
(717,284,qs),
(687,311,o),
(650,311,qs),
(311,311,ls),
(257,311,o),
(217,262,q),
(217,666,l),
(183,646,o),
(149,627,q),
(118,603,o),
(118,562,qs),
(118,117,l),
(0,117,l),
(-70,0,l),
(820,0,l)
);
},
{
closed = 1;
nodes = (
(217,117,l),
(217,205,l),
(590,205,ls),
(611,205,o),
(629,193,qs),
(650,180,o),
(650,160,qs),
(650,117,l)
);
}
);
};
layerId = "65DE19D7-C0F2-4D8D-9C1D-34999E633ECA";
width = 600;
},
{
layerId = "FCEAB5BF-AFE7-45BC-83DB-D0DE89866BD6";
width = 600;
}
);
unicode = 65220;
},
{
color = 9;
glyphname = "tah-ar.init";
lastChange = "2019-05-17 23:32:30 +0000";
layers = (
{
background = {
shapes = (
{
closed = 1;
nodes = (
(750,214,ls),
(750,247,o),
(742,260,qs),
(729,280,o),
(674,311,o),
(650,311,qs),
(311,311,ls),
(257,311,o),
(217,262,q),
(217,666,l),
(183,646,o),
(149,627,q),
(118,603,o),
(118,562,qs),
(118,117,l),
(0,117,l),
(-70,0,l),
(700,0,ls),
(721,0,o),
(750,29,o),
(750,50,qs)
);
},
{
closed = 1;
nodes = (
(217,117,l),
(217,205,l),
(590,205,ls),
(611,205,o),
(629,193,qs),
(650,180,o),
(650,160,qs),
(650,117,l)
);
}
);
};
layerId = "65DE19D7-C0F2-4D8D-9C1D-34999E633ECA";
width = 600;
},
{
layerId = "FCEAB5BF-AFE7-45BC-83DB-D0DE89866BD6";
width = 600;
}
);
unicode = 65219;
},
{
color = 2;
glyphname = "zah-ar";
lastChange = "2019-05-17 23:32:30 +0000";
layers = (
{
background = {
shapes = (
{
closed = 1;
nodes = (
(635,577,o),
(607,605,o),
(585,605,qs),
(563,605,o),
(535,577,o),
(535,555,qs),
(535,533,o),
(563,505,o),
(585,505,qs),
(607,505,o),
(635,533,o),
(635,555,qs)
);
},
{
closed = 1;
nodes = (
(860,214,ls),
(860,247,o),
(852,260,qs),
(839,280,o),
(784,311,o),
(760,311,qs),
(421,311,ls),
(368,311,o),
(327,262,q),
(327,666,l),
(293,646,o),
(259,627,q),
(228,603,o),
(228,562,qs),
(228,117,l),
(90,117,l),
(50,0,l),
(810,0,ls),
(831,0,o),
(860,29,o),
(860,50,qs)
);
},
{
closed = 1;
nodes = (
(327,117,l),
(327,205,l),
(700,205,ls),
(721,205,o),
(739,193,qs),
(760,180,o),
(760,160,qs),
(760,117,l)
);
}
);
};
layerId = "65DE19D7-C0F2-4D8D-9C1D-34999E633ECA";
shapes = (
{
ref = "tah-ar";
},
{
ref = "dotabove-ar";
}
);
width = 600;
},
{
layerId = "FCEAB5BF-AFE7-45BC-83DB-D0DE89866BD6";
width = 600;
}
);
unicode = 1592;
},
{
color = 2;
glyphname = "zah-ar.fina";
lastChange = "2019-05-17 23:32:30 +0000";
layers = (
{
background = {
shapes = (
{
closed = 1;
nodes = (
(535,577,o),
(507,605,o),
(485,605,qs),
(463,605,o),
(435,577,o),
(435,555,qs),
(435,533,o),
(463,505,o),
(485,505,qs),
(507,505,o),
(535,533,o),
(535,555,qs)
);
},
{
closed = 1;
nodes = (
(815,117,l),
(750,117,l),
(750,214,ls),
(750,244,o),
(745,255,qs),
(740,263,o),
(717,284,qs),
(687,311,o),
(650,311,qs),
(311,311,ls),
(257,311,o),
(217,262,q),
(217,666,l),
(183,646,o),
(149,627,q),
(118,603,o),
(118,562,qs),
(118,117,l),
(30,117,l),
(-10,0,l),
(820,0,l)
);
},
{
closed = 1;
nodes = (
(217,117,l),
(217,205,l),
(590,205,ls),
(611,205,o),
(629,193,qs),
(650,180,o),
(650,160,qs),
(650,117,l)
);
}
);
};
layerId = "65DE19D7-C0F2-4D8D-9C1D-34999E633ECA";
shapes = (
{
ref = "tah-ar.fina";
},
{
ref = "dotabove-ar";
}
);
width = 600;
},
{
layerId = "FCEAB5BF-AFE7-45BC-83DB-D0DE89866BD6";
width = 600;
}
);
unicode = 65222;
},
{
color = 2;
glyphname = "zah-ar.medi";
lastChange = "2019-05-17 23:32:30 +0000";
layers = (
{
background = {
shapes = (
{
closed = 1;
nodes = (
(495,542,o),
(467,570,o),
(445,570,qs),
(423,570,o),
(395,542,o),
(395,520,qs),
(395,498,o),
(423,470,o),
(445,470,qs),
(467,470,o),
(495,498,o),
(495,520,qs)
);
},
{
closed = 1;
nodes = (
(820,117,l),
(750,117,l),
(750,214,ls),
(750,244,o),
(745,255,qs),
(740,263,o),
(717,284,qs),
(687,311,o),
(650,311,qs),
(311,311,ls),
(257,311,o),
(217,262,q),
(217,666,l),
(183,646,o),
(149,627,q),
(118,603,o),
(118,562,qs),
(118,117,l),
(0,117,l),
(-70,0,l),
(820,0,l)
);
},
{
closed = 1;
nodes = (
(217,117,l),
(217,205,l),
(590,205,ls),
(611,205,o),
(629,193,qs),
(650,180,o),
(650,160,qs),
(650,117,l)
);
}
);
};
layerId = "65DE19D7-C0F2-4D8D-9C1D-34999E633ECA";
shapes = (
{
ref = "tah-ar.medi";
},
{
ref = "dotabove-ar";
}
);
width = 600;
},
{
layerId = "FCEAB5BF-AFE7-45BC-83DB-D0DE89866BD6";
width = 600;
}
);
unicode = 65224;
},
{
color = 2;
glyphname = "zah-ar.init";
lastChange = "2019-05-17 23:32:30 +0000";
layers = (
{
background = {
shapes = (
{
closed = 1;
nodes = (
(535,577,o),
(507,605,o),
(485,605,qs),
(463,605,o),
(435,577,o),
(435,555,qs),
(435,533,o),
(463,505,o),
(485,505,qs),
(507,505,o),
(535,533,o),
(535,555,qs)
);
},
{
closed = 1;
nodes = (
(750,214,ls),
(750,247,o),
(742,260,qs),
(729,280,o),
(674,311,o),
(650,311,qs),
(311,311,ls),
(257,311,o),
(217,262,q),
(217,666,l),
(183,646,o),
(149,627,q),
(118,603,o),
(118,562,qs),
(118,117,l),
(0,117,l),
(-70,0,l),
(700,0,ls),
(721,0,o),
(750,29,o),
(750,50,qs)
);
},
{
closed = 1;
nodes = (
(217,117,l),
(217,205,l),
(590,205,ls),
(611,205,o),
(629,193,qs),
(650,180,o),
(650,160,qs),
(650,117,l)
);
}
);
};
layerId = "65DE19D7-C0F2-4D8D-9C1D-34999E633ECA";
shapes = (
{
ref = "tah-ar.init";
},
{
ref = "dotabove-ar";
}
);
width = 600;
},
{
layerId = "FCEAB5BF-AFE7-45BC-83DB-D0DE89866BD6";
width = 600;
}
);
unicode = 65223;
},
{
color = 9;
glyphname = "ain-ar";
lastChange = "2019-05-17 23:55:38 +0000";
layers = (
{
background = {
shapes = (
{
closed = 1;
nodes = (
(500,-101,l),
(199,-101,ls),
(184,-101,o),
(175,-85,qs),
(168,-72,o),
(168,-57,qs),
(168,0,o),
(204,0,qs),
(433,0,ls),
(500,0,o),
(500,54,qs),
(500,117,l),
(377,117,ls),
(343,117,o),
(320,159,qs),
(309,179,o),
(309,193,qs),
(309,208,o),
(323,208,qs),
(500,208,l),
(500,374,l),
(490,359,o),
(479,345,qs),
(467,329,o),
(451,328,qs),
(409,323,o),
(330,323,qs),
(263,323,o),
(231,300,qs),
(193,273,o),
(193,208,qs),
(193,160,o),
(231,117,q),
(161,117,o),
(63,19,o),
(63,-52,qs),
(63,-122,o),
(162,-220,o),
(231,-220,qs),
(451,-220,ls),
(472,-220,o),
(500,-190,o),
(500,-170,qs)
);
}
);
};
layerId = "65DE19D7-C0F2-4D8D-9C1D-34999E633ECA";
shapes = (
{
closed = 1;
nodes = (
(180,320,o),
(120,260,o),
(120,180,cs),
(120,0,l),
(440,0,l),
(440,100,l),
(240,100,l),
(240,220,l),
(440,220,l),
(440,320,l),
(280,320,ls)
);
},
{
closed = 1;
nodes = (
(40,100,o),
(-20,40,o),
(-20,-40,cs),
(-20,-220,l),
(440,-220,l),
(440,-120,l),
(100,-120,l),
(100,0,l),
(360,0,l),
(360,100,l),
(140,100,ls)
);
}
);
width = 560;
},
{
layerId = "FCEAB5BF-AFE7-45BC-83DB-D0DE89866BD6";
width = 600;
}
);
unicode = 1593;
},
{
color = 9;
glyphname = "ain-ar.fina";
lastChange = "2019-05-17 23:32:30 +0000";
layers = (
{
background = {
shapes = (
{
closed = 1;
nodes = (
(570,117,l),
(377,117,ls),
(353,117,o),
(308,168,o),
(308,192,qs),
(308,208,o),
(323,208,qs),
(500,208,l),
(500,374,l),
(473,338,ls),
(466,329,o),
(451,328,qs),
(410,323,o),
(330,323,qs),
(264,323,o),
(231,300,qs),
(193,273,o),
(193,208,qs),
(193,160,o),
(231,117,q),
(161,117,o),
(63,19,o),
(63,-52,qs),
(63,-122,o),
(162,-220,o),
(231,-220,qs),
(451,-220,ls),
(472,-220,o),
(500,-190,o),
(500,-170,qs),
(500,-101,l),
(199,-101,ls),
(168,-101,o),
(168,-52,qs),
(168,0,o),
(204,0,qs),
(570,0,l)
);
}
);
};
layerId = "65DE19D7-C0F2-4D8D-9C1D-34999E633ECA";
width = 600;
},
{
layerId = "FCEAB5BF-AFE7-45BC-83DB-D0DE89866BD6";
width = 600;
}
);
unicode = 65226;
},
{
color = 9;
glyphname = "ain-ar.medi";
lastChange = "2019-05-17 23:32:30 +0000";
layers = (
{
background = {
shapes = (
{
closed = 1;
nodes = (
(520,117,l),
(327,117,ls),
(303,117,o),
(258,168,o),
(258,192,qs),
(258,208,o),
(273,208,qs),
(450,208,l),
(450,379,l),
(421,337,ls),
(411,323,o),
(334,323,qs),
(321,323,o),
(268,325,o),
(255,325,qs),
(208,325,o),
(177,297,qs),
(145,267,o),
(145,221,qs),
(145,189,o),
(181,117,q),
(0,117,l),
(-70,0,l),
(520,0,l)
);
}
);
};
layerId = "65DE19D7-C0F2-4D8D-9C1D-34999E633ECA";
width = 600;
},
{
layerId = "FCEAB5BF-AFE7-45BC-83DB-D0DE89866BD6";
width = 600;
}
);
unicode = 65228;
},
{
color = 9;
glyphname = "ain-ar.init";
lastChange = "2019-05-17 23:57:36 +0000";
layers = (
{
background = {
shapes = (
{
closed = 1;
nodes = (
(450,117,l),
(327,117,ls),
(293,117,o),
(270,159,qs),
(259,179,o),
(259,193,qs),
(259,208,o),
(273,208,qs),
(450,208,l),
(450,379,l),
(421,337,ls),
(416,330,o),
(378,325,qs),
(348,321,o),
(330,321,qs),
(317,321,o),
(264,325,o),
(251,325,qs),
(207,325,o),
(145,266,o),
(145,221,qs),
(145,189,o),
(181,117,q),
(0,117,l),
(-70,0,l),
(390,0,ls),
(450,0,o),
(450,60,qs)
);
}
);
};
layerId = "65DE19D7-C0F2-4D8D-9C1D-34999E633ECA";
shapes = (
{
closed = 1;
nodes = (
(240,320,o),
(180,260,o),
(180,180,cs),
(180,100,l),
(-10,100,l),
(-10,0,l),
(500,0,l),
(500,100,l),
(300,100,l),
(300,220,l),
(500,220,l),
(500,320,l),
(340,320,ls)
);
}
);
width = 620;
},
{
layerId = "FCEAB5BF-AFE7-45BC-83DB-D0DE89866BD6";
width = 600;
}
);
unicode = 65227;
},
{
color = 2;
glyphname = "ghain-ar";
lastChange = "2020-03-16 16:13:42 +0000";
layers = (
{
background = {
shapes = (
{
closed = 1;
nodes = (
(440,562,o),
(412,590,o),
(390,590,qs),
(368,590,o),
(340,562,o),
(340,540,qs),
(340,518,o),
(368,490,o),
(390,490,qs),
(412,490,o),
(440,518,o),
(440,540,qs)
);
},
{
closed = 1;
nodes = (
(500,-101,l),
(199,-101,ls),
(184,-101,o),
(175,-85,qs),
(168,-72,o),
(168,-57,qs),
(168,0,o),
(204,0,qs),
(433,0,ls),
(500,0,o),
(500,54,qs),
(500,117,l),
(377,117,ls),
(343,117,o),
(320,159,qs),
(309,179,o),
(309,193,qs),
(309,208,o),
(323,208,qs),
(500,208,l),
(500,374,l),
(490,359,o),
(479,345,qs),
(467,329,o),
(451,328,qs),
(409,323,o),
(330,323,qs),
(263,323,o),
(231,300,qs),
(193,273,o),
(193,208,qs),
(193,160,o),
(231,117,q),
(161,117,o),
(63,19,o),
(63,-52,qs),
(63,-122,o),
(162,-220,o),
(231,-220,qs),
(451,-220,ls),
(472,-220,o),
(500,-190,o),
(500,-170,qs)
);
}
);
};
layerId = "65DE19D7-C0F2-4D8D-9C1D-34999E633ECA";
shapes = (
{
ref = "ain-ar";
},
{
ref = "dotabove-ar";
}
);
width = 560;
},
{
layerId = "FCEAB5BF-AFE7-45BC-83DB-D0DE89866BD6";
width = 600;
}
);
unicode = 1594;
},
{
color = 2;
glyphname = "ghain-ar.fina";
lastChange = "2019-05-17 23:32:30 +0000";
layers = (
{
background = {
shapes = (
{
closed = 1;
nodes = (
(440,562,o),
(412,590,o),
(390,590,qs),
(368,590,o),
(340,562,o),
(340,540,qs),
(340,518,o),
(368,490,o),
(390,490,qs),
(412,490,o),
(440,518,o),
(440,540,qs)
);
},
{
closed = 1;
nodes = (
(570,117,l),
(377,117,ls),
(353,117,o),
(308,168,o),
(308,192,qs),
(308,208,o),
(323,208,qs),
(500,208,l),
(500,374,l),
(473,338,ls),
(466,329,o),
(451,328,qs),
(410,323,o),
(330,323,qs),
(264,323,o),
(231,300,qs),
(193,273,o),
(193,208,qs),
(193,160,o),
(231,117,q),
(161,117,o),
(63,19,o),
(63,-52,qs),
(63,-122,o),
(162,-220,o),
(231,-220,qs),
(451,-220,ls),
(472,-220,o),
(500,-190,o),
(500,-170,qs),
(500,-101,l),
(199,-101,ls),
(168,-101,o),
(168,-52,qs),
(168,0,o),
(204,0,qs),
(570,0,l)
);
}
);
};
layerId = "65DE19D7-C0F2-4D8D-9C1D-34999E633ECA";
shapes = (
{
ref = "ain-ar.fina";
},
{
ref = "dotabove-ar";
}
);
width = 600;
},
{
layerId = "FCEAB5BF-AFE7-45BC-83DB-D0DE89866BD6";
width = 600;
}
);
unicode = 65230;
},
{
color = 2;
glyphname = "ghain-ar.medi";
lastChange = "2019-05-17 23:32:30 +0000";
layers = (
{
background = {
shapes = (
{
closed = 1;
nodes = (
(380,552,o),
(352,580,o),
(330,580,qs),
(308,580,o),
(280,552,o),
(280,530,qs),
(280,508,o),
(308,480,o),
(330,480,qs),
(352,480,o),
(380,508,o),
(380,530,qs)
);
},
{
closed = 1;
nodes = (
(520,117,l),
(327,117,ls),
(303,117,o),
(258,168,o),
(258,192,qs),
(258,208,o),
(273,208,qs),
(450,208,l),
(450,379,l),
(421,337,ls),
(411,323,o),
(334,323,qs),
(321,323,o),
(268,325,o),
(255,325,qs),
(208,325,o),
(177,297,qs),
(145,267,o),
(145,221,qs),
(145,189,o),
(181,117,q),
(0,117,l),
(-70,0,l),
(520,0,l)
);
}
);
};
layerId = "65DE19D7-C0F2-4D8D-9C1D-34999E633ECA";
shapes = (
{
ref = "ain-ar.medi";
},
{
ref = "dotabove-ar";
}
);
width = 600;
},
{
layerId = "FCEAB5BF-AFE7-45BC-83DB-D0DE89866BD6";
width = 600;
}
);
unicode = 65232;
},
{
color = 2;
glyphname = "ghain-ar.init";
lastChange = "2020-03-16 16:13:42 +0000";
layers = (
{
background = {
shapes = (
{
closed = 1;
nodes = (
(380,552,o),
(352,580,o),
(330,580,qs),
(308,580,o),
(280,552,o),
(280,530,qs),
(280,508,o),
(308,480,o),
(330,480,qs),
(352,480,o),
(380,508,o),
(380,530,qs)
);
},
{
closed = 1;
nodes = (
(450,117,l),
(327,117,ls),
(293,117,o),
(270,159,qs),
(259,179,o),
(259,193,qs),
(259,208,o),
(273,208,qs),
(450,208,l),
(450,379,l),
(438,360,o),
(426,342,q),
(414,327,o),
(390,327,qs),
(381,327,o),
(345,323,o),
(335,323,qs),
(322,323,o),
(268,325,o),
(254,325,qs),
(208,325,o),
(177,296,qs),
(145,267,o),
(145,221,qs),
(145,189,o),
(181,117,q),
(0,117,l),
(-70,0,l),
(390,0,ls),
(450,0,o),
(450,60,qs)
);
}
);
};
layerId = "65DE19D7-C0F2-4D8D-9C1D-34999E633ECA";
shapes = (
{
ref = "ain-ar.init";
},
{
ref = "dotabove-ar";
}
);
width = 620;
},
{
layerId = "FCEAB5BF-AFE7-45BC-83DB-D0DE89866BD6";
width = 600;
}
);
unicode = 65231;
},
{
color = 4;
glyphname = "feh-ar";
lastChange = "2019-05-17 23:51:18 +0000";
layers = (
{
background = {
shapes = (
{
closed = 1;
nodes = (
(620,627,o),
(592,655,o),
(570,655,qs),
(548,655,o),
(520,627,o),
(520,605,qs),
(520,583,o),
(548,555,o),
(570,555,qs),
(592,555,o),
(620,583,o),
(620,605,qs)
);
},
{
closed = 1;
nodes = (
(700,451,l),
(660,406,o),
(587,406,qs),
(573,406,o),
(520,410,o),
(507,410,qs),
(448,410,o),
(392,343,o),
(392,296,qs),
(392,255,o),
(417,224,qs),
(444,191,o),
(483,191,qs),
(583,191,l),
(583,117,l),
(161,117,l),
(161,237,l),
(83,191,ls),
(45,168,o),
(45,124,qs),
(45,50,ls),
(45,32,o),
(81,0,o),
(99,0,qs),
(663,0,ls),
(683,0,o),
(693,30,qs),
(700,51,o),
(700,75,qs)
);
},
{
closed = 1;
nodes = (
(520,271,ls),
(489,271,o),
(489,299,qs),
(489,331,o),
(522,331,qs),
(583,331,l),
(583,271,l)
);
}
);
};
guides = (
{
angle = 90;
pos = (900,0);
},
{
angle = 90;
pos = (780,0);
},
{
angle = 90;
pos = (660,0);
},
{
angle = 90;
pos = (540,0);
},
{
angle = 90;
pos = (420,0);
},
{
angle = 90;
pos = (300,0);
},
{
angle = 90;
pos = (180,0);
},
{
angle = 90;
pos = (60,0);
}
);
layerId = "65DE19D7-C0F2-4D8D-9C1D-34999E633ECA";
shapes = (
{
ref = "fehDotless-ar";
},
{
pos = (525,0);
ref = "dotabove-ar";
}
);
width = 1020;
},
{
layerId = "FCEAB5BF-AFE7-45BC-83DB-D0DE89866BD6";
width = 600;
}
);
metricLeft = "fehDotless-ar";
metricRight = "fehDotless-ar";
unicode = 1601;
},
{
color = 4;
glyphname = "feh-ar.fina";
lastChange = "2019-05-17 23:32:30 +0000";
layers = (
{
background = {
shapes = (
{
closed = 1;
nodes = (
(625,607,o),
(597,635,o),
(575,635,qs),
(553,635,o),
(525,607,o),
(525,585,qs),
(525,563,o),
(553,535,o),
(575,535,qs),
(597,535,o),
(625,563,o),
(625,585,qs)
);
},
{
closed = 1;
nodes = (
(770,117,l),
(700,117,l),
(700,437,l),
(675,410,o),
(640,401,qs),
(614,394,o),
(574,396,qs),
(495,399,o),
(508,399,q),
(508,399,l),
(450,399,o),
(392,336,o),
(392,293,qs),
(392,255,o),
(417,226,qs),
(444,195,o),
(483,195,qs),
(583,195,l),
(583,117,l),
(161,117,l),
(161,237,l),
(83,191,ls),
(45,168,o),
(45,124,qs),
(45,50,ls),
(45,32,o),
(81,0,o),
(99,0,qs),
(770,0,l)
);
},
{
closed = 1;
nodes = (
(520,270,ls),
(489,270,o),
(489,293,qs),
(489,325,o),
(522,325,qs),
(583,325,l),
(583,270,l)
);
}
);
};
layerId = "65DE19D7-C0F2-4D8D-9C1D-34999E633ECA";
shapes = (
{
ref = "fehDotless-ar.fina";
},
{
pos = (525,0);
ref = "dotabove-ar";
}
);
width = 1020;
},
{
layerId = "FCEAB5BF-AFE7-45BC-83DB-D0DE89866BD6";
width = 600;
}
);
unicode = 65234;
userData = {
com.typemytype.robofont.mark = (
0.6,
0.986,
1,
1
);
};
},
{
color = 4;
glyphname = "feh-ar.medi";
lastChange = "2019-05-17 23:32:30 +0000";
layers = (
{
background = {
shapes = (
{
closed = 1;
nodes = (
(395,567,o),
(367,595,o),
(345,595,qs),
(323,595,o),
(295,567,o),
(295,545,qs),
(295,523,o),
(323,495,o),
(345,495,qs),
(367,495,o),
(395,523,o),
(395,545,qs)
);
},
{
closed = 1;
nodes = (
(520,117,l),
(450,117,l),
(450,388,l),
(425,363,o),
(392,354,qs),
(368,347,o),
(331,348,qs),
(235,350,o),
(271,350,q),
(271,350,l),
(215,350,o),
(159,292,o),
(159,252,qs),
(159,213,o),
(185,184,qs),
(212,154,o),
(250,154,qs),
(350,154,l),
(350,117,l),
(0,117,l),
(-70,0,l),
(520,0,l)
);
},
{
closed = 1;
nodes = (
(287,226,ls),
(256,226,o),
(256,251,qs),
(256,280,o),
(289,280,qs),
(350,280,l),
(350,226,l)
);
}
);
};
layerId = "65DE19D7-C0F2-4D8D-9C1D-34999E633ECA";
shapes = (
{
ref = "fehDotless-ar.medi";
},
{
pos = (166,0);
ref = "dotabove-ar";
}
);
width = 660;
},
{
layerId = "FCEAB5BF-AFE7-45BC-83DB-D0DE89866BD6";
width = 600;
}
);
unicode = 65236;
userData = {
com.typemytype.robofont.mark = (
0.6,
0.986,
1,
1
);
};
},
{
color = 4;
glyphname = "feh-ar.init";
lastChange = "2019-05-17 23:32:30 +0000";
layers = (
{
background = {
shapes = (
{
closed = 1;
nodes = (
(360,627,o),
(332,655,o),
(310,655,qs),
(288,655,o),
(260,627,o),
(260,605,qs),
(260,583,o),
(288,555,o),
(310,555,qs),
(332,555,o),
(360,583,o),
(360,605,qs)
);
},
{
closed = 1;
nodes = (
(450,451,l),
(410,407,o),
(340,407,qs),
(328,407,o),
(282,409,o),
(271,409,qs),
(214,409,o),
(159,343,o),
(159,296,qs),
(159,255,o),
(185,224,qs),
(211,191,o),
(250,191,qs),
(350,191,l),
(350,117,l),
(0,117,l),
(-70,0,l),
(413,0,ls),
(433,0,o),
(443,30,qs),
(450,51,o),
(450,75,qs)
);
},
{
closed = 1;
nodes = (
(287,271,ls),
(256,271,o),
(256,299,qs),
(256,331,o),
(289,331,qs),
(350,331,l),
(350,271,l)
);
}
);
};
layerId = "65DE19D7-C0F2-4D8D-9C1D-34999E633ECA";
shapes = (
{
ref = "fehDotless-ar.init";
},
{
pos = (166,0);
ref = "dotabove-ar";
}
);
width = 660;
},
{
layerId = "FCEAB5BF-AFE7-45BC-83DB-D0DE89866BD6";
width = 600;
}
);
unicode = 65235;
},
{
color = 4;
glyphname = "veh-ar";
lastChange = "2019-05-17 23:32:30 +0000";
layers = (
{
background = {
shapes = (
{
closed = 1;
nodes = (
(614,655,o),
(564,655,qs),
(514,655,o),
(514,617,qs),
(514,580,o),
(564,580,qs),
(614,580,o),
(614,617,qs)
);
},
{
closed = 1;
nodes = (
(699,561,o),
(649,561,qs),
(599,561,o),
(599,523,qs),
(599,486,o),
(649,486,qs),
(699,486,o),
(699,523,qs)
);
},
{
closed = 1;
nodes = (
(529,561,o),
(479,561,qs),
(429,561,o),
(429,523,qs),
(429,486,o),
(479,486,qs),
(529,486,o),
(529,523,qs)
);
},
{
closed = 1;
nodes = (
(750,434,l),
(710,392,o),
(638,392,qs),
(624,392,o),
(571,395,o),
(558,395,qs),
(499,395,o),
(442,331,o),
(442,287,qs),
(442,248,o),
(493,187,o),
(533,187,qs),
(633,187,l),
(633,117,l),
(211,117,l),
(211,231,l),
(133,187,ls),
(95,166,o),
(95,124,qs),
(95,47,ls),
(95,29,o),
(131,0,o),
(149,0,qs),
(713,0,ls),
(750,0,o),
(750,71,qs)
);
},
{
closed = 1;
nodes = (
(570,263,ls),
(559,263,o),
(539,279,o),
(539,290,qs),
(539,320,o),
(572,320,qs),
(633,320,l),
(633,263,l)
);
}
);
};
layerId = "65DE19D7-C0F2-4D8D-9C1D-34999E633ECA";
shapes = (
{
ref = "fehDotless-ar";
},
{
pos = (435,0);
ref = "threedotsupabove-ar";
}
);
width = 1020;
},
{
layerId = "FCEAB5BF-AFE7-45BC-83DB-D0DE89866BD6";
width = 600;
}
);
unicode = 1700;
},
{
color = 4;
glyphname = "veh-ar.fina";
lastChange = "2019-05-17 23:32:30 +0000";
layers = (
{
background = {
shapes = (
{
closed = 1;
nodes = (
(614,655,o),
(564,655,qs),
(514,655,o),
(514,617,qs),
(514,580,o),
(564,580,qs),
(614,580,o),
(614,617,qs)
);
},
{
closed = 1;
nodes = (
(699,561,o),
(649,561,qs),
(599,561,o),
(599,523,qs),
(599,486,o),
(649,486,qs),
(699,486,o),
(699,523,qs)
);
},
{
closed = 1;
nodes = (
(529,561,o),
(479,561,qs),
(429,561,o),
(429,523,qs),
(429,486,o),
(479,486,qs),
(529,486,o),
(529,523,qs)
);
},
{
closed = 1;
nodes = (
(770,117,l),
(700,117,l),
(700,437,l),
(675,410,o),
(640,401,qs),
(614,394,o),
(574,396,qs),
(495,399,o),
(508,399,q),
(508,399,l),
(450,399,o),
(392,336,o),
(392,293,qs),
(392,255,o),
(417,226,qs),
(444,195,o),
(483,195,qs),
(583,195,l),
(583,117,l),
(161,117,l),
(161,237,l),
(83,191,ls),
(45,168,o),
(45,124,qs),
(45,50,ls),
(45,32,o),
(81,0,o),
(99,0,qs),
(770,0,l)
);
},
{
closed = 1;
nodes = (
(520,270,ls),
(489,270,o),
(489,293,qs),
(489,325,o),
(522,325,qs),
(583,325,l),
(583,270,l)
);
}
);
};
layerId = "65DE19D7-C0F2-4D8D-9C1D-34999E633ECA";
shapes = (
{
ref = "fehDotless-ar.fina";
},
{
pos = (435,0);
ref = "threedotsupabove-ar";
}
);
width = 1020;
},
{
layerId = "FCEAB5BF-AFE7-45BC-83DB-D0DE89866BD6";
width = 600;
}
);
unicode = 64363;
},
{
color = 4;
glyphname = "veh-ar.medi";
lastChange = "2019-05-17 23:32:30 +0000";
layers = (
{
background = {
shapes = (
{
closed = 1;
nodes = (
(324,655,o),
(274,655,qs),
(224,655,o),
(224,617,qs),
(224,580,o),
(274,580,qs),
(324,580,o),
(324,617,qs)
);
},
{
closed = 1;
nodes = (
(409,561,o),
(359,561,qs),
(309,561,o),
(309,523,qs),
(309,486,o),
(359,486,qs),
(409,486,o),
(409,523,qs)
);
},
{
closed = 1;
nodes = (
(239,561,o),
(189,561,qs),
(139,561,o),
(139,523,qs),
(139,486,o),
(189,486,qs),
(239,486,o),
(239,523,qs)
);
},
{
closed = 1;
nodes = (
(520,117,l),
(450,117,l),
(450,388,l),
(425,363,o),
(392,354,qs),
(368,347,o),
(331,348,qs),
(235,350,o),
(271,350,q),
(271,350,l),
(215,350,o),
(159,292,o),
(159,252,qs),
(159,213,o),
(185,184,qs),
(212,154,o),
(250,154,qs),
(350,154,l),
(350,117,l),
(0,117,l),
(-70,0,l),
(520,0,l)
);
},
{
closed = 1;
nodes = (
(287,226,ls),
(256,226,o),
(256,251,qs),
(256,280,o),
(289,280,qs),
(350,280,l),
(350,226,l)
);
}
);
};
layerId = "65DE19D7-C0F2-4D8D-9C1D-34999E633ECA";
shapes = (
{
ref = "fehDotless-ar.medi";
},
{
pos = (76,0);
ref = "threedotsupabove-ar";
}
);
width = 660;
},
{
layerId = "FCEAB5BF-AFE7-45BC-83DB-D0DE89866BD6";
width = 600;
}
);
unicode = 64365;
},
{
color = 4;
glyphname = "veh-ar.init";
lastChange = "2019-05-17 23:32:30 +0000";
layers = (
{
background = {
shapes = (
{
closed = 1;
nodes = (
(324,655,o),
(274,655,qs),
(224,655,o),
(224,617,qs),
(224,580,o),
(274,580,qs),
(324,580,o),
(324,617,qs)
);
},
{
closed = 1;
nodes = (
(409,561,o),
(359,561,qs),
(309,561,o),
(309,523,qs),
(309,486,o),
(359,486,qs),
(409,486,o),
(409,523,qs)
);
},
{
closed = 1;
nodes = (
(239,561,o),
(189,561,qs),
(139,561,o),
(139,523,qs),
(139,486,o),
(189,486,qs),
(239,486,o),
(239,523,qs)
);
},
{
closed = 1;
nodes = (
(450,451,l),
(410,407,o),
(340,407,qs),
(328,407,o),
(282,409,o),
(271,409,qs),
(214,409,o),
(159,343,o),
(159,296,qs),
(159,255,o),
(185,224,qs),
(211,191,o),
(250,191,qs),
(350,191,l),
(350,117,l),
(0,117,l),
(-70,0,l),
(413,0,ls),
(433,0,o),
(443,30,qs),
(450,51,o),
(450,75,qs)
);
},
{
closed = 1;
nodes = (
(287,271,ls),
(256,271,o),
(256,299,qs),
(256,331,o),
(289,331,qs),
(350,331,l),
(350,271,l)
);
}
);
};
layerId = "65DE19D7-C0F2-4D8D-9C1D-34999E633ECA";
shapes = (
{
ref = "fehDotless-ar.init";
},
{
pos = (76,0);
ref = "threedotsupabove-ar";
}
);
width = 660;
},
{
layerId = "FCEAB5BF-AFE7-45BC-83DB-D0DE89866BD6";
width = 600;
}
);
unicode = 64364;
},
{
color = 9;
glyphname = "fehDotless-ar";
lastChange = "2019-05-17 23:44:15 +0000";
layers = (
{
anchors = (
{
name = bottom;
pos = (510,0);
},
{
name = init;
pos = (840,100);
},
{
name = top;
pos = (689,500);
}
);
background = {
shapes = (
{
closed = 1;
nodes = (
(780,300,l),
(780,160,ls),
(780,120,o),
(759,100,o),
(720,100,cs),
(240,100,l),
(240,300,l),
(120,300,l),
(120,140,ls),
(120,60,o),
(180,0,o),
(280,0,cs),
(720,0,ls),
(839,0,o),
(900,60,o),
(900,160,cs),
(900,354,l)
);
},
{
closed = 1;
nodes = (
(480,330,l),
(480,250,o),
(540,190,o),
(640,190,cs),
(727,190,l),
(780,270,l),
(900,350,l),
(900,360,ls),
(900,440,o),
(840,500,o),
(740,500,cs),
(660,500,ls),
(541,500,o),
(480,440,o),
(480,340,cs)
);
},
{
closed = 1;
nodes = (
(780,350,l),
(780,310,o),
(759,290,o),
(720,290,cs),
(600,290,l),
(600,340,ls),
(600,380,o),
(621,400,o),
(660,400,cs),
(780,400,l)
);
},
{
closed = 1;
nodes = (
(625,648,cs),
(625,613,o),
(654,584,o),
(689,584,cs),
(724,584,o),
(753,613,o),
(753,648,cs),
(753,683,o),
(724,712,o),
(689,712,cs),
(654,712,o),
(625,683,o)
);
}
);
};
layerId = "65DE19D7-C0F2-4D8D-9C1D-34999E633ECA";
shapes = (
{
closed = 1;
nodes = (
(780,300,l),
(780,160,ls),
(780,120,o),
(759,100,o),
(720,100,cs),
(240,100,l),
(240,300,l),
(120,300,l),
(120,140,ls),
(120,60,o),
(180,0,o),
(280,0,cs),
(720,0,ls),
(839,0,o),
(900,60,o),
(900,160,cs),
(900,354,l)
);
},
{
closed = 1;
nodes = (
(480,330,l),
(480,250,o),
(540,190,o),
(640,190,cs),
(727,190,l),
(780,270,l),
(900,350,l),
(900,360,ls),
(900,440,o),
(840,500,o),
(740,500,cs),
(660,500,ls),
(541,500,o),
(480,440,o),
(480,340,cs)
);
},
{
closed = 1;
nodes = (
(780,350,l),
(780,310,o),
(759,290,o),
(720,290,cs),
(600,290,l),
(600,340,ls),
(600,380,o),
(621,400,o),
(660,400,cs),
(780,400,l)
);
}
);
width = 1020;
},
{
layerId = "FCEAB5BF-AFE7-45BC-83DB-D0DE89866BD6";
width = 600;
}
);
unicode = 1697;
},
{
color = 9;
glyphname = "fehDotless-ar.init";
lastChange = "2019-05-17 23:43:25 +0000";
layers = (
{
anchors = (
{
name = bottom;
pos = (330,0);
},
{
name = init;
pos = (480,100);
},
{
name = top;
pos = (330,500);
}
);
background = {
shapes = (
{
closed = 1;
nodes = (
(-5,0,l),
(360,0,ls),
(479,0,o),
(540,60,o),
(540,160,cs),
(540,354,l),
(420,300,l),
(420,160,ls),
(420,120,o),
(399,100,o),
(360,100,cs),
(-5,100,l)
);
},
{
closed = 1;
nodes = (
(120,330,ls),
(120,250,o),
(180,190,o),
(280,190,cs),
(367,190,l),
(420,270,l),
(540,350,l),
(540,360,ls),
(540,440,o),
(480,500,o),
(380,500,cs),
(300,500,ls),
(181,500,o),
(120,440,o),
(120,340,cs)
);
},
{
closed = 1;
nodes = (
(420,350,ls),
(420,310,o),
(399,290,o),
(360,290,cs),
(240,290,l),
(240,340,ls),
(240,380,o),
(261,400,o),
(300,400,cs),
(420,400,l)
);
},
{
closed = 1;
nodes = (
(265,648,cs),
(265,613,o),
(294,584,o),
(329,584,cs),
(364,584,o),
(393,613,o),
(393,648,cs),
(393,683,o),
(364,712,o),
(329,712,cs),
(294,712,o),
(265,683,o)
);
}
);
};
layerId = "65DE19D7-C0F2-4D8D-9C1D-34999E633ECA";
shapes = (
{
closed = 1;
nodes = (
(-5,0,l),
(360,0,ls),
(479,0,o),
(540,60,o),
(540,160,cs),
(540,354,l),
(420,300,l),
(420,160,ls),
(420,120,o),
(399,100,o),
(360,100,cs),
(-5,100,l)
);
},
{
closed = 1;
nodes = (
(120,330,ls),
(120,250,o),
(180,190,o),
(280,190,cs),
(367,190,l),
(420,270,l),
(540,350,l),
(540,360,ls),
(540,440,o),
(480,500,o),
(380,500,cs),
(300,500,ls),
(181,500,o),
(120,440,o),
(120,340,cs)
);
},
{
closed = 1;
nodes = (
(420,350,ls),
(420,310,o),
(399,290,o),
(360,290,cs),
(240,290,l),
(240,340,ls),
(240,380,o),
(261,400,o),
(300,400,cs),
(420,400,l)
);
}
);
width = 660;
},
{
layerId = "FCEAB5BF-AFE7-45BC-83DB-D0DE89866BD6";
width = 600;
}
);
metricRight = "fehDotless-ar";
},
{
color = 9;
glyphname = "qafDotless-ar";
lastChange = "2019-05-17 23:44:58 +0000";
layers = (
{
anchors = (
{
name = bottom;
pos = (450,0);
},
{
name = init;
pos = (720,100);
},
{
name = top;
pos = (569,400);
}
);
background = {
shapes = (
{
closed = 1;
nodes = (
(405,548,cs),
(405,513,o),
(434,484,o),
(469,484,cs),
(504,484,o),
(533,513,o),
(533,548,cs),
(533,583,o),
(504,612,o),
(469,612,cs),
(434,612,o),
(405,583,o)
);
},
{
closed = 1;
nodes = (
(605,548,cs),
(605,513,o),
(634,484,o),
(669,484,cs),
(704,484,o),
(733,513,o),
(733,548,cs),
(733,583,o),
(704,612,o),
(669,612,cs),
(634,612,o),
(605,583,o)
);
}
);
};
layerId = "65DE19D7-C0F2-4D8D-9C1D-34999E633ECA";
shapes = (
{
closed = 1;
nodes = (
(660,200,l),
(660,-40,ls),
(660,-80,o),
(639,-100,o),
(600,-100,cs),
(240,-100,l),
(240,100,l),
(120,100,l),
(120,-60,ls),
(120,-140,o),
(180,-200,o),
(280,-200,cs),
(600,-200,ls),
(719,-200,o),
(780,-140,o),
(780,-40,cs),
(780,254,l)
);
},
{
closed = 1;
nodes = (
(360,230,l),
(360,150,o),
(420,90,o),
(520,90,cs),
(607,90,l),
(660,170,l),
(780,250,l),
(780,260,ls),
(780,340,o),
(720,400,o),
(620,400,cs),
(540,400,ls),
(421,400,o),
(360,340,o),
(360,240,cs)
);
},
{
closed = 1;
nodes = (
(660,250,l),
(660,210,o),
(639,190,o),
(600,190,cs),
(480,190,l),
(480,240,ls),
(480,280,o),
(501,300,o),
(540,300,cs),
(660,300,l)
);
}
);
width = 900;
},
{
layerId = "FCEAB5BF-AFE7-45BC-83DB-D0DE89866BD6";
width = 600;
}
);
unicode = 1647;
},
{
color = 4;
glyphname = "qaf-ar";
lastChange = "2019-05-17 23:32:30 +0000";
layers = (
{
background = {
shapes = (
{
closed = 1;
nodes = (
(470,552,o),
(442,580,o),
(420,580,qs),
(398,580,o),
(370,552,o),
(370,530,qs),
(370,508,o),
(398,480,o),
(420,480,qs),
(442,480,o),
(470,508,o),
(470,530,qs)
);
},
{
closed = 1;
nodes = (
(300,552,o),
(272,580,o),
(250,580,qs),
(228,580,o),
(200,552,o),
(200,530,qs),
(200,508,o),
(228,480,o),
(250,480,qs),
(272,480,o),
(300,508,o),
(300,530,qs)
);
},
{
closed = 1;
nodes = (
(500,381,l),
(463,337,o),
(392,337,qs),
(380,337,o),
(335,339,o),
(324,339,qs),
(265,339,o),
(209,273,o),
(209,230,qs),
(209,186,o),
(260,121,o),
(300,121,qs),
(400,121,l),
(400,-40,ls),
(400,-82,o),
(355,-101,qs),
(323,-115,o),
(275,-115,qs),
(145,-115,o),
(145,-45,qs),
(145,97,ls),
(145,98,o),
(145,98,q),
(140,98,o),
(121,84,qs),
(59,41,o),
(59,-42,qs),
(59,-125,o),
(128,-180,qs),
(193,-231,o),
(279,-231,qs),
(344,-231,o),
(418,-183,qs),
(500,-130,o),
(500,-70,qs)
);
},
{
closed = 1;
nodes = (
(345,201,ls),
(307,201,o),
(307,233,qs),
(307,261,o),
(345,261,qs),
(400,261,l),
(400,201,l)
);
}
);
};
layerId = "65DE19D7-C0F2-4D8D-9C1D-34999E633ECA";
shapes = (
{
ref = "qafDotless-ar";
},
{
pos = (305,-100);
ref = "twodotshorizontalabove-ar";
}
);
width = 900;
},
{
layerId = "FCEAB5BF-AFE7-45BC-83DB-D0DE89866BD6";
width = 600;
}
);
unicode = 1602;
},
{
color = 4;
glyphname = "qaf-ar.fina";
lastChange = "2019-05-17 23:32:30 +0000";
layers = (
{
background = {
shapes = (
{
closed = 1;
nodes = (
(470,552,o),
(442,580,o),
(420,580,qs),
(398,580,o),
(370,552,o),
(370,530,qs),
(370,508,o),
(398,480,o),
(420,480,qs),
(442,480,o),
(470,508,o),
(470,530,qs)
);
},
{
closed = 1;
nodes = (
(300,552,o),
(272,580,o),
(250,580,qs),
(228,580,o),
(200,552,o),
(200,530,qs),
(200,508,o),
(228,480,o),
(250,480,qs),
(272,480,o),
(300,508,o),
(300,530,qs)
);
},
{
closed = 1;
nodes = (
(550,115,l),
(500,115,l),
(500,381,l),
(463,337,o),
(392,337,qs),
(380,337,o),
(335,339,o),
(324,339,qs),
(265,339,o),
(209,273,o),
(209,230,qs),
(209,186,o),
(260,121,o),
(300,121,qs),
(400,121,l),
(400,-40,ls),
(400,-82,o),
(355,-101,qs),
(323,-115,o),
(275,-115,qs),
(145,-115,o),
(145,-45,qs),
(145,97,ls),
(145,98,o),
(145,98,q),
(140,98,o),
(121,84,qs),
(59,41,o),
(59,-42,qs),
(59,-125,o),
(128,-180,qs),
(193,-231,o),
(279,-231,qs),
(344,-231,o),
(418,-183,qs),
(500,-130,o),
(500,-70,qs),
(500,0,l),
(550,0,l)
);
},
{
closed = 1;
nodes = (
(345,201,ls),
(307,201,o),
(307,233,qs),
(307,261,o),
(345,261,qs),
(400,261,l),
(400,201,l)
);
}
);
};
layerId = "65DE19D7-C0F2-4D8D-9C1D-34999E633ECA";
shapes = (
{
ref = "qafDotless-ar.fina";
},
{
pos = (305,-100);
ref = "twodotshorizontalabove-ar";
}
);
width = 900;
},
{
layerId = "FCEAB5BF-AFE7-45BC-83DB-D0DE89866BD6";
width = 600;
}
);
unicode = 65238;
userData = {
com.typemytype.robofont.mark = (
0.6,
0.986,
1,
1
);
};
},
{
color = 4;
glyphname = "qaf-ar.medi";
lastChange = "2019-05-17 23:32:30 +0000";
layers = (
{
background = {
shapes = (
{
closed = 1;
nodes = (
(430,567,o),
(402,595,o),
(380,595,qs),
(358,595,o),
(330,567,o),
(330,545,qs),
(330,523,o),
(358,495,o),
(380,495,qs),
(402,495,o),
(430,523,o),
(430,545,qs)
);
},
{
closed = 1;
nodes = (
(270,567,o),
(242,595,o),
(220,595,qs),
(198,595,o),
(170,567,o),
(170,545,qs),
(170,523,o),
(198,495,o),
(220,495,qs),
(242,495,o),
(270,523,o),
(270,545,qs)
);
},
{
closed = 1;
nodes = (
(520,117,l),
(450,117,l),
(450,388,l),
(425,363,o),
(392,354,qs),
(368,347,o),
(331,348,qs),
(235,350,o),
(271,350,q),
(271,350,l),
(215,350,o),
(159,292,o),
(159,252,qs),
(159,213,o),
(185,184,qs),
(212,154,o),
(250,154,qs),
(350,154,l),
(350,117,l),
(0,117,l),
(-70,0,l),
(520,0,l)
);
},
{
closed = 1;
nodes = (
(287,226,ls),
(256,226,o),
(256,251,qs),
(256,280,o),
(289,280,qs),
(350,280,l),
(350,226,l)
);
}
);
};
layerId = "65DE19D7-C0F2-4D8D-9C1D-34999E633ECA";
shapes = (
{
ref = "fehDotless-ar.medi";
},
{
pos = (66,0);
ref = "twodotshorizontalabove-ar";
}
);
width = 660;
},
{
layerId = "FCEAB5BF-AFE7-45BC-83DB-D0DE89866BD6";
width = 600;
}
);
unicode = 65240;
userData = {
com.typemytype.robofont.mark = (
0.6,
0.986,
1,
1
);
};
},
{
color = 4;
glyphname = "qaf-ar.init";
lastChange = "2019-05-17 23:32:30 +0000";
layers = (
{
background = {
shapes = (
{
closed = 1;
nodes = (
(435,627,o),
(407,655,o),
(385,655,qs),
(363,655,o),
(335,627,o),
(335,605,qs),
(335,583,o),
(363,555,o),
(385,555,qs),
(407,555,o),
(435,583,o),
(435,605,qs)
);
},
{
closed = 1;
nodes = (
(265,627,o),
(237,655,o),
(215,655,qs),
(193,655,o),
(165,627,o),
(165,605,qs),
(165,583,o),
(193,555,o),
(215,555,qs),
(237,555,o),
(265,583,o),
(265,605,qs)
);
},
{
closed = 1;
nodes = (
(450,451,l),
(410,407,o),
(340,407,qs),
(328,407,o),
(282,409,o),
(271,409,qs),
(214,409,o),
(159,343,o),
(159,296,qs),
(159,255,o),
(185,224,qs),
(211,191,o),
(250,191,qs),
(350,191,l),
(350,117,l),
(0,117,l),
(-70,0,l),
(413,0,ls),
(433,0,o),
(443,30,qs),
(450,51,o),
(450,75,qs)
);
},
{
closed = 1;
nodes = (
(287,271,ls),
(256,271,o),
(256,299,qs),
(256,331,o),
(289,331,qs),
(350,331,l),
(350,271,l)
);
}
);
};
layerId = "65DE19D7-C0F2-4D8D-9C1D-34999E633ECA";
shapes = (
{
ref = "fehDotless-ar.init";
},
{
pos = (66,0);
ref = "twodotshorizontalabove-ar";
}
);
width = 660;
},
{
layerId = "FCEAB5BF-AFE7-45BC-83DB-D0DE89866BD6";
width = 600;
}
);
unicode = 65239;
},
